<?xml version="1.0" encoding="UTF-8"?>
<svg width="350px" height="191px" viewBox="0 0 350 191" version="1.1" xmlns="http://www.w3.org/2000/svg" xmlns:xlink="http://www.w3.org/1999/xlink">
    <!-- Generator: Sketch 61.2 (89653) - https://sketch.com -->
    <title>Shape</title>
    <desc>Created with Sketch.</desc>
    <g id="Page-1" stroke="none" stroke-width="1" fill="none" fill-rule="evenodd" opacity="0.5">
        <g id="08---RESULTS-+-balloons" transform="translate(-13.000000, -68.000000)" fill="#FFFFFF" fill-rule="nonzero">
            <g id="CLARE-message" transform="translate(0.000000, 34.000000)">
                <path d="M133.690542,36.6226845 C133.690542,36.6226845 83.4512462,7.18960781 20.9442148,145.525068 C20.9442148,145.525068 -6.87725599,190.557676 41.6095067,210.925365 C48.2691343,213.721507 104.18956,241.182567 158.518102,210.866498 C158.518102,210.866498 195.321307,193.500983 272.666456,200.815103 C273.148403,200.859252 273.63035,200.873969 274.097692,200.859252 C282.655898,200.78567 358.277722,198.460457 362.688265,139.049791 C362.688265,139.049791 370.414017,91.6331048 308.943902,91.3682071 C242.084745,91.0885929 229.203623,91.3682071 189.771617,67.8217458 C189.771617,67.8217458 157.641835,47.2185921 133.690542,36.6226845 Z" id="Shape"></path>
            </g>
        </g>
    </g>
</svg>