<?xml version="1.0" encoding="UTF-8"?>
<svg width="165px" height="209px" viewBox="0 0 165 209" version="1.1" xmlns="http://www.w3.org/2000/svg" xmlns:xlink="http://www.w3.org/1999/xlink">
    <!-- Generator: Sketch 61.2 (89653) - https://sketch.com -->
    <title>balloons</title>
    <desc>Created with Sketch.</desc>
    <g id="Page-1" stroke="none" stroke-width="1" fill="none" fill-rule="evenodd">
        <g id="UI---DESIGN-LANGUAGE" transform="translate(-5027.000000, -1770.000000)">
            <g id="balloons" transform="translate(5027.000000, 1770.000000)">
                <g id="Asset-2" transform="translate(82.500000, 96.500000) scale(-1, 1) translate(-82.500000, -96.500000) " fill-rule="nonzero">
                    <path d="M92.6027397,192.705158 C91.6499395,186.642448 88.8378046,180.707739 84.2815718,175.144223 C75.7905842,164.751133 62.1625491,156.234654 50.0416642,149.061069 C33.1233713,139.058223 32.8368005,124.498716 32.8368005,124.355244 L31.5313112,124.355244 C31.5313112,124.504455 31.8072683,139.333689 49.0758144,149.543134 C69.9424165,161.875961 88.6225893,174.656419 91.4033877,192.951929 C91.7600123,192.818061 92.1717404,192.733346 92.6027397,192.705158 L92.6027397,192.705158 Z" id="Path" fill="#C5CFD6"></path>
                    <path d="M135.564897,135.073476 L134.303812,135.149709 C134.303812,135.302175 136.805478,150.79507 116.310271,167.812625 C101.32078,180.250335 97.5272698,186.841559 97.4657534,192.858104 C97.8998607,192.83348 98.3380765,192.865562 98.7473446,192.951929 C98.7473446,187.023346 102.520349,180.537675 117.356049,168.223111 C138.107574,150.988585 135.595655,135.231806 135.564897,135.073476 Z" id="Path" fill="#C5CFD6"></path>
                    <path d="M98.2974518,157.084261 C96.0284564,168.521571 93.5531887,181.033395 95.0280357,192.681653 C95.4917312,192.704953 95.9403852,192.797531 96.3378648,192.951929 C94.7805089,181.270711 97.2764038,168.67319 99.5557128,157.163366 C102.464152,142.515699 104.970361,129.86544 99.1741091,121.862619 C87.1381199,105.27028 91.480152,88.2494527 91.5214064,88.0516894 L90.273459,87.9132551 C90.273459,88.091242 85.8076635,105.375753 98.0189841,122.225185 C103.660532,130.017059 101.17495,142.561843 98.2974518,157.084261 Z" id="Path" fill="#C5CFD6"></path>
                    <path d="M87.6810134,87.6648405 C87.6810134,87.6648405 90.431878,88.6846966 88.6998522,90.5612319 C86.9678264,92.4377673 81.2113877,93.8961616 83.9520638,95.6605127 C86.6927399,97.4248639 95.9641721,97.700225 98.409385,94.7732379 C99.0716302,93.7533817 96.2596353,92.8967025 93.9570599,91.7136694 C91.6544844,90.5306363 92.9382212,88.2767542 94.3849721,87.6342448 C94.8128844,87.4608692 87.6810134,87.6648405 87.6810134,87.6648405 Z" id="Path" fill="#3FBDA8"></path>
                    <path d="M93.9603415,91.7526696 C91.6696075,90.6079345 92.9422375,88.3082436 94.3879452,87.6643301 C94.8664541,87.4394715 87.739726,87.6643301 87.739726,87.6643301 C87.739726,87.6643301 89.5621322,88.3286853 89.2770631,89.5858497 C90.0406411,91.9673074 96.627774,92.0388533 93.5530999,95.4219542 C92.2811605,96.3690688 90.7482688,96.8975028 89.1650716,96.9346398 C92.7386167,97.1697194 96.892481,96.5769101 98.409456,94.7780408 C99.0712236,93.7355142 96.2612566,92.8974046 93.9603415,91.7526696 Z" id="Path" fill="#32AD95"></path>
                    <path d="M130.406067,34.9036402 C130.406067,63.1631105 106.977835,88.2621172 90.7108181,88.2621172 C74.4438008,88.2621172 51.1203523,62.7321382 51.1203523,34.9652077 C51.1010755,15.6714657 68.8341436,0.0170152476 90.7282845,1.59931e-13 C112.622425,-0.0169875287 130.386773,15.6098982 130.406067,34.9036402 Z" id="Path" fill="#3FBDA8"></path>
                    <path d="M30.7924444,129.868794 C30.7924444,129.868794 33.163537,130.754613 31.6207737,132.332796 C30.0780104,133.91098 25.149451,135.163345 27.4791272,136.680437 C29.8088034,138.197529 37.8332435,138.380802 39.9765456,135.926982 C40.5563761,135.041163 38.1231588,134.328435 36.1351684,133.361161 C34.1471781,132.393887 35.2654227,130.438976 36.4975625,129.878976 C36.9324354,129.654975 30.7924444,129.868794 30.7924444,129.868794 Z" id="Path" fill="#FCB64C"></path>
                    <path d="M36.2538164,133.332039 C34.325868,132.367021 35.410339,130.416669 36.6052653,129.857975 C37.0069212,129.675129 31.0322896,129.857975 31.0322896,129.857975 C31.0322896,129.857975 32.5585821,130.447143 32.3175885,131.513742 C32.960238,133.545359 38.493048,133.545359 35.9124088,136.450571 C34.8435041,137.262008 33.5529442,137.719662 32.2171745,137.760964 C35.2295938,137.953967 38.7039174,137.456221 39.9791748,135.932509 C40.5414931,135.008123 38.1817647,134.297057 36.2538164,133.332039 Z" id="Path" fill="#E59E4A"></path>
                    <path d="M66.8982387,84.969585 C66.8982387,109.065231 47.3361698,130.474434 33.683953,130.474434 C20.0317363,130.474434 0.469667319,108.684394 0.469667319,84.969585 C0.469667319,68.4842334 15.3402096,55.1202155 33.683953,55.1202155 C52.0276965,55.1202155 66.8982387,68.4842334 66.8982387,84.969585 L66.8982387,84.969585 Z" id="Path" fill="#FCB64C"></path>
                    <path d="M6.08666426,63.0662853 C5.66253793,62.9737194 5.24362798,63.2422819 5.15100269,63.6661365 C5.0583774,64.0899911 5.32711208,64.5086326 5.7512384,64.6011986 C17.6500294,68.3590897 18.2149571,82.9319446 19.5478335,93.0588437 C19.6390618,93.9488113 20.4103737,94.6123583 21.3045751,94.5701397 C22.1987765,94.527921 22.9040552,93.7946584 22.9109191,92.9000595 C23.29048,80.3472917 20.0774533,66.0302558 6.08666426,63.0662853 Z" id="Path" fill="#FCC46F" transform="translate(14.036374, 78.810039) scale(-1, 1) translate(-14.036374, -78.810039) "></path>
                    <path d="M34.7164523,132.209034 L34.4436995,132.209034 C33.6759509,132.209034 31.1706659,131.940547 31.0393404,131.006211 C30.9585248,130.447757 31.594948,130.200748 31.7969871,130.125572 L31.9081086,130.125572 L32.0192301,130.125572 C32.8641071,130.336304 33.7275708,130.451498 34.5952289,130.469236 C34.8931445,130.474869 35.1908694,130.449691 35.484201,130.394059 L35.5751186,130.394059 C35.9680256,130.439027 36.2601386,130.801334 36.2418476,131.221 C36.237761,131.534402 36.0809518,131.823087 35.8276675,131.983505 C35.4850212,132.169642 35.0995014,132.247886 34.7164523,132.209034 L34.7164523,132.209034 Z M31.9485165,130.909555 C32.7687733,131.209837 33.6270591,131.376396 34.4942093,131.403572 C35.2215501,131.403572 35.5044049,131.263958 35.5044049,131.199521 L35.5044049,131.199521 C35.2067748,131.246112 34.90615,131.267658 34.6053308,131.263958 C33.7182538,131.246157 32.8350394,131.134634 31.9687204,130.931034 L31.9485165,130.909555 Z" id="Shape" fill="#9B9B9B"></path>
                    <path d="M132.608179,134.375272 C132.608179,134.375272 134.542397,135.108372 133.280065,136.411661 C132.017734,137.714949 128.006777,138.763689 129.940995,140.016069 C131.875212,141.268448 138.400652,141.421177 140.121088,139.384788 C140.589372,138.651688 138.604254,138.071317 136.985619,137.266944 C135.366984,136.46257 136.283193,134.843641 137.280842,134.375272 C137.616785,134.232725 132.608179,134.375272 132.608179,134.375272 Z" id="Path" fill="#ED6B4C"></path>
                    <path d="M136.929674,137.297463 C135.313574,136.486025 136.228347,134.852876 137.224434,134.380393 C137.559852,134.226323 132.548924,134.380393 132.548924,134.380393 C132.548924,134.380393 133.829607,134.873419 133.626324,135.767029 C134.165024,137.451534 138.810043,137.513162 136.67557,139.875577 C135.785969,140.522956 134.722377,140.881226 133.626324,140.902715 C136.147034,141.077328 139.074311,140.656202 140.141547,139.37228 C140.527785,138.69437 138.566103,138.108901 136.929674,137.297463 Z" id="Path" fill="#CC5A44"></path>
                    <path d="M164.900656,96.9367606 C164.900656,116.910116 147.850559,134.66078 136.002187,134.66078 C124.153815,134.66078 107.103718,116.591119 107.103718,96.9367606 C107.103718,83.2830107 120.055481,72.2144595 136.03229,72.2144595 C152.009098,72.2144595 164.960861,83.2830107 164.960861,96.9367606 L164.900656,96.9367606 Z" id="Path" fill="#ED6B4C" transform="translate(136.032290, 103.437620) scale(-1, 1) translate(-136.032290, -103.437620) "></path>
                    <path d="M123.137689,99.8793421 C123.39073,91.4483787 121.248712,81.832459 111.921519,79.8417326 C111.638768,79.7795614 111.359495,79.9599392 111.297745,80.2446177 C111.235995,80.5292961 111.415151,80.8104733 111.697902,80.8726445 C119.630429,83.3966012 120.007048,93.1843395 120.895632,99.9859882 C120.956451,100.583728 121.470659,101.029394 122.066793,101.001038 C122.662927,100.972682 123.133113,100.480192 123.137689,99.8793421 L123.137689,99.8793421 Z" id="Path" fill="#F0886F" transform="translate(117.221326, 90.415896) scale(-1, 1) translate(-117.221326, -90.415896) "></path>
                    <path d="M73.9676806,39.575854 C74.3472415,27.0230862 71.1342148,12.7060503 57.1434258,9.74207982 C56.7192994,9.64951389 56.3003895,9.91807641 56.2077642,10.341931 C56.1151389,10.7657856 56.3838736,11.1844271 56.8079999,11.2769931 C68.7067909,15.0348842 69.2717186,29.6077391 70.6045951,39.7346382 C70.6958233,40.6246058 71.4671353,41.2881528 72.3613366,41.2459342 C73.255538,41.2037155 73.9608167,40.4704529 73.9676806,39.575854 L73.9676806,39.575854 Z" id="Path" fill="#65CAB9" transform="translate(65.093136, 25.485834) scale(-1, 1) translate(-65.093136, -25.485834) "></path>
                    <path d="M135.766074,137.095089 L135.521454,137.095089 C134.851409,137.095089 132.671104,136.868578 132.554112,136.091968 C132.490299,135.62816 133.032716,135.423221 133.213522,135.358504 L133.309242,135.358504 L133.404963,135.358504 C134.134666,135.531134 134.879035,135.63227 135.627811,135.660519 C135.888038,135.663632 136.147979,135.641964 136.404212,135.595801 L136.478662,135.595801 C136.824451,135.629946 137.082343,135.934289 137.063621,136.286121 C137.061881,136.547998 136.924553,136.789676 136.70201,136.922509 C136.411477,137.065797 136.087746,137.12549 135.766074,137.095089 Z M133.341149,136.016465 C134.059026,136.259927 134.807562,136.397951 135.563997,136.426342 C136.202135,136.426342 136.414848,136.307693 136.436119,136.253762 C136.174337,136.278426 135.910864,136.278426 135.649082,136.253762 C134.876336,136.242265 134.106692,136.151924 133.351785,135.984106 L133.341149,136.016465 Z" id="Shape" fill="#9B9B9B"></path>
                    <path d="M91.8677029,91.0378157 L91.6142006,91.0378157 C90.9043941,91.0378157 88.5721728,90.8544259 88.4403516,90.2366916 C88.369371,89.8699119 88.9574963,89.7058262 89.1501581,89.6575657 L89.251559,89.6575657 L89.35296,89.6575657 C90.1502291,89.7904152 90.9570611,89.864634 91.766302,89.879564 C92.0397983,89.896415 92.3141532,89.896415 92.5876495,89.879564 L92.6789103,89.879564 C93.005291,89.8788953 93.2760547,90.1197279 93.297456,90.4297335 C93.284734,90.654897 93.1336381,90.8517093 92.9121325,90.9316426 C92.5766192,91.0405387 92.2198089,91.0768108 91.8677029,91.0378157 L91.8677029,91.0378157 Z M89.2921194,90.1884311 C90.0668106,90.3845832 90.8634347,90.491521 91.6649011,90.5069503 C92.3442873,90.5069503 92.5876495,90.4200814 92.6079297,90.371821 L92.6079297,90.371821 C92.3310594,90.3889542 92.0533124,90.3889542 91.7764421,90.371821 C90.944201,90.3718049 90.1133447,90.307244 89.2921194,90.178779 L89.2921194,90.1884311 Z" id="Shape" fill="#9B9B9B"></path>
                </g>
                <g id="basket" transform="translate(29.000000, 170.000000)">
                    <path d="M84.8678024,12.8395062 L3.13219758,12.8395062 C2.26415496,12.8395062 1.56028369,12.1028599 1.56028369,11.1943979 L1.56028369,7.90436758 C1.56028369,6.99590552 2.26415496,6.25925926 3.13219758,6.25925926 L84.8678024,6.25925926 C85.735845,6.25925926 86.4397163,6.99590552 86.4397163,7.90436758 L86.4397163,11.1943979 C86.4397163,12.1030463 85.735845,12.8395062 84.8678024,12.8395062 L84.8678024,12.8395062 Z" id="Shape" fill="#FFDCA0"></path>
                    <rect id="Rectangle-path" fill="#EBCC98" x="42.4397163" y="6.25925926" width="3.12056738" height="6.58024691"></rect>
                    <rect id="Rectangle-path" fill="#EBCC98" x="29.6453901" y="6.25925926" width="3.12056738" height="6.58024691"></rect>
                    <rect id="Rectangle-path" fill="#EBCC98" x="4.5248227" y="6.25925926" width="3.12056738" height="6.58024691"></rect>
                    <rect id="Rectangle-path" fill="#EBCC98" x="67.5602837" y="6.25925926" width="3.12056738" height="6.58024691"></rect>
                    <rect id="Rectangle-path" fill="#EBCC98" x="80.0425532" y="6.25925926" width="3.12056738" height="6.58024691"></rect>
                    <rect id="Rectangle-path" fill="#EBCC98" x="17.0070922" y="6.25925926" width="3.12056738" height="6.58024691"></rect>
                    <rect id="Rectangle-path" fill="#EBCC98" x="54.9219858" y="6.25925926" width="3.12056738" height="6.58024691"></rect>
                    <path d="M81.743191,26.1604938 L6.10078063,26.1604938 C5.23050481,26.1604938 4.5248227,25.4238476 4.5248227,24.5153855 L4.5248227,21.2253552 C4.5248227,20.3168932 5.23050481,19.5802469 6.10078063,19.5802469 L81.743191,19.5802469 C82.6134668,19.5802469 83.3191489,20.3168932 83.3191489,21.2253552 L83.3191489,24.5153855 C83.3191489,25.4238476 82.6134668,26.1604938 81.743191,26.1604938 L81.743191,26.1604938 Z" id="Shape" fill="#FFDCA0"></path>
                    <rect id="Rectangle-path" fill="#EBCC98" x="42.4397163" y="19.5802469" width="3.12056738" height="6.58024691"></rect>
                    <rect id="Rectangle-path" fill="#EBCC98" x="29.6453901" y="19.5802469" width="3.12056738" height="6.58024691"></rect>
                    <path d="M7.64539007,26.1604938 L4.71978083,26.1604938 C4.61213849,26.1604938 4.5248227,26.0684311 4.5248227,25.9549368 L4.5248227,19.7858039 C4.5248227,19.6723096 4.61213849,19.5802469 4.71978083,19.5802469 L7.64539007,19.5802469 L7.64539007,26.1604938 L7.64539007,26.1604938 Z" id="Shape" fill="#EBCC98"></path>
                    <rect id="Rectangle-path" fill="#EBCC98" x="67.5602837" y="19.5802469" width="3.12056738" height="6.58024691"></rect>
                    <path d="M82.9681622,26.1604938 L80.0425532,26.1604938 L80.0425532,19.5802469 L82.9681622,19.5802469 C83.0758045,19.5802469 83.1631203,19.672307 83.1631203,19.7857981 L83.1631203,25.9547563 C83.1632971,26.0684337 83.0758045,26.1604938 82.9681622,26.1604938 L82.9681622,26.1604938 Z" id="Shape" fill="#EBCC98"></path>
                    <rect id="Rectangle-path" fill="#EBCC98" x="17.0070922" y="19.5802469" width="3.12056738" height="6.58024691"></rect>
                    <rect id="Rectangle-path" fill="#EBCC98" x="54.9219858" y="19.5802469" width="3.12056738" height="6.58024691"></rect>
                    <path d="M78.4686321,39 L9.21931121,39 C8.35016015,39 7.64539007,38.2633537 7.64539007,37.3548917 L7.64539007,34.0648614 C7.64539007,33.1563993 8.35016015,32.4197531 9.21931121,32.4197531 L78.4686321,32.4197531 C79.3377831,32.4197531 80.0425532,33.1563993 80.0425532,34.0648614 L80.0425532,37.3548917 C80.0423749,38.2633537 79.3377831,39 78.4686321,39 L78.4686321,39 Z" id="Shape" fill="#FFDCA0"></path>
                    <rect id="Rectangle-path" fill="#EBCC98" x="42.4397163" y="32.4197531" width="3.12056738" height="6.58024691"></rect>
                    <rect id="Rectangle-path" fill="#EBCC98" x="29.6453901" y="32.4197531" width="3.12056738" height="6.58024691"></rect>
                    <rect id="Rectangle-path" fill="#EBCC98" x="67.5602837" y="32.4197531" width="3.12056738" height="6.58024691"></rect>
                    <rect id="Rectangle-path" fill="#EBCC98" x="17.0070922" y="32.4197531" width="3.12056738" height="6.58024691"></rect>
                    <rect id="Rectangle-path" fill="#EBCC98" x="54.9219858" y="32.4197531" width="3.12056738" height="6.58024691"></rect>
                    <path d="M86.4285015,6.58024691 L1.57149851,6.58024691 C0.703685273,6.58024691 0,5.84360065 0,4.9351386 L0,1.64510832 C0,0.736646259 0.703685273,0 1.57149851,0 L86.4285015,0 C87.2963147,0 88,0.736646259 88,1.64510832 L88,4.9351386 C87.999822,5.84360065 87.2963147,6.58024691 86.4285015,6.58024691 L86.4285015,6.58024691 Z" id="Shape" fill="#EBCC98"></path>
                    <polygon id="Rectangle-path" fill="#E1BE8C" points="48.5248227 0 51.6453901 0 51.6453901 6.58024691 48.5248227 6.58024691"></polygon>
                    <rect id="Rectangle-path" fill="#E1BE8C" x="36.0425532" y="0" width="3.12056738" height="6.58024691"></rect>
                    <rect id="Rectangle-path" fill="#E1BE8C" x="10.9219858" y="0" width="3.12056738" height="6.58024691"></rect>
                    <polygon id="Rectangle-path" fill="#E1BE8C" points="73.9574468 0 77.0780142 0 77.0780142 6.58024691 73.9574468 6.58024691"></polygon>
                    <rect id="Rectangle-path" fill="#E1BE8C" x="23.5602837" y="0" width="3.12056738" height="6.58024691"></rect>
                    <polygon id="Rectangle-path" fill="#E1BE8C" points="61.3191489 0 64.4397163 0 64.4397163 6.58024691 61.3191489 6.58024691"></polygon>
                    <path d="M83.3040776,19.4197531 L4.53989406,19.4197531 C3.66995116,19.4197531 2.96453901,18.6831068 2.96453901,17.7746448 L2.96453901,14.4846145 C2.96453901,13.5761524 3.66995116,12.8395062 4.53989406,12.8395062 L83.3040776,12.8395062 C84.1740205,12.8395062 84.8794326,13.5761524 84.8794326,14.4846145 L84.8794326,17.7746448 C84.8792542,18.6831068 84.1740205,19.4197531 83.3040776,19.4197531 L83.3040776,19.4197531 Z" id="Shape" fill="#EBCC98"></path>
                    <polygon id="Rectangle-path" fill="#E1BE8C" points="48.5248227 12.8395062 51.6453901 12.8395062 51.6453901 19.4197531 48.5248227 19.4197531"></polygon>
                    <rect id="Rectangle-path" fill="#E1BE8C" x="36.0425532" y="12.8395062" width="3.12056738" height="6.58024691"></rect>
                    <rect id="Rectangle-path" fill="#E1BE8C" x="10.9219858" y="12.8395062" width="3.12056738" height="6.58024691"></rect>
                    <polygon id="Rectangle-path" fill="#E1BE8C" points="73.9574468 12.8395062 77.0780142 12.8395062 77.0780142 19.4197531 73.9574468 19.4197531"></polygon>
                    <rect id="Rectangle-path" fill="#E1BE8C" x="23.5602837" y="12.8395062" width="3.12056738" height="6.58024691"></rect>
                    <polygon id="Rectangle-path" fill="#E1BE8C" points="61.3191489 12.8395062 64.4397163 12.8395062 64.4397163 19.4197531 61.3191489 19.4197531"></polygon>
                    <path d="M80.0293021,32.4197531 L7.65846298,32.4197531 C6.78962367,32.4197531 6.08510638,31.6831068 6.08510638,30.7746448 L6.08510638,27.4846145 C6.08510638,26.5761524 6.78962367,25.8395062 7.65846298,25.8395062 L80.0294803,25.8395062 C80.8983196,25.8395062 81.6028369,26.5761524 81.6028369,27.4846145 L81.6028369,30.7746448 C81.6026587,31.6832932 80.8983196,32.4197531 80.0293021,32.4197531 L80.0293021,32.4197531 Z" id="Shape" fill="#EBCC98"></path>
                    <polygon id="Rectangle-path" fill="#E1BE8C" points="48.5248227 25.8395062 51.6453901 25.8395062 51.6453901 32.4197531 48.5248227 32.4197531"></polygon>
                    <rect id="Rectangle-path" fill="#E1BE8C" x="36.0425532" y="25.8395062" width="3.12056738" height="6.58024691"></rect>
                    <rect id="Rectangle-path" fill="#E1BE8C" x="10.9219858" y="25.8395062" width="3.12056738" height="6.58024691"></rect>
                    <polygon id="Rectangle-path" fill="#E1BE8C" points="73.9574468 25.8395062 77.0780142 25.8395062 77.0780142 32.4197531 73.9574468 32.4197531"></polygon>
                    <rect id="Rectangle-path" fill="#E1BE8C" x="23.5602837" y="25.8395062" width="3.12056738" height="6.58024691"></rect>
                    <polygon id="Rectangle-path" fill="#E1BE8C" points="61.3191489 25.8395062 64.4397163 25.8395062 64.4397163 32.4197531 61.3191489 32.4197531"></polygon>
                </g>
                <text id="Numeracy" font-family="Raleway-Bold, Raleway" font-size="11" font-weight="bold" letter-spacing="0.305555556" fill="#FFFFFF">
                    <tspan x="45.4317778" y="47">Numeracy</tspan>
                </text>
                <text id="Literacy" font-family="Raleway-Bold, Raleway" font-size="11" font-weight="bold" letter-spacing="0.305555556" fill="#FFFFFF">
                    <tspan x="5.99277778" y="108">Literacy</tspan>
                </text>
                <text id="Digital-Skills" font-family="Raleway-Bold, Raleway" font-size="11" font-weight="bold" letter-spacing="0.305555556" fill="#FFFFFF">
                    <tspan x="112.688056" y="91">Digital</tspan>
                    <tspan x="116.019833" y="104">Skills</tspan>
                </text>
            </g>
        </g>
    </g>
</svg>