<?xml version="1.0" encoding="UTF-8"?>
<svg viewBox="0 0 326.14 211.81" xmlns="http://www.w3.org/2000/svg">
 <g fill-rule="evenodd">
  <g fill="#7f3f00">
   <path d="m127.47 66.739c-4.309 1.252-10.94 0.182-16.146 0.538 0.066994-1.188 2.283-0.229 3.229-0.538-1.931-2.491-7.794-0.028999-10.226-0.538-4.512-0.94399-13.254-9.626-18.298-13.455-13.008-9.873-23.298-17.076-36.595-26.909-2.362-1.747-5.683-4.16-9.149-6.458-6.316-4.188-11.889-4.164-11.302-13.993 9.211-5.85 16.637 1.122 23.142 5.92 24.089 17.766 52.172 37.636 75.345 55.433zm-3.767 0c4.052-0.561-9.421-1.258-8.611 0h8.611z"/>
   <path d="m109.18 82.346c-6.261 0.434-10.032 4.263-9.149 9.688 1.533 9.412 18.598 6.868 15.069-4.306 4.383 2.613 7.62 6.374 11.84 9.149-1.738 6.514-6.532 9.973-11.84 12.917-23.219-16.81-50.51-41.5-75.345-61.891-7.85-6.445-19.009-14.096-22.604-22.604-3.564-8.435 3.314-14.355 8.073-19.375 2.316 10.565 12.681 17.201 20.989 24.218 20.779 17.551 41.873 36.643 62.967 52.204z"/>
   <path d="m305.07 9.691c2.644 0.264 0.957 3.158 1.615 5.382 0.97 3.282 3.891 4.066 3.229 9.149-0.384 2.949-3.421 7.525-5.92 9.687-6.506 5.63-15.212 10.056-23.142 15.607-21.005 14.705-47.105 35.024-67.811 47.899 5.271-7.045-1.112-15.999-10.226-13.454 25.806-18.819 59.098-39.518 86.109-58.662 5.911-4.189 12.592-9.367 16.146-15.608z"/>
  </g>
  <g fill="#f6f1cd">
   <path d="m35.444 18.841c11.052 5.915 21.541 14.832 32.829 22.604 11.086 7.633 21.967 16.511 31.215 24.218-2.739 0.502-4.643 0.055-8.073 0.53799-18.547-15.897-38.062-30.826-55.971-47.36z"/>
   <path d="m290.54 19.379c1.376-0.022999 0.65601 0.4 0.53799 1.076-17.494 10.79-32.31 23.81-49.513 34.982-5.434 3.528-10.896 9.127-18.299 9.688-0.608-1.122 1.404-2.654 2.153-3.229 19.492-14.965 44.844-27.919 65.121-42.517z"/>
  </g>
  <path d="m115.1 66.739c-0.81-1.258 12.663-0.561 8.611 0h-8.611z"/>
  <g fill="#f6f1cd">
   <path d="m277.63 66.201c-6.706 1.649-7.842-0.63 0 0z"/>
   <path d="m92.491 67.277c0.746-1.227 3.746-0.201 5.382-0.538-0.746 1.227-3.746 0.2-5.382 0.538z"/>
   <path d="m104.33 67.277c1.097-1.235 4.47-0.195 6.458-0.538-1.097 1.235-4.469 0.195-6.458 0.538z"/>
  </g>
  <g fill="#7f3f00">
   <path d="m222.73 67.277c1.139 0.954-1.479 2.332-2.69 3.229-3.732 2.762-9.786 6.04-13.455 9.149-23.813-0.204-56.863 1.682-82.88 0.538-4.803-0.211-10.84 1.316-15.069 0-5.357-1.667-10.032-9.221-13.455-11.84 40.36-0.365 88.443-0.246 127.55-1.076zm-28.523 11.302c3.215-1.091 4.141-4.47 4.844-8.073-0.625-0.452-1.443-0.71-2.691-0.53899-0.22899 3.229-4.998 5.654-2.153 8.612zm-69.426-0.538c0.916-3.023-1.185-7.328-5.382-6.996 1.241 2.885 1.918 6.334 5.382 6.996z"/>
   <path d="m316.91 77.502c-3.221 4.951-10.54 2.479-16.146 2.691-19.016 0.718-43.394 1.057-60.276 1.077 5.391-5.374 12.479-9.049 18.837-13.455 19.555 1.526 47.028-3.394 57.585 9.687z"/>
   <path d="m74.731 80.193c-16.014 0.043999-35.361 0.178-51.127-0.538-4.996-0.227-12.584 1.579-15.069-3.229 15.159-8.19 34.743-7.425 53.818-7.535 3.45 4.444 9.338 6.449 12.378 11.302z"/>
  </g>
  <path d="m196.36 69.968c1.248-0.171 2.066 0.086998 2.691 0.539-0.70299 3.603-1.629 6.982-4.844 8.073-2.844-2.959 1.925-5.384 2.153-8.612zm-1.076 6.996c0.47-1.527 2.745-4.04 1.614-5.382-0.26199 1.734-2.914 3.872-1.614 5.382z"/>
  <path d="m119.4 71.044c4.197-0.332 6.298 3.973 5.382 6.996-3.464-0.661-4.141-4.11-5.382-6.996zm4.844 5.92c-0.435-1.562-1.787-4.999-3.229-3.767 1.356 0.976 1.53 3.135 3.229 3.767z"/>
  <g fill="#f6f1cd">
   <path d="m196.9 71.583c1.131 1.342-1.145 3.855-1.614 5.382-1.3-1.511 1.352-3.649 1.614-5.382z"/>
   <path d="m121.02 73.197c1.442-1.231 2.794 2.205 3.229 3.767-1.699-0.632-1.873-2.791-3.229-3.767z"/>
   <path d="m62.891 81.808c-1.019-0.955-3.555-0.392-5.382-0.538-1.452-0.501 5.942-1.55 5.382 0.538z"/>
   <path d="m204.43 80.731c-24.511 1.728-59.031 1.369-86.648 1.077-1.244-0.013-5.066 0.12-5.92 0-3.247-0.456 2.056-0.568 1.615-0.538 25.031-1.717 52.952 1.286 78.036 0 3.405-1.08 8.664-0.306 12.917-0.53899z"/>
  </g>
  <path d="m2.615 81.27c24.053 1.953 50.698 1.425 73.731 0.538 3.078-0.119 10.033 6.813 12.917 9.149 3.942 3.193 7.718 6.14 10.764 9.688-25.223 0.016006-46.439-0.214-72.655-1.077-10.429-0.343-24.128 2.212-23.68-9.687 0.156-4.157 2.474-5.364-1.077-8.611zm30.676 8.611c1.006 0.429 1.971 0.899 3.229 1.076 1.236-1.183 0.874-1.788 0-3.229-1.74 0.547-2.816-0.382-3.229 2.153zm44.131 2.153c1.645 0.389 1.961-0.55 3.229-0.53899 0.041-0.938-0.12-1.674-0.538-2.152-2.047-0.792-0.106 2.406-2.153 1.614-0.092003-0.805 0.192-1.986-0.538-2.153-0.736 0.689-0.736 2.541 0 3.23z" fill="#7f3f00"/>
  <g fill="#f6f1cd">
   <path d="m45.131 81.808c1.628-1.242 5.551-0.19 8.073-0.538-1.628 1.242-5.551 0.189-8.073 0.538z"/>
   <path d="m279.78 82.346c2.52-1.248 7.349-0.186 10.764-0.538h10.764c-6.102 1.254-14.531 0.181-21.528 0.538z"/>
  </g>
  <g fill="#7f3f00">
   <path d="m201.74 82.884c-5.994 4.769-13.088 8.44-18.836 13.455-0.69801 2.169 1.541 4.151 0.53799 4.844-15.803 0.375-36.143 0.204-55.971-0.538 2.765-9.278-11.968-11.162-13.993-17.222 28.652-0.24799 58.783-0.81 88.262-0.53899zm-46.821 8.611c0.407 1.386 1.718 1.87 3.767 1.615-0.00499-1.43 0.203-3.074-0.53799-3.767-2.009-0.216-3.158 0.429-3.229 2.152z"/>
   <path d="m323.91 83.422c-0.57599 2.756-1.111 2.208-3.229 3.229 0.11301 3.325 3.343 0.215 2.691 4.305-0.18301 1.621-1.893 3.332-2.691 2.691-0.93701 2.731 2.336 1.252 2.153 3.229-8.774 5.637-31.509 3.366-52.204 4.306-22.843 1.038-38.811-0.239-59.738 0 8.002-5.991 16.397-11.587 24.756-17.222 33.894-0.331 58.927 0.496 88.262-0.538zm-67.811 4.306c-0.028015-0.926 0.414-1.379 1.076-1.615 1.081 1.098-0.237 1.056-0.53799 2.153 1.686 0.25 2.402-0.468 2.153-2.153-0.63699-0.62-1.902-0.609-3.229-0.538-0.068008 1.347-1.028 1.685 0.53799 2.153zm-21.528 5.382c1.126 0.31 1.536 1.334 3.229 1.076 1.456-1.183 0.147-1.788 1.076-3.229-1.33-1.855-5.139-1.221-4.305 2.153zm50.59 1.076c2.138 0.344 2.904-0.683 3.767-1.614-0.26001-4.947-7.772-1.773-3.767 1.614zm-29.062 0c-0.258 1.693 0.767 2.104 1.076 3.229 2.186 0.212 3.75-0.197 3.768-2.152-0.143-1.793-3.516-2.136-4.844-1.077z"/>
  </g>
  <path d="m209.82 97.415c-0.631-0.085999-0.45401-0.981-0.53801-1.614-4.743 1.97-8.762-3.519-5.921-7.535-5.045 0.054001-2.451 12.202 5.383 9.149-6.33 5.102-12.279-7.005-6.459-11.302 7.661-5.655 16.678 6.651 7.535 11.302zm0.539-4.305c1.082-3.195-0.638-5.945-4.844-5.382-3.963 2.956 1.001 8.702 4.844 5.382z" fill="#f6f1cd"/>
  <path d="m255.56 85.575c1.327-0.070999 2.593-0.082001 3.229 0.538 0.24899 1.685-0.46802 2.403-2.153 2.153 0.301-1.097 1.619-1.055 0.53799-2.153-0.66199 0.235-1.104 0.689-1.076 1.615-1.566-0.468-0.606-0.806-0.53799-2.153z"/>
  <path d="m205.51 87.728c4.206-0.563 5.926 2.187 4.844 5.382-3.843 3.32-8.807-2.426-4.844-5.382zm0.538 5.382c2.011 0.575 1.534-1.336 3.229-1.076 0.070007-1.327 0.081009-2.593-0.53799-3.229-2.53-0.307-4.205 2.264-2.691 4.305z"/>
  <path d="m77.422 88.804c0.73 0.167 0.446 1.348 0.538 2.153 2.047 0.792 0.105-2.406 2.153-1.614 0.418 0.479 0.579 1.215 0.538 2.152-1.268-0.012001-1.584 0.92699-3.229 0.53899-0.736-0.689-0.736-2.541 0-3.23z"/>
  <g fill="#f6f1cd">
   <path d="m106.48 91.495c-0.123-1.917 0.774-2.813 2.691-2.691 1.895 1.853-1.027 4.399-2.691 2.691z"/>
   <path d="m208.74 88.804c0.619 0.636 0.608 1.902 0.53799 3.229-1.695-0.26-1.219 1.651-3.229 1.076-1.514-2.04 0.161-4.611 2.691-4.305z"/>
  </g>
  <path d="m238.88 90.957c-0.929 1.441 0.38 2.046-1.076 3.229-1.693 0.258-2.104-0.766-3.229-1.076-0.83501-3.374 2.974-4.008 4.305-2.153zm-3.23 2.153c1.45-0.037003 2.587-1.23 1.615-2.153-1.417-0.162-1.766 0.745-1.615 2.153z"/>
  <path d="m288.93 92.572c-0.862 0.931-1.629 1.958-3.767 1.614-4.005-3.387 3.507-6.561 3.767-1.614zm-3.767-1.077v1.077c0.328 0.029999 0.63699 0.081001 0.53799 0.538h1.076c0.029999-0.328 0.079987-0.637 0.53799-0.538v-1.077c-0.328-0.030006-0.638-0.080002-0.53799-0.538h-1.076c-0.031006 0.328-0.080994 0.637-0.53799 0.538z"/>
  <g fill="#f6f1cd">
   <path d="m237.26 90.957c0.972 0.923-0.16499 2.116-1.615 2.153-0.15199-1.408 0.19701-2.315 1.615-2.153z"/>
   <path d="m285.7 90.957h1.076c-0.10001 0.458 0.20999 0.508 0.53799 0.538v1.077c-0.45801-0.098999-0.508 0.21-0.53799 0.538h-1.076c0.098999-0.458-0.20999-0.508-0.53799-0.538v-1.077c0.457 0.098999 0.50699-0.21 0.53799-0.538z"/>
  </g>
  <path d="m260.94 95.263c-0.018005 1.956-1.582 2.364-3.768 2.152-0.31-1.125-1.334-1.536-1.076-3.229 1.329-1.059 4.702-0.716 4.844 1.077zm-3.767-0.538v1.076c0.32901 0.029999 0.638 0.081001 0.539 0.53799h1.076c0.029999-0.328 0.080017-0.63699 0.53802-0.53799v-1.076c-0.328-0.030998-0.638-0.081001-0.53802-0.539h-1.076c-0.030975 0.329-0.080994 0.637-0.539 0.539z"/>
  <g fill="#f6f1cd">
   <path d="m257.71 94.186h1.076c-0.099976 0.458 0.21002 0.508 0.53802 0.539v1.076c-0.45801-0.098999-0.50803 0.21-0.53802 0.53799h-1.076c0.098999-0.458-0.20999-0.508-0.539-0.53799v-1.076c0.45801 0.098 0.50803-0.21 0.539-0.539z"/>
   <path d="m7.997 100.11c2.586 0.104 2.894 2.487 3.229 4.843-1.297 0.221-1.17-0.98299-2.691-0.53799-0.326-1.288-0.774-2.454-0.538-4.305z"/>
   <path d="m13.378 100.11c12.601 2.643 32.828 0.131 48.437 1.614 1.331 0.126 4.938-0.251 4.844 2.153-0.319 2.965-4.04 1.533-5.382 1.615-11.796 0.72-33.769 1.982-46.284 0-0.138-2.195-2.006-2.658-1.615-5.382z"/>
   <path d="m320.14 101.18c0.229 11.394-20.444 5.633-26.909 6.996 0.186-2.871-0.078003-3.746 0.53799-5.382 10.752 0.272 17.251-0.888 26.371-1.614z"/>
   <path d="m90.877 103.87c-8.966-0.252-14.007 2.154-23.142 0.538-0.687-3.5 3.641-2.089 5.92-2.153 5.551-0.15501 14.399-1.011 17.222 1.615z"/>
   <path d="m103.79 102.8c2.036 1.51 1.879 7.007 1.615 9.149-2.316-1.092-1.365-5.452-2.153-8.073h-11.302c1.111-2.656 9.171-0.531 11.84-1.076z"/>
   <path d="m189.36 109.79c-20.276 1.069-39.721 1.154-61.891 1.077-0.744-2.126-0.779-4.962-1.076-7.535 7.575 0.59 17.881-0.495 26.909 0 15.393 0.844 34.032-4.074 36.058 6.458z"/>
   <path d="m214.12 102.8h2.153c0.60301 1.724 1.956 8.251-2.153 6.997 0.15001-3.483-1.042-4.96 0-6.997z"/>
   <path d="m292.16 103.34v4.843c-4.719 0.405-14.701 1.774-20.451 1.077 0.64499-1.509 0.59198-3.714 0.53799-5.92 7.118 0.61 15.62-1.117 19.913 0z"/>
   <path d="m124.78 103.34c1.733 1.121 1.104 6.924 1.076 8.073-1.153-1.896-1.127-4.971-1.076-8.073z"/>
   <path d="m102.18 104.95c1.059 1.453 0.32 4.703 0.538 6.997-14.562 0.646-32.737 1.636-49.513 1.614-0.766-1.925-1.538-3.844-1.615-6.458 17.219-0.362 32.652-2.51 50.59-2.153z"/>
   <path d="m8.535 106.03c6.26 0.916 12.674 1.678 19.913 1.614 0.22 2.155 1.897 4.971 1.077 6.458-5.724-0.119-13.3-0.368-19.913-1.077-0.841-1.85-1.265-4.117-1.077-6.995z"/>
   <path d="m106.48 106.03c5.078 5.456 12.144 5.456 17.222 0-0.318 2.291 0.387 3.56 0.538 5.382-5.779-0.038994-11.609-0.128-16.684 0.538-0.707-1.625-0.369-4.295-1.076-5.92z"/>
   <path d="m49.975 107.1c0.745 1.767 1.269 3.754 1.077 6.458-7.682-0.44099-11.157 0-19.913 0-0.396-2.115-1.122-3.9-1.614-5.92 8.5 0.356 12.907-0.579 20.45-0.538z"/>
   <path d="m317.45 108.72c-0.25598 2.974-1.247 5.211-4.306 5.382-0.16699-2.14 1.243-2.704 1.076-4.844 1.645 0.389 1.962-0.55 3.23-0.53799z"/>
   <path d="m310.99 109.26c1.725 0.354 0.94101 6.862-2.152 5.92 0.452-2.238 0.737-4.644 2.152-5.92z"/>
   <path d="m308.84 109.79c-0.26102 2.251-1.034 3.989-1.614 5.92-18.566 1.205-34.096 2.644-49.513 1.077 0.003998-2.762-0.78799-3.531 0-5.92 18.103 0.702 33.292-1.51 51.127-1.077z"/>
   <path d="m232.96 110.87c0.948 2.325 0.495 6.486 0 7.534-16.377 0.489-41.611 0.926-61.353 0-0.386-2.791-0.274-3.188-0.53801-6.458 18.565-0.725 42.238-1.144 61.891-1.076z"/>
   <path d="m256.64 110.87c-0.216 3.222-0.020996 3.536-0.53799 6.458-7.707-0.441-16.053 1.045-22.065 0.53799 0.33899-1.339 0.625-3.875 0.53799-6.996 10.39 0.118 15.679-0.778 22.065 0z"/>
   <path d="m169.45 111.41c0.709 1.982 1.217 4.166 1.076 6.996-9.734 1.017-13.804 0.665-22.065 1.077-0.77901-2.091-1.234-4.506-1.076-7.535 8.556-0.07 14.958 0.209 22.065-0.538z"/>
   <path d="m146.31 112.48c-0.217 2.549 0.961 3.704 0.53801 6.458-17.714 1.955-34.987 1.234-53.818 1.615-0.661-2.03-1.085-4.297-1.076-6.997 19.722-0.314 38.89-1.96 54.356-1.076z"/>
   <path d="m7.458 113.02c1.074-1.384 2.182 1.729 2.153 3.229-1.207-0.586-0.946-2.641-2.153-3.229z"/>
   <path d="m90.338 113.56c1.008 3.126 1.015 5.12 0.539 6.997-27.75 2.006-45 1.64-71.041-0.538-0.474-1.5-0.671-3.275-1.614-4.306 15.444-1.689 31.292-0.92 48.975-1.076 0.572 2.198-0.034996 3.984 1.076 6.458 1.754-1.497-0.661-5.426 0.53799-6.458 5.751-0.334 14.234-0.703 21.527-1.077z"/>
   <path d="m317.99 113.56c2.125 1.006-0.07901 5.154-1.077 7.535-6.888 1.902-16.258 1.322-24.218 2.153-0.901-0.893-0.42899-3.16-0.53799-4.844 8.818-1.408 19.856-0.595 25.833-4.844z"/>
   <path d="m10.688 114.64h3.767c0.229 1.924 1.434 2.872 1.077 5.382-1.646 0.39-1.583-0.929-3.229-0.53799-0.641-1.513-1.212-3.095-1.615-4.844z"/>
   <path d="m16.607 115.18c1.169 1.163 1.522 3.142 2.153 4.844-1.837-0.495-1.668-2.997-2.153-4.844z"/>
   <path d="m270.09 118.94c0.496 2.578 0.14401 2.039 0.53799 5.382-6.4 2.21-16.701 0.521-23.68 2.153 1.143 2.132 4.16-0.080994 8.61 0.539 0.60301 1.483 0.358 4.449 0 6.458-7.538-0.183-14.194 0.51601-20.989 1.076-1.059-1.452-0.32001-4.703-0.53801-6.996 6.655-0.274 8.298 0.047997 11.84-0.538-4.9-2.094-19.844 0.847-27.985-1.077-0.46901-1.557-0.46901-4.364 0-5.92 15.551 0.18401 37.221-2.951 52.204-1.077z"/>
   <path d="m291.08 117.87c-0.349 2.636-0.093994 2.528 0 5.382-5.591 0.608-12.475 1.587-19.375 1.615 0.41101-2.346-0.66602-4.985 0-5.92 7.428-0.011002 13.32-0.976 19.375-1.077z"/>
   <path d="m192.06 120.02c0.511 2.741 0.511 4.255 0 6.997-18.763 0.252-41.866 1.781-62.967 0.538-0.26601-1.888-0.80301-3.503-0.53902-5.92 21.01-1.816 41.104-1.776 63.506-1.615z"/>
   <path d="m212.51 120.02c-0.198 2.133 0.493 5.158-0.53799 6.458-5.114 0.268-11.354-0.591-15.607 0.539-1.061-1.628-1.52-4.888-0.53799-6.997h16.683z"/>
   <path d="m213.58 120.02h2.691c-0.375 2.137 0.938 5.961-1.076 6.458-2.852 0.161-1.155-4.227-1.615-6.458z"/>
   <path d="m193.13 120.56c2.297 0.214 0.513 4.51 1.076 6.458-2.02-1.495-0.39699-3.454-1.076-6.458z"/>
   <path d="m11.764 121.63c6.007-1.338 13.093 0.896 19.375 1.076 0.726 2.808 0.963 2.857 1.077 5.92-6.859 0.041992-13.928 0.293-19.375-1.076-0.384-1.95-0.204-4.461-1.077-5.92z"/>
   <path d="m126.4 121.1c1.927 0.943 1.185 4.555 1.614 6.997-2.656-0.215-1.258-4.483-1.614-6.997z"/>
   <path d="m103.79 121.63c0.349 2.026 1.184 5.684 0 7.534-14.923-1.253-34.036 1.021-48.437 0-0.685-1.647-0.763-3.901-1.614-5.382 14.988-0.734 31.522-2.037 50.051-2.152z"/>
   <path d="m104.87 121.63h1.614c1.06 1.452 0.32 4.703 0.539 6.996-2.447-0.604-1.215-4.885-2.153-6.996z"/>
   <path d="m52.666 122.71c-0.284 2.507 1.671 4.799 0.539 6.458-7.162-0.45799-13.625 0.396-19.375-0.53799-0.354-1.978-1.045-3.619-1.076-5.92 8.371 0.125 12.927-0.777 19.912 0z"/>
   <path d="m310.99 123.25h3.768c-0.612 1.899-0.59399 4.429-1.076 6.458-2.142-0.34799-2.164 1.424-4.306 1.077-0.172-3.222 1.292-4.808 1.614-7.535z"/>
   <path d="m304.54 123.79c1.033 2.155-1.008 5.287-1.076 8.073-14.986 1.237-33.434 2.486-46.284 1.077v-5.92c13.315-0.264 30.143-2.162 47.36-3.23z"/>
   <path d="m306.69 123.79h1.614c-0.32501 3.765 0.19098 5.821-2.153 8.073-2.728-1.516 0.50601-5.791 0.539-8.073z"/>
   <path d="m232.96 127.55v6.996c-21.058-0.106-38.835 3.177-60.814 0.53799v-5.92c21.735-1.06 38.486-1.914 60.814-1.614z"/>
   <path d="m148.46 128.63c6.415 0.96899 15.604 0.711 22.065 0 1.083 1.608 0.30501 5.078 0.539 7.535h-22.066c-0.81201-1.72-0.74202-6.517-0.53801-7.535z"/>
   <path d="m14.455 129.17c1.867-0.43201 2.069 0.802 3.768 0.53799 0.718 2.438 0.723 3.501 1.076 5.382-1.059 1.068-3.074 0.343-4.305 0 0.243-2.319-1.468-4.599-0.539-5.92z"/>
   <path d="m146.85 129.17c1.06 1.452 0.32001 4.703 0.53801 6.997-19.146 1.092-39.77 2.081-54.356 1.076-0.266-3.199 0.565-4.799 0-6.996 18.236-0.189 33.863-1.441 53.818-1.077z"/>
   <path d="m20.375 129.71c2.812 0.59599 1.97 4.847 3.229 6.997-3.399 0.21301-3.338-5.445-3.229-6.997z"/>
   <path d="m23.065 129.71c13.235 0.754 31.483 0.377 45.208 1.077-0.061005 3.913 0.481 4.362 0.53799 7.535-12.423-0.28601-30.364 1.308-43.055-1.615-1.937-1.292-1.564-4.894-2.691-6.997z"/>
   <path d="m91.415 129.71c1.429 1.262-0.398 5.78 1.076 6.997-5.781 2.314-14.551 0.188-22.065 1.615-0.988-2.823-0.505-5.29-1.076-7.535 8.574-1.043 14.893-0.47198 22.065-1.077z"/>
   <path d="m314.22 137.78c-5.062 3.615-15.698 4.304-23.142 3.768-0.728-1.542 0.003998-5.537 0.53799-7.535 8.89 0.278 16.926-0.295 22.604-3.229 2.669 0.996-0.37299 4.79 0 6.996z"/>
   <path d="m289.47 134.01c0.41 2.139 0.33798 4.919-0.53799 8.073-6.352 0.106-11.414 1.502-18.298 1.077 0.23401-3.465 0.53198-4.753 0-8.073 6.529-0.20599 14.306-0.47398 18.836-1.077z"/>
   <path d="m269.55 135.09v8.073c-15.141 0.35701-33.884 0.31601-51.128 0.53801-1.082-1.609-0.304-5.078-0.53801-7.535 19.615-0.227 33.748-2.67 51.666-1.076z"/>
   <path d="m14.455 136.7c5.897 1.638 13.07 1.999 19.913 2.691 0.819 1.513 0.512 4.152 1.076 5.92-7.809 0.274-14.981-0.087997-19.913-2.691-0.656-1.676-1.253-3.412-1.076-5.92z"/>
   <path d="m212.51 136.7c-0.398 3.397 0.343 4.62-0.53799 7.535-5.966-0.40401-10.267 0.855-16.146 0.53799-0.56001-1.687 0.33099-4.516 0-7.535 5.857 0.115 10.538-0.944 16.684-0.53799z"/>
   <path d="m213.58 136.7h3.229v6.997h-3.229v-6.997z"/>
   <path d="m192.59 137.78c-0.029007 2.482 0.239 5.262-0.53801 6.997-16.669-1.861-42.307 0.978-61.353 0 0.422-2.754-0.75499-3.909-0.53799-6.458 19.049-1.587 42.662-1.464 62.429-0.539z"/>
   <path d="m193.67 137.24c0.635 1.198 1.474 7.196-0.53799 7.535 1.214-1.929-0.041-6.374 0.53799-7.535z"/>
   <path d="m128.01 137.78c2.426 0.44501 1.415 4.326 1.615 6.997-2.177-0.69402-1.435-4.306-1.615-6.997z"/>
   <path d="m106.48 146.39c-17.395-0.86099-31.029 1.69-48.975-0.53799-0.609-1.723-1.094-3.569-1.076-5.92 15.273-0.56201 32.403-1.433 48.437-1.076 2.423 1.245 1.206 3.715 1.614 7.534z"/>
   <path d="m109.71 138.32c5.018 1.53 11.248-0.176 16.684 0 0.894 1.617 0.405 4.617 1.076 6.458-4.636 1.104-11.349 0.13301-16.146 1.076-0.924-2.124-1.549-4.55-1.614-7.534z"/>
   <path d="m107.02 138.86h1.614c-0.59 2.586 1.662 5.124 0 6.996-1.986-0.883-0.968-4.771-1.614-6.996z"/>
   <path d="m35.444 139.39c6.72 0.423 13.89 0.562 18.836 0 1.225 1.466 1.538 3.844 1.615 6.458-7.298 0.144-13.792-0.323-19.375-0.53801 0.226-2.558-0.782-3.882-1.076-5.92z"/>
   <path d="m311.53 141.01c-0.677 3.449-0.245 8.006-4.843 7.535-0.449-4.575 0.146-8.106 4.843-7.535z"/>
   <path d="m301.31 142.62c1.059 1.453 0.32001 4.703 0.53799 6.997-12.529 0.754-28.673 2.907-45.208 2.69 0.23401-2.457-0.54401-5.926 0.53799-7.534 13.142 0.84399 28.93-1.197 44.132-2.153z"/>
   <path d="m303.46 142.62h1.614c-0.29599 2.394 0.83402 6.216-1.076 6.997-2.244-1.439 0.050995-4.071-0.53799-6.997z"/>
   <path d="m255.56 144.78v7.534c-8.63 0.222-14.081 0.498-21.527 0v-7.534c7.467 0.615 15.464-0.989 21.527 0z"/>
   <path d="m20.375 145.31c0.746 1.767 1.269 3.754 1.077 6.458-1.131 0.97301-2.757-0.821-4.306-1.076 0.040001-2.013-0.226-3.72-1.076-4.844 0.367-1.962 2.142 0.116 4.305-0.53799z"/>
   <path d="m171.6 145.31c1.059 1.452 0.31999 4.703 0.53799 6.996-7.946-0.12901-15.232 1.054-22.604 0.539-0.029999-2.482 0.23801-5.262-0.539-6.997 8.061 0.34601 14.969-0.45999 22.605-0.53799z"/>
   <path d="m22.527 145.85c4.116-0.76201 3.316 5.842 3.229 7.535-0.479-0.41899-1.215-0.579-2.152-0.53799-0.961-1.731-0.313-5.07-1.077-6.997z"/>
   <path d="m147.92 145.85c0.323 2.798 0.459 4.642 0 6.997-16.531 0.093994-36.521 1.759-53.818 0.53799 0.066994-2.221-0.936-3.37-0.539-5.921 20.17-0.56801 34.168-0.96701 54.357-1.614z"/>
   <path d="m26.833 146.39c12.325 0.71899 28.595 0.97301 41.978 1.076 1.639 0.894 1.353 5.906 0.539 7.535-13.881-0.62601-27.835-0.45201-41.979-1.614 0.322-2.834-0.399-4.624-0.538-6.997z"/>
   <path d="m93.029 153.92c-5.99 0.67099-14.875 0.558-21.527 1.076-0.961-1.73-0.313-5.068-1.076-6.996 7.218 2.125 25.699-6.245 22.603 5.92z"/>
   <path d="m311.53 148c1.394 1.604 0.16101 5.16-0.53799 6.458-5.134 2.579-12.644 2.784-19.912 3.229-0.32303-2.729-0.56403-3.479 0-5.92 7.66-0.412 15.682-0.463 20.45-3.767z"/>
   <path d="m289.47 151.77c0.19199 2.704-0.143 4.881-1.076 6.458-7.135-0.094009-10.526 0.838-18.298 0.539-0.33002-2.617-0.33002-2.765 0-5.382 6.392-0.603 13.012-0.981 19.374-1.615z"/>
   <path d="m17.146 152.31c5.104 2.252 12.203 2.508 18.836 3.229 0.733 1.42 0.636 3.669 1.077 5.382-5.999 0.86499-12.805-0.373-18.298-1.614-0.899-1.794-2.264-5.382-1.615-6.997z"/>
   <path d="m192.06 155v3.768c-12.915 2.648-41.513 2.229-59.738 0.53799v-4.844c20.046-0.12801 38.714-1.815 59.738 0.53799z"/>
   <path d="m268.48 153.92v4.844c-18.99 2.267-34.202 3.174-51.128 0.53801 0.804-0.86801-0.464-2.698 0-4.844 15.514-0.63699 39.856-1.134 51.128-0.53799z"/>
   <path d="m128.01 154.46c0.56801 1.655 1.157 5.313 0.53801 6.458-5.662-0.28-9.811 0.95299-15.607 0.53799-0.649-1.862-1.173-3.851-1.077-6.458 5.26-0.81401 9.645-0.32701 16.146-0.53801z"/>
   <path d="m129.63 154.46h1.614c-0.35199 1.997 0.519 5.539 0 5.92-2.171-0.34-1.461-3.562-1.614-5.92z"/>
   <path d="m211.97 154.46v5.382c-5.333 1.218-10.142 0.031006-15.607 0.53799-0.95499-1.019-0.392-3.555-0.53799-5.382 6.91 0.18599 9.316-0.80501 16.145-0.53801z"/>
   <path d="m213.04 154.46h3.229v5.382c-1.695 0.604-1.219 0.048996-3.229 0v-5.382z"/>
   <path d="m38.135 155c5.542 1.096 12.98 0.295 19.375 0.53801-0.416 2.568 0.842 3.464 0.538 5.92-7.64-0.006012-12.085-0.134-19.375 0-0.606-1.617-1.808-4.662-0.538-6.458z"/>
   <path d="m107.56 155c0.716 1.616 0.547 4.117 0.538 6.458-19.894-0.343-32.468 2.842-48.975-0.53801-0.021999-1.771-0.909-2.68-0.538-4.844 18.287 0.53499 31.102-1.139 48.975-1.076z"/>
   <path d="m109.18 155c0.869-0.151 0.92699 0.509 1.615 0.53801-0.054001 2.206-0.106 4.411 0.538 5.92-3.338 0.64598-2.239-5.406-2.153-6.458z"/>
   <path d="m193.13 155c2.171-0.065002 2.425 4.598 0 4.844v-4.844z"/>
   <path d="m308.84 157.15c1.248 1.518-0.621 3.364 0 5.92-1.297-0.22-1.17 0.983-2.691 0.539 0.199-2.851-1.097-7.196 2.691-6.459z"/>
   <path d="m299.69 158.23c2.931 0.65399 0.71301 4.053 1.615 5.921-10.291 3.847-28.76 2.824-44.67 3.767-1.031-1.301-0.33902-4.324-0.53799-6.458 14.268-1.34 29.745-1.471 43.593-3.23z"/>
   <path d="m302.92 158.23c0.479 0.33099 0.96301 0.651 1.076 0 1.388 1.753-0.67099 3.797 0.53802 5.921-0.62601-0.087997-0.957 0.11801-1.076 0.53801-1.834-0.38901-1.211-5.259-0.53799-6.459z"/>
   <path d="m231.88 162v6.458c-19.196 0.287-39.295 1.276-57.586-0.53799-0.365-1.967-0.75099-3.913-0.53799-6.458 20.795-0.37398 36.708-1.083 58.124 0.53801z"/>
   <path d="m20.375 162c0.087-0.631 0.981-0.45401 1.615-0.53801 0.431 1.742 1.939 5.21 0.538 6.996-2.526-0.34499-0.732-5.009-2.153-6.458z"/>
   <path d="m149 161.46c-0.449 3.016 0.864 5.098 0 6.996-18.43 0.28799-37.08 1.547-53.818 1.615-0.777-1.735-0.509-4.515-0.538-6.997 18.09-0.56599 35.843-1.47 54.356-1.614z"/>
   <path d="m150.62 161.46h22.065c-0.423 2.755 0.755 3.909 0.53801 6.458-7.44 0.17499-15.846 0.94299-22.604 0.53799 9.92e-4 -2.332 9.92e-4 -4.664 9.92e-4 -6.996z"/>
   <path d="m254.48 161.46c0.99699 1.155 0.36299 3.942 0.53799 5.92-4.955 1.674-16.802 1.296-22.065 0.53801v-5.92c8.164-0.336 15.381 0.345 21.527-0.53799z"/>
   <path d="m24.142 162c1.645-0.38901 1.961 0.551 3.229 0.53799-0.397 2.55 0.605 3.7 0.538 5.92h-3.229c-0.174-2.049-1.212-5.257-0.538-6.458z"/>
   <path d="m28.447 162.54c14.185-0.02301 30.889-0.265 41.979 1.077 1.405 1.106-0.379 5.402 1.076 6.458 1.403-1.438 0.108-4.745 0-6.458 3.54-0.207 13.685-0.68401 22.065-0.539-0.322 2.834 0.399 4.624 0.539 6.997-5.59 0.46799-13.965 0.56799-25.833 0.53799 12.965 2.888 28.879-0.34399 41.44 0.53799-0.406 3.276 0.86 4.88 0.539 8.072 11.937-0.972 23.325-1.006 39.826-1.076 0.511 1.784 0.83499 3.785 0 5.92-19.316 0.882-35.57 2.882-52.742 1.076 0.303-2.456-0.954-3.352-0.538-5.92 3.951-0.354 9.322 0.71199 12.378-0.53801-21.767-0.061996-44.529 0.479-65.12-0.53799 8.201 2.024 18.275 2.176 28.524 2.153-0.422 2.754 0.755 3.909 0.53799 6.458-11.939-1.604-23.551 0.089996-35.52-1.615 1.994 1.773 3.661 3.874 3.767 7.535-4.943 0.61699-9.487 1.636-15.069 1.614-1.738-2.029-2.392-5.143-2.691-8.61 4.546 0.118 8.461 0.867 13.455 0.53799-0.171-2.521-4.506-0.877-5.92-2.153 0.067001-2.22-0.935-3.37-0.538-5.92 3.696 0.25 7.085 0.80901 11.302 0.53799-1.728-1.859-2.569-4.605-2.691-8.072 6.671 0.877 16.48 0.214 21.527 1.076-0.019001 2.351-0.198 4.862 1.077 5.92 1.195-1.058-0.706-3.569 0-5.92h5.92c-8.665-3.152-25.359-1.543-37.673-2.691-1.492-1.2-0.975-4.409-1.617-6.458z"/>
   <path d="m309.38 164.69c0.285 2.796-0.70999 4.312-1.076 6.458-4.778 2.397-11.541 2.811-18.298 3.229v-6.458c6.412-1.122 13.183-1.885 19.374-3.229z"/>
   <path d="m288.39 168.46v5.382c-6.34 1.592-12.871 1.184-19.374 1.615v-6.459c5.338-0.459 12.163-0.59399 19.374-0.53799z"/>
   <path d="m192.06 170.07c-0.41501 2.568 0.842 3.464 0.53799 5.92-11.32 0.60301-24.851-0.27899-32.829 2.152 4.713 0.56599 8.813-1.318 13.993 0-0.269 2.679 0.11 3.206-0.53799 4.844-7.88-0.707-15.015 1.605-21.527 0.53801v-5.382h5.92c-5.5-2.393-15.342-0.444-22.604-1.076-0.548-2.144-0.78401-4.598-1.077-6.996 20.706-0.561 38.396-1.266 58.124 0z"/>
   <path d="m267.94 169.53c0.015015 2.346 0.32101 4.984-1.076 5.92-3.694 0.79001-8.122 0.84801-12.378 1.076-0.961 1.729-0.313 5.068-1.076 6.996-8.839 0.08699-14.452-0.192-20.989-0.53801v-5.382c7.324-0.077011 11.883 0.5 17.76 0-9.335-2.404-24.076-0.285-32.829-2.152 0.362-2.622-0.94701-3.57 0-5.382 17.67-0.688 37.196-1.114 50.588-0.53801z"/>
   <path d="m20.913 169.53c7.266-0.55699 11.118 1.075 16.684 1.076 0.609 1.723 1.094 3.569 1.076 5.92-4.818 1.302-11.379 1.364-16.146 0-1.056-1.814-1.556-4.183-1.614-6.996z"/>
   <path d="m131.24 170.07c2.935 0.085007 2.39 6.017 2.153 7.534-2.197-1.032-1.459-4.998-2.153-7.534z"/>
   <path d="m193.67 170.07c6.414-0.155 12.711 0.258 17.76 0 0.83301 1.102 0.83301 4.817 0 5.92h-11.302c9.051 2.67 22.258-0.728 31.215 1.614-0.146 1.827 0.416 4.363-0.53801 5.382-18.018 1.657-38.595 1.491-56.51-0.53799-0.059998-2.669 0.528-2.645 0-4.844 8.173-0.528 16.685-0.202 25.295-1.076-0.33699-1.278-3.312 0.082993-3.768-1.076-0.11-1.685 0.36299-3.951-0.53801-4.844-1.406 0.74599 0.26201 4.567-1.076 5.382-2.043-1.166-0.722-4.736-0.53799-5.92z"/>
   <path d="m213.04 170.07h3.229c-0.398 2.112 1.136 6.158-1.614 5.92-2.436-0.075012-1.373-3.65-1.615-5.92z"/>
   <path d="m110.79 170.61h1.614c0.625 1.751 1.011 5.856 0 7.534-1.821-1.032-1.908-6.118-1.614-7.534z"/>
   <path d="m114.02 170.61h16.146c0.77701 1.734 0.509 4.514 0.53801 6.996-4.035-0.546-10.105 0.345-15.607 0-0.662-2.03-1.086-4.296-1.077-6.996z"/>
   <path d="m305.61 173.3c2.673-0.31 0.88599 4.88 0 5.92-0.827-1.881-0.556-3.994 0-5.92z"/>
   <path d="m301.84 174.38h1.614c-0.66602 2.122 0.87997 5.254-2.152 5.921-0.037994-3.37 0.495-2.823 0.53799-5.921z"/>
   <path d="m300.23 174.91c-0.327 1.286 0.676 3.904-0.53799 4.305-12.146 5.272-28.956 4.249-44.669 4.306v-5.382c14.957-1.189 30.226-2.066 45.207-3.229z"/>
   <path d="m26.833 178.14h1.076c2.701 0.349 1.091 5.009 2.153 6.996-4.037 0.629-2.271-4.545-3.229-6.996z"/>
   <path d="m96.259 179.76c-1.247 2.491 0.472 3.319-0.539 5.382-6.41 0.767-13.397 0.95499-20.451 1.077-1.228-1.284-0.94199-4.082-1.615-5.92 7.691 0.026993 13.715 0.022995 22.605-0.539z"/>
   <path d="m307.23 180.3c0.24701 3.476-1.562 4.896-2.691 6.996-4.613 0.94701-9.622 1.5-15.069 1.614v-5.382c5.916-1.08 12.072-1.92 17.76-3.228z"/>
   <path d="m192.06 185.14v2.691c-2.432 3.096-6.782 1.3-10.225 1.614-13.656 1.249-29.776 2.724-45.208 2.153-0.66901-1.663-0.838-3.826-1.076-5.92 18.477-0.35002 37.615-3.041 56.509-0.53801z"/>
   <path d="m266.32 185.14c-0.638 2.153-0.005005 3.536-0.53799 5.382-10.793-0.16501-27.009 0.47099-38.749-0.53799-0.496 2.11 2.839 0.39099 3.229 1.615-0.14601 1.827 0.41699 4.363-0.53801 5.382-6.231-0.314-10.196-0.20599-15.607-0.53799-0.99701-1.156-0.362-3.942-0.53801-5.921h11.841c-0.774-2.454-6.464 0.005997-8.073-1.614-0.295-2.146-0.295-1.62 0-3.768 16.728-2.224 31.428 0.55399 48.973 0z"/>
   <path d="m288.39 184.06c-0.914 1.418-0.054016 4.61-1.076 5.92-6.194 0.623-13.271 0.364-19.375 1.077v-5.921c4.443-0.63 13.218-0.37199 20.451-1.076z"/>
   <path d="m194.75 185.14c0.879 0.871-0.48 2.252 0 4.306-1.93-0.099014-2.283-4.383 0-4.306z"/>
  </g>
  <path d="m196.36 185.14h15.607c0.30901 6.869 0.741 12.28 0 19.913-5.509-0.636-10.027-0.42601-15.607 0-1.007-6.048 0.498-11.038 0-19.913z" fill="#7f3f00"/>
  <g fill="#f6f1cd">
   <path d="m213.58 185.14h2.691c-0.16699 1.627 0.59801 4.187-1.076 4.306-2.333 0.35998-1.449-2.499-1.615-4.306z"/>
   <path d="m111.33 186.75c0.265 1.887 0.80199 3.503 0.53799 5.92-15.586 2.087-30.526 2.536-46.284 1.614-0.131-2.38-1.102-3.921-1.076-6.458 12.847-0.255 30.937-1.883 46.822-1.076z"/>
  </g>
  <path d="m131.78 186.22c1.928 5.786 1.038 14.39 4.305 18.836 1.281-0.745-1.222-4.039 0-4.844 1.988 0.16501 0.94299 3.362 2.153 4.306 1.818 0.114 5.47-0.143 8.611 0 3.111 0.142 11.951 0.78999 7.534 1.076-7.877 0.84401-23.591 0.455-35.52 0.53801-1.583-5.771-2.282-12.428-3.229-18.836 4.869-0.871 10.927-0.55501 16.146-1.076z" fill="#7f3f00"/>
  <g fill="#f6f1cd">
   <path d="m133.39 186.22h1.615c-0.439 2.241 0.732 4.491 0 5.382-1.529-0.804-1.497-3.168-1.615-5.382z"/>
   <path d="m112.4 186.75h1.615c0.687 2.647 1.293 4.708 0.538 6.458-2.7-0.171-1.327-4.414-2.153-6.458z"/>
   <path d="m41.364 187.29c9.618-0.020996 13.483 0.86301 21.527 0 0.384 1.991 1.237 5.631 0.538 6.996-7.907-0.421-15.685 0.393-20.989-0.53799 0.026001-2.537-0.945-4.078-1.076-6.458z"/>
   <path d="m304 188.37c1.388 0.739 0.11899 3.298 0 4.306-1.592-0.944 0.311-2.867 0-4.306z"/>
   <path d="m300.23 188.91h1.615c0.26102 2.952-0.37698 5.005-1.615 6.458-1.551-1.588 0.75598-3.882 0-6.458z"/>
   <path d="m194.75 196.44c-6.124-0.33501-13.601 0.68399-18.837-0.539v-4.305c5.055-1.049 10.988-0.543 17.761-1.615 2.015 0.49701 0.701 4.323 1.076 6.459z"/>
   <path d="m298.62 189.98c0.397 2.551-0.60501 3.7-0.53799 5.92-11.613 4.375-31.219 2.652-43.055 1.077v-4.844c15.624 0.377 30.428-0.069992 43.593-2.153z"/>
   <path d="m174.3 191.6c0.955 1.019 0.393 3.555 0.53799 5.382-5.906 0.48399-14.515 1.173-22.604 1.076v-5.382c7.348-0.069016 14.669 0.05899 22.066-1.076z"/>
   <path d="m231.34 191.6c10.52 0.098999 12.575 0.453 22.065 0.53801-0.11 1.684 0.362 3.95-0.53801 4.844-10.026 0.302-11.782 0.597-21.527 0v-5.382z"/>
  </g>
  <path d="m151.15 192.67v5.382h-8.611c16.76 3.937 31.742-2.256 49.513 0 0.746 3.896-5.058 4.275-8.61 4.844-8.661 1.385-23.122 1.015-33.367 0.53801-3.831-0.179-10.542 1.959-11.84-2.691 0.041992-1.752 2.439-1.148 3.767-1.614-1.438-1.402-4.745-0.107-6.458 0-5.428-9.197 8.941-5.981 15.606-6.459z" fill="#7f3f00"/>
  <path d="m114.56 193.75c0.657 1.676 1.253 3.411 1.077 5.92-4.224 1.875-11.403 0.797-17.222 1.076 0.422-2.216-0.826-2.762-0.538-4.844 5.845-2.161 11.402-1.486 16.683-2.152z" fill="#f6f1cd"/>
  <g fill="#7f3f00">
   <path d="m32.753 194.83c13.695 0.737 26.846 0.37599 41.979 1.076 0.609 1.724 1.094 3.57 1.076 5.921-12.921-1.484-27.106 1.963-40.364 0-2.149-1.081-1.853-4.605-2.691-6.997z"/>
   <path d="m28.986 195.9c-0.091-1.167 1.909-0.243 2.691-0.53801 0.486 2.046 1.77 5.489 0.538 7.535-1.533-1.876-1.652-5.165-3.229-6.997z"/>
   <path d="m96.259 195.36c-0.179 2.152 0.959 2.987 0.53799 5.382-6.985-0.283-12.51 1.419-19.375 1.077-0.341-1.991-1.46-3.204-1.077-5.921 7.216 0.40001 13.011-0.62299 19.914-0.53799z"/>
   <path d="m299.69 196.44c1.558 1.943-0.65701 4.703-1.076 6.458-2.873 1.134-7.442 1.624-10.226 0v-3.229c2.634-0.81898 9.022-0.49399 11.302-3.229z"/>
   <path d="m193.13 197.52h1.614c-0.479 2.725 0.177 4.008 0 7.534-10.351-0.186-15.023 0.396-23.68 0.53799 4.446-1.682 15.657-1.512 22.065-4.306 0.001007-1.255 0.001007-2.511 0.001007-3.766z"/>
   <path d="m213.58 198.06h2.153c-0.338 1.636 0.688 4.636-0.53799 5.382-2.632 0.299-1.285-3.379-1.615-5.382z"/>
   <path d="m264.71 200.21c-0.57999 3.36-5.528 3.04-8.073 3.229-13.829 1.027-25.98-0.22501-39.825-0.53801v-4.844c16.873 0.95201 33.761-0.868 47.898 2.153z"/>
   <path d="m265.79 199.67c8.047 0.323 15.957 0.994 21.527 0-0.11002 1.685 0.36298 3.951-0.53799 4.844-6.929-0.96501-15.367-0.42001-20.989-2.69v-2.154z"/>
   <path d="m113.48 201.28c0.453 1.342 0.70499 2.884 0.53799 4.844-15.327 0.896-31.78 0.58299-46.284 1.077 0.506-2.31-1.667-3.557-0.538-4.844 18.11 1.372 30.96-0.64699 46.284-1.077z"/>
   <path d="m114.56 201.28h1.615c0.045006 1.929 0.83701 3.11 1.076 4.844-2.784 0.27199-2.056-2.968-2.691-4.844z"/>
   <path d="m33.291 202.36c1.989 1.419 5.76 1.057 9.149 1.076 0.582 1.571 1.205 3.101 1.076 5.382-2.091 0.77901-4.506 1.234-7.535 1.076-1.54-1.867-3.016-3.799-2.69-7.534z"/>
   <path d="m65.582 202.9c9.99e-4 2.151 1.075 3.229 1.077 5.382-8.241 1.168-13.582 1.603-20.989 2.152-0.623-2.247-1.344-4.396-1.615-6.996 7.271-0.082993 15.032 0.323 21.527-0.53799z"/>
   <path d="m263.1 203.98c0.015015-0.523 0.65799-0.418 1.076-0.53799 5.396 0.523 10.237 1.603 16.146 1.614 1.15 0.881-4.733 0.655-6.997 0.53799-3.742-0.192-8.042-1.298-10.764-1.076-0.828-0.285-0.035004-0.56201 0.539-0.53801z"/>
   <path d="m214.12 203.98c2.462 0.229 4.563 0.81801 7.535 0.53801 2.712 0.37199-7.652 1.684-7.535-0.53801z"/>
   <path d="m238.88 205.05c5.608-1.073 18.021-0.732 24.757 0.53799-6.761 0.479-17.386 0.16501-24.757-0.53799z"/>
   <path d="m286.78 207.2c-61.287 1.824-110.76-0.972-175.45 1.614-13.895 0.556-33.204 0.485-44.669 1.076 7.159-2.739 15.297-2.152 22.604-2.152 63.824 0 132.07-2.977 197.51-0.53799z"/>
  </g>
  <path d="m31.677 1.619c-0.976 1.356-3.135 1.53-3.768 3.229-1.327-1.539 1.951-3.049 3.768-3.229z" fill="#f6f1cd"/>
  <path d="m195.28 65.663c20.324-14.671 45.48-30.136 67.812-45.746 10.486-7.331 23.579-20.091 37.672-12.917 0.88699 4.294-2.12 4.697-2.69 7.535-29.636 13.957-53.202 33.984-79.651 51.127-0.098999 0.458 0.20999 0.508 0.53799 0.53799-4.576-0.829-14.567-1.423-23.681-0.537z" fill="#7f3f00"/>
  <g fill="#f6f1cd">
   <path d="m300.77 4.848c0.84201-1.646 4.771 3.125 1.615 3.768 0.255-2.05-0.229-3.36-1.615-3.768z"/>
   <path d="m302.92 68.354c-1.145-0.672 5.383-0.604 5.382 1.076-1.774-0.38-3.441-0.865-5.382-1.076z"/>
   <path d="m25.756 68.892c-0.584 0.865-6.195 1.328-8.611 2.153 1.632-1.957 5.581-1.596 8.611-2.153z"/>
   <path d="m319.07 82.346h-6.458c4.742 0.79 9.516-7.166 2.69-9.688 1.895-0.91 7.764 5.653 3.768 9.688z"/>
   <path d="m319.6 73.197c0.737-1.496 7.992 8.5 1.076 8.611 3.004-2.02 1.247-7.257-1.076-8.611z"/>
   <path d="m5.844 73.735c1.067 0.929-2.338 1.936-1.614 4.305 0.101 1.514 0.936 2.293 2.69 2.153 1.355-0.542-1.463-1.344-1.614-2.153 0.515-1.099 1.1-2.129 1.614-3.229-0.889 4.075 3.459 6.236 8.611 5.92-4.323 2.775-18.001-1.536-9.687-6.996z"/>
   <path d="m103.26 88.804c1.078-1.254 1.61-3.054 4.306-2.691 0.83-1.625-2.785-1.416-2.691-0.538 5.256-6.162 12.603 5.821 5.92 9.149-3.798 1.891-7.813-0.844-7.535-5.92zm5.92 4.306c0.744-0.871 1.904-1.325 1.615-3.229-2.982-6-8.712 2.962-1.615 3.229z"/>
  </g>
  <path d="m200.13 87.575c-4.506 5.702 0.95 17.885 9.149 13.993-2.747 3.894-10.331 7.606-15.607 10.764-4.325-3.209-7.577-7.492-9.149-13.455 4.934-4.035 10.621-7.318 15.607-11.302z" fill="#7f3f00"/>
  <path d="m110.79 89.881c0.29 1.904-0.871 2.358-1.615 3.229-7.097-0.267-1.367-9.229 1.615-3.229zm-1.615-1.077c-1.917-0.123-2.814 0.774-2.691 2.691 1.664 1.708 4.586-0.838 2.691-2.691z"/>
  <path d="m271.17 109.26c-17.984-0.28-34.283 1.069-53.28 0v-6.458c16.159 1.243 37.478 0.195 52.742 0.539 0.599 0.357 0.54401 3.461 0.53799 5.919z" fill="#f6f1cd"/>
  <path d="m263.63 65.125c25.16 1.935 51.06-4.223 63.505 12.378-1.042 6.672-1.634 13.794-2.152 20.989-3.575 1.268-1.785 7.903-5.382 9.149 5.426 6.387-2.069 12.165-3.229 17.76-0.63699 3.071 1.766 7.878 0.53799 11.84-0.841 2.716-3.491 3.938-3.767 6.458-0.518 4.726 3.682 10.718-2.153 13.992 0.42502 4.437 0.40802 5.442 1.615 9.688-2.679 3.304-5.71 9.05-2.691 12.378-1.604 8.905-4.399 15.841-8.072 23.681-6.304 4.822-12.485 6.976-23.681 6.996-35.843 0.064987-71.021-2.788-108.71-1.076-15.926 0.724-32.281 0.804-48.436 0.53799-29.36-0.482-58.419 3.609-86.109 1.076-5.694-6.863-10.775-14.34-12.378-25.294-0.51-1.945 2.12-0.75099 3.229-1.077-0.642-2.049-0.124-5.257-1.614-6.458-1.943 0.345 0.146 2.581-0.538 4.844-5.606-6.521-2.014-18.943-7.535-25.295-0.448-7.267-1.408-14.02-3.768-19.374 3.109-6.373-2.336-11.004-1.614-18.298-6.603-4.266-2.161-11.179-3.768-18.298-0.532-2.358-3.296-3.37-4.305-5.92-2.287-5.781-0.53101-12.396-1.616-18.838 10.929-12.673 35.27-8.944 56.509-10.764-4.818-5.255-12.439-12.542-20.989-19.374-7.72-6.17-17.384-12.743-20.989-19.913-6.165-12.263 6.393-20.789 13.455-26.909 18.751-0.273 24.75 12.205 37.134 18.298 20.532 16.603 42.191 32.079 63.506 47.898 0.66699 0.017006 6.37-0.78 4.844 0.538 14.257-2.193 41.707-0.636 57.047-1.076 19.67-14.308 46.994-30.378 68.888-45.746 11.758-8.253 28.338-25.182 45.745-15.607 3.884 10.387 10.249 19.451 2.153 29.062-4.458 5.292-16.086 11.157-22.604 15.607-8.52 5.818-16.468 11.28-22.065 16.147zm-235.72-60.277c0.633-1.699 2.792-1.873 3.768-3.229-1.817 0.18-5.095 1.69-3.768 3.229zm24.218 6.458c-6.505-4.798-13.93-11.77-23.142-5.92-0.587 9.829 4.986 9.804 11.302 13.993 3.466 2.298 6.787 4.711 9.149 6.458 13.297 9.833 23.587 17.036 36.597 26.909 5.044 3.828 13.786 12.511 18.298 13.455 2.432 0.509 8.295-1.953 10.226 0.538-0.946 0.31-3.162-0.65-3.229 0.538 5.205-0.356 11.836 0.714 16.146-0.538-23.174-17.797-51.257-37.667-75.347-55.433zm166.84 54.895c-0.328-0.029999-0.63701-0.080994-0.53801-0.53799 26.449-17.144 50.016-37.17 79.651-51.127 0.57001-2.838 3.577-3.24 2.69-7.535-14.093-7.174-27.186 5.586-37.672 12.917-22.331 15.61-47.487 31.074-67.812 45.746 9.115-0.887 19.106-0.293 23.681 0.537zm83.419-57.586c3.156-0.643-0.77301-5.414-1.615-3.768 1.386 0.409 1.87 1.719 1.615 3.768zm-256.18 21.528c-8.308-7.018-18.673-13.653-20.989-24.218-4.759 5.019-11.637 10.94-8.073 19.375 3.595 8.507 14.754 16.158 22.604 22.602 24.835 20.392 52.126 45.082 75.345 61.891 5.308-2.944 10.103-6.402 11.84-12.917-4.221-2.775-7.457-6.536-11.84-9.149 3.529 11.174-13.536 13.717-15.069 4.306-0.883-5.425 2.888-9.253 9.149-9.688-21.094-15.56-42.188-34.652-62.967-52.202zm242.72-4.844c-27.012 19.145-60.304 39.843-86.109 58.662 9.113-2.544 15.496 6.409 10.226 13.454 20.706-12.875 46.806-33.194 67.812-47.898 7.93-5.551 16.636-9.978 23.142-15.607 2.499-2.162 5.536-6.738 5.92-9.687 0.66199-5.083-2.259-5.867-3.229-9.149-0.65799-2.224 1.028-5.118-1.615-5.382-3.556 6.24-10.237 11.418-16.147 15.607zm-197.51 40.902c3.43-0.48299 5.334-0.035995 8.073-0.53799-9.248-7.708-20.128-16.585-31.215-24.218-11.289-7.772-21.777-16.688-32.829-22.604 17.909 16.534 37.424 31.463 55.971 47.36zm134.01-4.306c-0.74901 0.575-2.762 2.107-2.153 3.229 7.402-0.56 12.865-6.159 18.299-9.688 17.203-11.172 32.019-24.192 49.513-34.982 0.11801-0.676 0.83801-1.1-0.53799-1.076-20.278 14.599-45.63 27.553-65.121 42.517zm52.203 4.306c-7.842-0.63-6.706 1.649 0 0zm-179.75 0.538c-1.636 0.337-4.636-0.689-5.382 0.538 1.636-0.338 4.636 0.689 5.382-0.538zm12.917 0c-1.989 0.343-5.361-0.697-6.458 0.538 1.988-0.343 5.36 0.697 6.458-0.538zm-15.608 1.615c3.423 2.619 8.097 10.172 13.455 11.84 4.229 1.316 10.266-0.211 15.069 0 26.017 1.144 59.066-0.742 82.88-0.538 3.669-3.109 9.723-6.387 13.455-9.149 1.212-0.897 3.829-2.275 2.69-3.229-39.106 0.829-87.189 0.71-127.55 1.076zm164.15-0.539c-6.357 4.406-13.446 8.081-18.837 13.455 16.883-0.019997 41.261-0.35799 60.276-1.077 5.605-0.211 12.925 2.26 16.146-2.691-10.557-13.081-38.03-8.161-57.585-9.687zm48.975 1.615c0.001007-1.68-6.526-1.749-5.382-1.076 1.941 0.21101 3.608 0.69601 5.382 1.076zm-245.95-0.538c-19.076 0.109-38.659-0.655-53.818 7.535 2.485 4.808 10.074 3.002 15.069 3.229 15.767 0.716 35.113 0.583 51.127 0.538-3.04-4.854-8.928-6.859-12.378-11.302zm-45.207 2.152c2.416-0.825 8.026-1.288 8.611-2.153-3.031 0.558-6.98 0.197-8.611 2.153zm298.15 1.615c6.825 2.521 2.052 10.478-2.69 9.688h6.458c3.995-4.036-1.874-10.599-3.768-9.688zm5.382 9.149c6.916-0.111-0.33899-10.107-1.076-8.611 2.322 1.354 4.079 6.591 1.076 8.611zm-305.15-1.077c-5.152 0.31599-9.5-1.845-8.611-5.92-0.515 1.1-1.099 2.13-1.614 3.229 0.151 0.809 2.97 1.61 1.614 2.153-1.754 0.14-2.59-0.639-2.69-2.153-0.724-2.369 2.681-3.376 1.614-4.305-8.314 5.46 5.364 9.771 9.687 6.996zm41.978 0.539c1.827 0.146 4.363-0.417 5.382 0.538 0.56-2.088-6.834-1.039-5.382-0.538zm134.01 0c-25.084 1.286-53.005-1.717-78.036 0 0.44099-0.029999-4.862 0.082001-1.615 0.538 0.854 0.12 4.676-0.013 5.92 0 27.617 0.292 62.137 0.651 86.648-1.077-4.253 0.23299-9.512-0.541-12.917 0.53899zm-187.83 8.611c-0.448 11.899 13.251 9.344 23.68 9.687 26.216 0.862 47.432 1.092 72.655 1.077-3.046-3.548-6.822-6.494-10.764-9.688-2.883-2.335-9.839-9.268-12.917-9.149-23.033 0.887-49.678 1.415-73.731-0.538 3.552 3.247 1.234 4.454 1.077 8.611zm49.513-8.611c-2.522 0.348-6.445-0.704-8.073 0.538 2.522-0.349 6.445 0.704 8.073-0.538zm248.1 0.538h-10.764c-3.415 0.353-8.244-0.709-10.764 0.538 6.997-0.357 15.426 0.716 21.528-0.538zm-187.83 1.614c2.024 6.061 16.757 7.944 13.993 17.222 19.829 0.742 40.168 0.913 55.971 0.538 1.003-0.693-1.236-2.675-0.53799-4.844 5.748-5.015 12.842-8.686 18.836-13.455-29.479-0.27-59.61 0.292-88.262 0.53899zm122.17 0.539c-8.358 5.634-16.754 11.231-24.756 17.222 20.928-0.239 36.896 1.038 59.738 0 20.695-0.94 43.43 1.331 52.204-4.306 0.18298-1.977-3.09-0.498-2.153-3.229 0.79901 0.641 2.509-1.07 2.691-2.691 0.651-4.09-2.578-0.98-2.691-4.305 2.118-1.022 2.653-0.474 3.229-3.229-29.334 1.033-54.367 0.206-88.262 0.538zm-124.86 10.764c6.683-3.329-0.664-15.312-5.92-9.149-0.094002-0.877 3.521-1.086 2.691 0.538-2.695-0.363-3.228 1.437-4.306 2.691-0.278 5.075 3.737 7.81 7.535 5.92zm91.49-8.612c-5.82 4.297 0.129 16.403 6.459 11.302-7.834 3.053-10.428-9.095-5.383-9.149-2.841 4.016 1.178 9.505 5.921 7.535 0.084 0.633-0.092987 1.528 0.53801 1.614 9.143-4.651 0.12599-16.957-7.535-11.302zm-17.759 10.764c1.572 5.963 4.824 10.245 9.149 13.455 5.276-3.157 12.86-6.87 15.607-10.764-8.199 3.892-13.655-8.291-9.149-13.993-4.986 3.984-10.673 7.267-15.607 11.302zm-175.99 7.535c1.521-0.445 1.394 0.759 2.691 0.53799-0.335-2.356-0.643-4.739-3.229-4.843-0.236 1.85 0.212 3.016 0.538 4.305zm6.458 1.076c12.515 1.982 34.487 0.72 46.284 0 1.342-0.082001 5.063 1.35 5.382-1.615 0.094002-2.404-3.513-2.026-4.844-2.153-15.609-1.483-35.835 1.029-48.437-1.614-0.391 2.724 1.477 3.187 1.615 5.382zm278.78-2.691c-0.616 1.636-0.353 2.511-0.53799 5.382 6.465-1.363 27.139 4.398 26.909-6.996-9.119 0.726-15.618 1.886-26.371 1.614zm-220.12-0.538c-2.279 0.063995-6.606-1.347-5.92 2.153 9.135 1.616 14.176-0.791 23.142-0.538-2.823-2.626-11.671-1.77-17.222-1.615zm18.298 1.615h11.302c0.788 2.621-0.16399 6.98 2.153 8.073 0.265-2.143 0.421-7.64-1.615-9.149-2.669 0.54401-10.729-1.581-11.84 1.076zm61.353-0.539c-9.027-0.495-19.334 0.59-26.909 0 0.297 2.573 0.33199 5.409 1.076 7.535 22.17 0.076996 41.615-0.007004 61.891-1.077-2.026-10.532-20.665-5.614-36.058-6.458zm44.131 6.997c5.621 0.419 9.633-0.772 15.069-0.538-0.218-2.293 0.521-5.544-0.53799-6.997-6.278-0.14899-9.815 4.618-14.531 7.535zm16.683-0.539c4.109 1.254 2.756-5.272 2.153-6.997h-2.153c-1.042 2.038 0.15001 3.515 0 6.997zm56.51-6.458c-15.265-0.343-36.583 0.704-52.742-0.539v6.458c18.997 1.069 35.296-0.28 53.28 0 0.006012-2.457 0.061005-5.561-0.53799-5.919zm1.614 0c0.054016 2.206 0.10599 4.411-0.53799 5.92 5.75 0.69701 15.732-0.671 20.451-1.077v-4.843c-4.293-1.117-12.795 0.61-19.913 0zm-146.39 8.073c0.027-1.149 0.657-6.952-1.076-8.073-0.050995 3.102-0.076996 6.177 1.076 8.073zm-74.269-4.305c0.077 2.614 0.849 4.533 1.615 6.458 16.776 0.022003 34.95-0.968 49.513-1.614-0.218-2.294 0.521-5.544-0.538-6.997-17.938-0.357-33.371 1.791-50.59 2.153zm-41.978 5.919c6.612 0.708 14.188 0.958 19.913 1.077 0.82-1.488-0.856-4.303-1.077-6.458-7.239 0.063004-13.652-0.699-19.913-1.614-0.187 2.877 0.237 5.144 1.077 6.995zm97.95-1.076c5.074-0.667 10.904-0.577 16.684-0.538-0.151-1.822-0.856-3.091-0.538-5.382-5.078 5.456-12.144 5.456-17.222 0 0.706 1.625 0.368 4.295 1.076 5.92zm-78.037-4.305c0.492 2.02 1.219 3.805 1.614 5.92 8.756 0 12.231-0.44099 19.913 0 0.192-2.704-0.332-4.691-1.077-6.458-7.542-0.041-11.949 0.894-20.45 0.538zm284.7 1.614c0.16699 2.14-1.243 2.704-1.076 4.844 3.059-0.171 4.05-2.408 4.306-5.382-1.269-0.012001-1.586 0.92699-3.23 0.53799zm-5.382 5.92c3.094 0.94199 3.877-5.566 2.152-5.92-1.415 1.276-1.7 3.682-2.152 5.92zm-51.127-4.305c-0.78799 2.389 0.003998 3.158 0 5.92 15.417 1.567 30.946 0.128 49.513-1.077 0.57999-1.931 1.354-3.669 1.614-5.92-17.835-0.433-33.024 1.779-51.127 1.077zm-86.648 1.076c0.26399 3.27 0.15199 3.667 0.53799 6.458 19.741 0.926 44.976 0.489 61.353 0 0.49501-1.048 0.948-5.209 0-7.534-19.653-0.068001-43.326 0.351-61.891 1.076zm63.505-1.076c0.087006 3.121-0.199 5.657-0.53799 6.996 6.013 0.507 14.358-0.979 22.065-0.53799 0.51697-2.922 0.32196-3.236 0.53796-6.458-6.385-0.778-11.674 0.118-22.065 0zm-87.185 1.076c-0.158 3.029 0.297 5.444 1.076 7.535 8.262-0.412 12.331-0.060005 22.065-1.077 0.14101-2.831-0.36699-5.014-1.076-6.996-7.107 0.747-13.509 0.468-22.065 0.538zm-55.433 1.615c-0.009003 2.7 0.41499 4.967 1.076 6.997 18.832-0.38 36.104 0.34 53.818-1.615 0.423-2.754-0.755-3.909-0.53799-6.458-15.465-0.885-34.633 0.761-54.356 1.076zm-82.342 2.691c0.029-1.5-1.079-4.613-2.153-3.229 1.207 0.587 0.946 2.642 2.153 3.229zm59.2-1.615c-1.199 1.032 1.216 4.961-0.53799 6.458-1.111-2.474-0.504-4.26-1.076-6.458-17.683 0.156-33.53-0.613-48.975 1.076 0.943 1.031 1.141 2.806 1.614 4.306 26.041 2.178 43.291 2.544 71.041 0.538 0.477-1.876 0.469-3.87-0.539-6.997-7.293 0.375-15.776 0.744-21.527 1.077zm223.35 3.767c0.10901 1.684-0.36301 3.951 0.53799 4.844 7.96-0.831 17.33-0.251 24.218-2.153 0.99799-2.38 3.202-6.529 1.077-7.535-5.977 4.25-17.015 3.437-25.833 4.844zm-279.86 1.077c1.646-0.39101 1.583 0.92799 3.229 0.53799 0.357-2.51-0.848-3.458-1.077-5.382h-3.767c0.404 1.749 0.975 3.331 1.615 4.844zm6.458 0.538c-0.63-1.702-0.983-3.681-2.153-4.844 0.485 1.847 0.316 4.349 2.153 4.844zm199.13 0c-0.46899 1.556-0.46899 4.363 0 5.92 8.142 1.923 23.085-1.018 27.985 1.077-3.542 0.586-5.185 0.264-11.84 0.538 0.218 2.293-0.52101 5.544 0.53799 6.996 6.795-0.56 13.451-1.259 20.989-1.076 0.358-2.009 0.603-4.975 0-6.458-4.45-0.62-7.468 1.594-8.61-0.539 6.979-1.632 17.279 0.058006 23.68-2.153-0.39502-3.343-0.041992-2.804-0.53799-5.382-14.983-1.874-36.653 1.261-52.204 1.077zm53.818-1.077c-0.66602 0.936 0.41101 3.574 0 5.92 6.9-0.028 13.784-1.007 19.375-1.615-0.093994-2.854-0.349-2.746 0-5.382-6.055 0.102-11.947 1.067-19.375 1.077zm-143.16 2.692c-0.26401 2.417 0.27298 4.032 0.53899 5.92 21.101 1.243 44.204-0.286 62.967-0.538 0.511-2.742 0.511-4.255 0-6.997-22.402-0.161-42.496-0.201-63.506 1.615zm67.273-1.615c-0.981 2.108-0.522 5.369 0.53801 6.997 4.253-1.13 10.493-0.271 15.607-0.539 1.031-1.3 0.34-4.325 0.53799-6.458h-16.683zm19.375 6.458c2.015-0.49699 0.701-4.321 1.076-6.458h-2.691c0.45999 2.231-1.237 6.619 1.615 6.458zm-20.989 0.539c-0.563-1.948 1.221-6.244-1.076-6.458 0.67902 3.003-0.94398 4.962 1.076 6.458zm-181.37 0.538c5.447 1.37 12.515 1.119 19.375 1.076-0.114-3.062-0.351-3.112-1.077-5.92-6.282-0.18-13.367-2.415-19.375-1.076 0.874 1.459 0.694 3.97 1.077 5.92zm95.259-5.92c-0.41 2.921 0.664 4.359 0.538 6.996 6.146 0.40599 10.827-0.65401 16.684-0.53801 0.009003-2.7-0.415-4.967-1.076-6.997-5.491 0.071999-10.237 0.886-16.146 0.539zm19.912 6.458c-0.429-2.441 0.312-6.053-1.614-6.997 0.356 2.514-1.042 6.782 1.614 6.997zm-74.269-4.306c0.851 1.481 0.93 3.734 1.614 5.382 14.401 1.021 33.514-1.253 48.437 0 1.184-1.851 0.349-5.508 0-7.534-18.529 0.115-35.063 1.418-50.051 2.152zm53.28 4.844c-0.218-2.293 0.521-5.544-0.539-6.996h-1.614c0.939 2.111-0.29301 6.392 2.153 6.996zm-74.269-5.92c0.031002 2.301 0.722 3.942 1.076 5.92 5.75 0.935 12.213 0.080002 19.375 0.53799 1.133-1.659-0.823-3.951-0.539-6.458-6.984-0.777-11.54 0.125-19.912 0zm276.63 8.073c2.142 0.34799 2.164-1.424 4.306-1.077 0.482-2.029 0.46399-4.559 1.076-6.458h-3.768c-0.32202 2.727-1.786 4.313-1.614 7.535zm-52.204-3.767v5.92c12.851 1.41 31.298 0.161 46.284-1.077 0.067993-2.786 2.109-5.917 1.076-8.073-17.217 1.068-34.045 2.966-47.36 3.23zm48.974 4.843c2.345-2.251 1.828-4.308 2.153-8.073h-1.614c-0.03299 2.282-3.267 6.557-0.539 8.073zm-134.01-2.691v5.92c21.979 2.639 39.757-0.644 60.814-0.53799v-6.996c-22.328-0.3-39.079 0.554-60.814 1.614zm-23.143 6.997h22.066c-0.23399-2.457 0.54401-5.926-0.539-7.535-6.461 0.711-15.65 0.96899-22.065 0-0.20401 1.018-0.274 5.815 0.53799 7.535zm-134.01-1.077c1.231 0.343 3.246 1.068 4.305 0-0.353-1.88-0.358-2.944-1.076-5.382-1.699 0.26401-1.901-0.97-3.768-0.53799-0.928 1.321 0.783 3.601 0.539 5.92zm78.036-4.843c0.565 2.197-0.266 3.797 0 6.996 14.586 1.005 35.211 0.015991 54.356-1.076-0.21799-2.294 0.52101-5.544-0.53799-6.997-19.954-0.36398-35.581 0.88802-53.818 1.077zm-69.425 6.458c-1.259-2.149-0.417-6.4-3.229-6.997-0.109 1.552-0.17 7.21 3.229 6.997zm2.152 0c12.69 2.923 30.631 1.329 43.055 1.615-0.056999-3.173-0.599-3.622-0.53799-7.535-13.724-0.699-31.973-0.323-45.208-1.077 1.127 2.103 0.754 5.705 2.691 6.997zm43.594-5.92c0.571 2.245 0.088005 4.712 1.076 7.535 7.515-1.427 16.284 0.699 22.065-1.615-1.474-1.217 0.353-5.735-1.076-6.997-7.172 0.60501-13.491 0.034012-22.065 1.077zm244.87 0c-5.678 2.934-13.714 3.507-22.604 3.229-0.534 1.998-1.266 5.993-0.53799 7.535 7.443 0.537 18.08-0.15199 23.142-3.768-0.37299-2.206 2.669-6 0-6.996zm-43.593 4.305c0.53198 3.32 0.23401 4.608 0 8.073 6.884 0.42601 11.946-0.97 18.298-1.077 0.87601-3.154 0.948-5.934 0.53799-8.073-4.53 0.604-12.307 0.87199-18.836 1.077zm-52.742 1.077c0.23399 2.457-0.54401 5.926 0.53799 7.535 17.244-0.222 35.987-0.181 51.128-0.53801v-8.073c-17.918-1.595-32.051 0.84801-51.666 1.076zm-202.36 6.458c4.931 2.603 12.104 2.965 19.913 2.691-0.564-1.768-0.257-4.407-1.076-5.92-6.843-0.692-14.016-1.053-19.913-2.691-0.177 2.508 0.42 4.244 1.076 5.92zm180.29-5.382c0.33101 3.019-0.56 5.848 0 7.535 5.879 0.317 10.18-0.942 16.146-0.53799 0.881-2.915 0.14-4.138 0.53799-7.535-6.146-0.40601-10.827 0.653-16.684 0.53799zm17.76 6.458h3.229v-6.997h-3.229v6.997zm-83.418-5.382c-0.217 2.549 0.95999 3.704 0.53799 6.458 19.046 0.97801 44.684-1.861 61.353 0 0.77701-1.734 0.509-4.514 0.53801-6.997-19.767-0.924-43.38-1.047-62.429 0.539zm62.968 6.458c2.012-0.339 1.173-6.337 0.53799-7.535-0.579 1.162 0.676 5.607-0.53799 7.535zm-63.506 0c-0.2-2.67 0.811-6.552-1.615-6.997 0.17999 2.692-0.56202 6.304 1.615 6.997zm-24.756-5.92c-16.034-0.357-33.164 0.515-48.437 1.076-0.017998 2.351 0.467 4.197 1.076 5.92 17.945 2.229 31.58-0.323 48.975 0.53801-0.408-3.818 0.809-6.288-1.614-7.534zm6.458 6.997c4.797-0.94301 11.51 0.028 16.146-1.076-0.671-1.841-0.182-4.841-1.076-6.458-5.437-0.176-11.667 1.53-16.684 0 0.064003 2.983 0.689 5.409 1.614 7.534zm-2.691 0c1.662-1.872-0.59-4.41 0-6.996h-1.614c0.645 2.224-0.373 6.112 1.614 6.996zm-72.117-0.539c5.583 0.215 12.077 0.68199 19.375 0.53799-0.077-2.614-0.39-4.992-1.615-6.458-4.947 0.562-12.116 0.42299-18.836 0 0.294 2.039 1.302 3.363 1.076 5.92zm270.17 3.23c4.598 0.472 4.166-4.086 4.843-7.535-4.697-0.571-5.292 2.96-4.843 7.535zm-49.513-3.768c-1.082 1.608-0.30402 5.077-0.53799 7.534 16.535 0.217 32.679-1.937 45.208-2.69-0.21802-2.294 0.521-5.544-0.53802-6.997-15.202 0.957-30.99 2.998-44.132 2.153zm46.822 4.844c1.91-0.78 0.78-4.603 1.076-6.997h-1.614c0.58899 2.927-1.706 5.559 0.53799 6.997zm-130.78-4.306c0.028992 2.482-0.23801 5.262 0.53799 6.996 19.675 1.836 35.394 0.93999 58.662 0.539 1.09-2.473 0.41-6.655 0-8.073-19.299 0.027008-36.439 2.266-59.2 0.53801zm60.814-0.538v7.534c7.446 0.498 12.897 0.222 21.527 0v-7.534c-6.062-0.989-14.059 0.615-21.527 0zm-217.96 1.077c0.85 1.124 1.116 2.831 1.076 4.844 1.548 0.255 3.175 2.049 4.306 1.076 0.192-2.704-0.331-4.691-1.077-6.458-2.162 0.653-3.937-1.425-4.305 0.53801zm132.93 0c0.77699 1.735 0.509 4.515 0.539 6.997 7.371 0.515 14.657-0.668 22.604-0.539-0.218-2.293 0.521-5.544-0.53801-6.996-7.637 0.076996-14.545 0.883-22.605 0.53799zm-125.4 6.997c0.937-0.041 1.674 0.119 2.152 0.53799 0.087-1.693 0.887-8.297-3.229-7.535 0.764 1.927 0.116 5.266 1.077 6.997zm69.963-5.383c-0.397 2.551 0.605 3.7 0.539 5.921 17.297 1.221 37.287-0.444 53.818-0.53799 0.459-2.355 0.323-4.199 0-6.997-20.189 0.64699-34.187 1.046-54.357 1.614zm-66.196 5.921c14.144 1.162 28.097 0.98799 41.979 1.614 0.814-1.629 1.101-6.642-0.539-7.535-13.383-0.104-29.653-0.357-41.978-1.076 0.139 2.373 0.86 4.163 0.538 6.997zm43.055-5.382c0.763 1.928 0.115 5.266 1.076 6.996 6.652-0.51901 15.538-0.40501 21.527-1.076 3.096-12.165-15.385-3.795-22.603-5.92zm220.66 3.766c-0.564 2.441-0.323 3.191 0 5.92 7.269-0.444 14.778-0.64899 19.912-3.229 0.699-1.298 1.932-4.854 0.53799-6.458-4.768 3.305-12.79 3.356-20.45 3.767zm-20.989 1.616c-0.32999 2.617-0.32999 2.765 0 5.382 7.771 0.299 11.163-0.63301 18.298-0.539 0.93399-1.577 1.269-3.754 1.076-6.458-6.362 0.63301-12.982 1.011-19.374 1.615zm-251.33 5.92c5.493 1.241 12.299 2.479 18.298 1.614-0.44-1.713-0.343-3.962-1.077-5.382-6.634-0.722-13.732-0.97801-18.836-3.229-0.648 1.615 0.717 5.203 1.615 6.997zm113.56-4.844v4.844c18.225 1.69 46.823 2.11 59.738-0.53801v-3.768c-21.024-2.353-39.692-0.666-59.738-0.53801zm85.033 0c-0.46399 2.146 0.804 3.976 0 4.844 16.926 2.636 32.138 1.729 51.128-0.53801v-4.844c-11.272-0.59601-35.614-0.098999-51.128 0.53799zm-105.48 0.538c-0.096001 2.607 0.427 4.596 1.077 6.458 5.796 0.41499 9.945-0.81801 15.607-0.53801 0.619-1.145 0.029999-4.803-0.53801-6.458-6.502 0.21098-10.887-0.27602-16.146 0.53799zm19.374 5.382c0.519-0.381-0.35199-3.923 0-5.92h-1.614c0.153 2.358-0.55701 5.58 1.614 5.92zm64.582-5.382c0.14601 1.827-0.41699 4.363 0.53801 5.382 5.466-0.507 10.274 0.67999 15.607-0.53799v-5.382c-6.828-0.26701-9.234 0.72398-16.145 0.53799zm17.222 4.844c2.011 0.048996 1.534 0.604 3.229 0v-5.382h-3.229v5.382zm-174.37 1.614c7.29-0.134 11.734-0.005997 19.375 0 0.304-2.456-0.954-3.352-0.538-5.92-6.394-0.243-13.833 0.558-19.375-0.53799-1.27 1.796-0.067997 4.841 0.538 6.458zm19.913-5.382c-0.371 2.164 0.516 3.072 0.538 4.844 16.506 3.38 29.081 0.19499 48.975 0.53799 0.009003-2.341 0.178-4.842-0.538-6.458-17.873-0.063004-30.688 1.611-48.975 1.076zm52.742 5.382c-0.644-1.509-0.592-3.714-0.538-5.92-0.688-0.029007-0.746-0.689-1.615-0.53799-0.086006 1.052-1.185 7.104 2.153 6.458zm81.804-1.614c2.425-0.246 2.171-4.909 0-4.844v4.844zm113.02 3.767c1.521 0.444 1.395-0.759 2.691-0.539-0.621-2.556 1.248-4.402 0-5.92-3.787-0.737-2.491 3.608-2.691 6.459zm-50.05-2.153c0.199 2.134-0.493 5.157 0.53799 6.458 15.91-0.942 34.379 0.079987 44.67-3.767-0.90201-1.868 1.315-5.267-1.615-5.921-13.849 1.759-29.326 1.89-43.593 3.23zm47.36 3.229c0.11899-0.42 0.44998-0.62601 1.076-0.53801-1.209-2.124 0.85001-4.168-0.53799-5.921-0.11301 0.651-0.59799 0.33099-1.076 0-0.67304 1.2-1.296 6.07 0.53799 6.459zm-129.7-3.229c-0.213 2.545 0.17299 4.491 0.53799 6.458 18.291 1.814 38.39 0.825 57.586 0.53799v-6.458c-21.416-1.621-37.329-0.91199-58.124-0.53799zm-151.23 6.996c1.401-1.786-0.107-5.254-0.538-6.996-0.633 0.084-1.528-0.093002-1.615 0.53799 1.422 1.449-0.372 6.113 2.153 6.458zm72.117-5.382c0.028999 2.482-0.239 5.262 0.538 6.997 16.738-0.068008 35.388-1.327 53.818-1.615 0.864-1.898-0.449-3.98 0-6.996-18.513 0.144-36.266 1.048-54.356 1.614zm55.971 5.382c6.758 0.405 15.163-0.36301 22.604-0.53799 0.217-2.549-0.961-3.703-0.53799-6.458h-22.065c-0.001007 2.332-0.001007 4.664-0.001007 6.996zm82.342-6.458v5.92c5.264 0.758 17.11 1.136 22.065-0.53801-0.175-1.978 0.459-4.765-0.53801-5.92-6.146 0.88301-13.363 0.20201-21.527 0.53801zm-208.28 6.458h3.229c0.066999-2.22-0.936-3.37-0.538-5.92-1.268 0.013-1.584-0.927-3.229-0.53801-0.674 1.201 0.364 4.409 0.538 6.458zm5.382 0.538c12.313 1.148 29.008-0.461 37.673 2.691h-5.92c-0.706 2.351 1.195 4.862 0 5.92-1.275-1.058-1.095-3.569-1.077-5.92-5.047-0.862-14.856-0.199-21.527-1.076 0.122 3.467 0.963 6.213 2.691 8.072-4.216 0.27101-7.605-0.28799-11.302-0.53799-0.397 2.55 0.605 3.7 0.538 5.92 1.415 1.276 5.75-0.36699 5.92 2.153-4.994 0.32901-8.909-0.42-13.455-0.53799 0.299 3.468 0.953 6.581 2.691 8.61 5.582 0.020996 10.125-0.99701 15.069-1.614-0.106-3.661-1.773-5.762-3.767-7.535 11.969 1.705 23.581 0.011993 35.52 1.615 0.217-2.549-0.96-3.704-0.53799-6.458-10.249 0.022003-20.323-0.129-28.524-2.153 20.591 1.017 43.353 0.476 65.12 0.53799-3.056 1.25-8.427 0.18501-12.378 0.53801-0.416 2.568 0.841 3.464 0.538 5.92 17.172 1.806 33.426-0.194 52.742-1.076 0.83499-2.135 0.511-4.136 0-5.92-16.5 0.070007-27.889 0.104-39.826 1.076 0.322-3.192-0.944-4.796-0.539-8.072-12.561-0.88199-28.475 2.35-41.44-0.53799 11.868 0.029999 20.243-0.070007 25.833-0.53799-0.139-2.373-0.86-4.163-0.539-6.997-8.38-0.145-18.525 0.332-22.065 0.539 0.108 1.713 1.403 5.02 0 6.458-1.456-1.056 0.329-5.352-1.076-6.458-11.089-1.342-27.793-1.101-41.979-1.077 0.644 2.049 0.127 5.258 1.617 6.458zm259.94-1.076v6.458c6.757-0.418 13.52-0.83101 18.298-3.229 0.366-2.146 1.361-3.662 1.076-6.458-6.191 1.344-12.962 2.107-19.374 3.229zm-20.989 1.076v6.459c6.503-0.43199 13.034-0.022995 19.374-1.615v-5.382c-7.211-0.056-14.036 0.078995-19.374 0.53799zm-135.08 1.077c0.29201 2.398 0.52901 4.853 1.077 6.996 7.262 0.632 17.104-1.316 22.604 1.076h-5.92v5.382c6.513 1.067 13.647-1.245 21.527-0.53801 0.64801-1.638 0.27-2.165 0.53801-4.844-5.18-1.318-9.28 0.56599-13.993 0 7.979-2.432 21.509-1.55 32.829-2.152 0.304-2.456-0.953-3.352-0.53801-5.92-19.728-1.266-37.418-0.561-58.124 0zm83.419 0c-0.94699 1.812 0.362 2.76 0 5.382 8.753 1.867 23.494-0.252 32.829 2.152-5.877 0.5-10.436-0.076996-17.76 0v5.382c6.537 0.34601 12.15 0.625 20.989 0.53801 0.763-1.928 0.11499-5.267 1.076-6.996 4.256-0.229 8.684-0.28601 12.378-1.076 1.397-0.936 1.091-3.574 1.076-5.92-13.392-0.57602-32.918-0.15001-50.588 0.53799zm-194.82 6.458c4.767 1.364 11.328 1.302 16.146 0 0.018002-2.351-0.467-4.197-1.076-5.92-5.565-0.001007-9.417-1.633-16.684-1.076 0.058001 2.813 0.558 5.182 1.614 6.996zm110.87 1.076c0.237-1.518 0.782-7.449-2.153-7.534 0.694 2.536-0.044006 6.502 2.153 7.534zm60.815-1.614c1.338-0.814-0.33-4.636 1.076-5.382 0.901 0.89299 0.42799 3.159 0.53799 4.844 0.455 1.159 3.431-0.202 3.768 1.076-8.61 0.87399-17.122 0.54799-25.295 1.076 0.528 2.199-0.059998 2.175 0 4.844 17.915 2.029 38.492 2.195 56.51 0.53799 0.954-1.019 0.392-3.555 0.53799-5.382-8.957-2.342-22.164 1.056-31.215-1.614h11.302c0.83299-1.103 0.83299-4.818 0-5.92-5.049 0.258-11.346-0.155-17.76 0-0.18399 1.184-1.505 4.754 0.53801 5.92zm20.451 0c2.75 0.23801 1.216-3.808 1.614-5.92h-3.229c0.24199 2.27-0.821 5.845 1.615 5.92zm-102.26 2.153c1.011-1.678 0.625-5.783 0-7.534h-1.614c-0.294 1.415-0.207 6.501 1.614 7.534zm2.691-0.539c5.502 0.345 11.572-0.546 15.607 0-0.028992-2.482 0.239-5.262-0.53799-6.996h-16.146c-0.007996 2.7 0.416 4.966 1.077 6.996zm190.52 1.615c0.88599-1.04 2.673-6.229 0-5.92-0.556 1.926-0.827 4.039 0 5.92zm-4.304 1.077c3.032-0.66699 1.486-3.799 2.152-5.921h-1.614c-0.042999 3.098-0.57599 2.551-0.53799 5.921zm-46.285-2.153v5.382c15.713-0.056992 32.522 0.967 44.669-4.306 1.214-0.39999 0.211-3.019 0.53799-4.305-14.981 1.163-30.25 2.04-45.207 3.229zm-224.96 6.996c-1.062-1.987 0.548-6.647-2.153-6.996h-1.076c0.958 2.451-0.808 7.625 3.229 6.996zm43.593-4.843c0.673 1.838 0.387 4.636 1.615 5.92 7.054-0.12199 14.041-0.31099 20.451-1.077 1.011-2.062-0.708-2.891 0.539-5.382-8.891 0.562-14.915 0.56599-22.605 0.539zm215.81 3.228v5.382c5.447-0.114 10.456-0.66701 15.069-1.614 1.129-2.101 2.938-3.521 2.691-6.996-5.687 1.308-11.843 2.148-17.76 3.228zm-153.92 2.154c0.23801 2.094 0.407 4.257 1.076 5.92 15.432 0.56999 31.552-0.90401 45.208-2.153 3.442-0.314 7.793 1.481 10.225-1.614v-2.691c-18.894-2.504-38.032 0.18701-56.509 0.53801zm81.804-0.539c-0.295 2.147-0.295 1.621 0 3.768 1.609 1.62 7.299-0.84 8.073 1.614h-11.841c0.176 1.979-0.459 4.765 0.53799 5.921 5.411 0.332 9.376 0.224 15.607 0.53799 0.955-1.019 0.393-3.555 0.53801-5.382-0.39-1.225-3.725 0.49501-3.229-1.615 11.74 1.009 27.956 0.37299 38.749 0.53799 0.53302-1.846-0.10001-3.229 0.53799-5.382-17.544 0.55399-32.244-2.224-48.973 0zm50.588 0v5.921c6.104-0.713 13.181-0.45401 19.375-1.077 1.022-1.31 0.16199-4.502 1.076-5.92-7.232 0.703-16.007 0.44499-20.451 1.076zm-73.192 4.305c-0.48-2.054 0.879-3.435 0-4.306-2.283-0.076004-1.93 4.208 0 4.306zm1.614 15.608c5.58-0.426 10.099-0.636 15.607 0 0.741-7.633 0.30901-13.044 0-19.913h-15.607c0.498 8.875-1.007 13.865 0 19.913zm18.837-15.608c1.674-0.119 0.909-2.679 1.076-4.306h-2.691c0.16598 1.808-0.71802 4.667 1.615 4.306zm-150.69-1.614c-0.026001 2.537 0.945 4.078 1.076 6.458 15.757 0.92201 30.697 0.47301 46.284-1.614 0.264-2.417-0.273-4.033-0.53799-5.92-15.885-0.80699-33.975 0.821-46.822 1.076zm51.127-0.538c0.947 6.408 1.646 13.064 3.229 18.836 11.928-0.082993 27.643 0.306 35.52-0.53799 4.417-0.286-4.423-0.935-7.534-1.076-3.141-0.14299-6.793 0.114-8.611 0-1.209-0.94299-0.16499-4.141-2.153-4.306-1.222 0.80501 1.281 4.099 0 4.844-3.268-4.446-2.377-13.05-4.305-18.836-5.219 0.521-11.277 0.205-16.146 1.076zm19.375 4.306c0.73201-0.89099-0.439-3.141 0-5.382h-1.615c0.118 2.214 0.085999 4.578 1.615 5.382zm-20.451 1.614c0.755-1.75 0.148-3.811-0.538-6.458h-1.615c0.826 2.044-0.547 6.287 2.153 6.458zm-72.117 0.538c5.304 0.931 13.082 0.117 20.989 0.53799 0.699-1.365-0.154-5.005-0.538-6.996-8.044 0.86299-11.909-0.021011-21.527 0 0.131 2.38 1.102 3.921 1.076 6.458zm261.56-1.076c0.11899-1.008 1.388-3.566 0-4.306 0.311 1.439-1.592 3.362 0 4.306zm-3.768 2.69c1.238-1.453 1.876-3.506 1.615-6.458h-1.615c0.75598 2.576-1.551 4.87 0 6.458zm-106.56-5.382c-6.772 1.072-12.706 0.56599-17.761 1.615v4.305c5.236 1.223 12.713 0.204 18.837 0.539-0.375-2.136 0.939-5.962-1.076-6.459zm61.352 2.154v4.844c11.836 1.575 31.441 3.298 43.055-1.077-0.066986-2.22 0.936-3.369 0.53799-5.92-13.165 2.082-27.969 2.529-43.593 2.153zm-102.79 0.538v5.382c8.089 0.097 16.697-0.592 22.604-1.076-0.146-1.827 0.41701-4.363-0.53799-5.382-7.397 1.135-14.718 1.007-22.066 1.076zm79.114 4.305c9.745 0.597 11.501 0.302 21.527 0 0.90001-0.894 0.42801-3.16 0.53801-4.844-9.49-0.084991-11.546-0.439-22.065-0.53799v5.382zm-95.797 2.153c1.713-0.10701 5.02-1.402 6.458 0-1.328 0.466-3.726-0.138-3.767 1.614 1.298 4.65 8.009 2.513 11.84 2.691 10.245 0.477 24.706 0.847 33.367-0.53799 3.553-0.56801 9.356-0.948 8.61-4.844-17.771-2.256-32.753 3.937-49.513 0h8.611v-5.382c-6.664 0.47899-21.033-2.737-15.606 6.459zm-37.673-3.23c-0.288 2.082 0.96 2.628 0.538 4.844 5.819-0.27899 12.998 0.799 17.222-1.076 0.176-2.509-0.42001-4.244-1.077-5.92-5.28 0.66602-10.837-0.008987-16.683 2.152zm-62.429 5.921c13.257 1.963 27.442-1.484 40.364 0 0.017998-2.351-0.467-4.197-1.076-5.921-15.133-0.7-28.283-0.33899-41.979-1.076 0.838 2.392 0.542 5.916 2.691 6.997zm-3.229 1.076c1.231-2.046-0.051998-5.489-0.538-7.535-0.782 0.295-2.782-0.629-2.691 0.53799 1.577 1.832 1.696 5.121 3.229 6.997zm44.131-6.997c-0.384 2.717 0.735 3.93 1.077 5.921 6.864 0.34201 12.389-1.36 19.375-1.077 0.421-2.395-0.717-3.229-0.53799-5.382-6.904-0.084976-12.699 0.93802-19.914 0.53801zm212.04 3.768v3.229c2.783 1.624 7.353 1.134 10.226 0 0.41901-1.755 2.634-4.515 1.076-6.458-2.281 2.735-8.669 2.41-11.302 3.229zm-95.258 1.614c-6.408 2.794-17.619 2.624-22.065 4.306 8.656-0.14299 13.329-0.724 23.68-0.53799 0.177-3.526-0.47899-4.81 0-7.534h-1.614c-9.92e-4 1.255-9.92e-4 2.511-9.92e-4 3.766zm22.065 2.154c1.227-0.746 0.2-3.746 0.53801-5.382h-2.153c0.32999 2.003-1.017 5.681 1.615 5.382zm1.615-5.382v4.844c13.845 0.313 25.996 1.565 39.825 0.53801 2.545-0.18901 7.493 0.131 8.073-3.229-14.137-3.022-31.025-1.202-47.898-2.153zm48.974 3.767c5.622 2.271 14.061 1.726 20.989 2.69 0.90097-0.893 0.42798-3.159 0.53799-4.844-5.57 0.99399-13.48 0.323-21.527 0v2.154zm-198.59 0.538c-1.129 1.287 1.044 2.534 0.538 4.844 14.503-0.494 30.957-0.181 46.284-1.077 0.167-1.96-0.084999-3.502-0.53799-4.844-15.325 0.43001-28.175 2.449-46.284 1.077zm50.051 3.767c-0.239-1.733-1.031-2.915-1.076-4.844h-1.615c0.635 1.876-0.093002 5.116 2.691 4.844zm-81.266 3.768c3.029 0.158 5.444-0.297 7.535-1.076 0.128-2.281-0.495-3.811-1.076-5.382-3.389-0.020004-7.16 0.343-9.149-1.076-0.327 3.734 1.149 5.666 2.69 7.534zm8.073-6.458c0.271 2.6 0.992 4.749 1.615 6.996 7.408-0.55 12.748-0.98401 20.989-2.152-9.99e-4 -2.152-1.076-3.23-1.077-5.382-6.495 0.86-14.256 0.45401-21.527 0.53801zm218.5 1.076c2.722-0.222 7.021 0.884 10.764 1.076 2.264 0.117 8.147 0.343 6.997-0.53799-5.908-0.012009-10.749-1.091-16.146-1.614-0.418 0.12001-1.062 0.014999-1.076 0.53801-0.574-0.024017-1.367 0.25299-0.539 0.53799zm-40.902 0c-2.972 0.28-5.073-0.30899-7.535-0.53799-0.11699 2.222 10.247 0.90999 7.535 0.53799zm41.979 1.076c-6.735-1.271-19.148-1.611-24.757-0.53799 7.371 0.703 17.996 1.017 24.757 0.53799zm-174.37 2.153c-7.306 0-15.445-0.58699-22.604 2.152 11.465-0.591 30.774-0.52101 44.669-1.076 64.689-2.586 114.16 0.21001 175.45-1.614-65.442-2.439-133.69 0.53799-197.51 0.53799z" fill="#7f3f00"/>
  <path d="m36.52 87.728c0.874 1.441 1.236 2.046 0 3.229-1.258-0.177-2.223-0.647-3.229-1.076 0.413-2.535 1.489-1.606 3.229-2.153z"/>
  <path d="m158.15 89.343c0.741 0.693 0.533 2.337 0.53799 3.767-2.049 0.255-3.359-0.229-3.767-1.615 0.072006-1.723 1.221-2.368 3.229-2.152z"/>
  <g fill="#f6f1cd">
   <path d="m211.97 102.8c1.06 1.453 0.31999 4.703 0.53799 6.997-5.437-0.234-9.448 0.957-15.069 0.538 4.716-2.917 8.253-7.684 14.531-7.535z"/>
   <path d="m124.24 121.1c0.661 2.03 1.085 4.297 1.076 6.997-5.856-0.116-10.538 0.944-16.684 0.53801 0.126-2.637-0.948-4.075-0.538-6.996 5.91 0.347 10.656-0.467 16.146-0.539z"/>
   <path d="m232.42 144.78c0.41 1.418 1.09 5.601 0 8.073-23.269 0.401-38.987 1.297-58.662-0.539-0.776-1.734-0.50899-4.514-0.53799-6.996 22.761 1.728 39.901-0.51099 59.2-0.53799z"/>
  </g>
 </g>
</svg>
