<?xml version="1.0" encoding="UTF-8"?>
<svg width="375px" height="211px" viewBox="0 0 375 211" version="1.1" xmlns="http://www.w3.org/2000/svg" xmlns:xlink="http://www.w3.org/1999/xlink">
    <!-- Generator: Sketch 61.2 (89653) - https://sketch.com -->
    <title>img</title>
    <desc>Created with Sketch.</desc>
    <defs>
        <linearGradient x1="-5.88003782%" y1="36.6996805%" x2="102.864795%" y2="62.8637942%" id="linearGradient-1">
            <stop stop-color="#3FBDA8" offset="0%"></stop>
            <stop stop-color="#586385" offset="100%"></stop>
        </linearGradient>
        <linearGradient x1="50%" y1="-4.18610625%" x2="50%" y2="104.154651%" id="linearGradient-2">
            <stop stop-color="#3FBDA8" offset="0%"></stop>
            <stop stop-color="#586385" offset="100%"></stop>
        </linearGradient>
        <filter x="-4.7%" y="-6.6%" width="109.4%" height="113.3%" filterUnits="objectBoundingBox" id="filter-3">
            <feOffset dx="0" dy="2" in="SourceAlpha" result="shadowOffsetOuter1"></feOffset>
            <feGaussianBlur stdDeviation="2" in="shadowOffsetOuter1" result="shadowBlurOuter1"></feGaussianBlur>
            <feColorMatrix values="0 0 0 0 0.180392157   0 0 0 0 0.235294118   0 0 0 0 0.403921569  0 0 0 0.5 0" type="matrix" in="shadowBlurOuter1" result="shadowMatrixOuter1"></feColorMatrix>
            <feMerge>
                <feMergeNode in="shadowMatrixOuter1"></feMergeNode>
                <feMergeNode in="SourceGraphic"></feMergeNode>
            </feMerge>
        </filter>
        <filter x="-14.8%" y="-7.9%" width="129.6%" height="115.9%" filterUnits="objectBoundingBox" id="filter-4">
            <feOffset dx="0" dy="2" in="SourceAlpha" result="shadowOffsetOuter1"></feOffset>
            <feGaussianBlur stdDeviation="2" in="shadowOffsetOuter1" result="shadowBlurOuter1"></feGaussianBlur>
            <feColorMatrix values="0 0 0 0 0.180392157   0 0 0 0 0.235294118   0 0 0 0 0.403921569  0 0 0 0.5 0" type="matrix" in="shadowBlurOuter1" result="shadowMatrixOuter1"></feColorMatrix>
            <feMerge>
                <feMergeNode in="shadowMatrixOuter1"></feMergeNode>
                <feMergeNode in="SourceGraphic"></feMergeNode>
            </feMerge>
        </filter>
        <path d="M20.5210862,44.1664535 C20.5797092,43.3482806 20.6095263,42.5221116 20.6095263,41.6889594 C20.6095263,41.5707393 20.6024211,41.4553679 20.601,41.3385721 L20.6095263,41.3385721 L20.6095263,31.9151496 C20.6095263,22.9959428 17.1890526,14.8800628 11.5957895,8.80383538 C8.52548503,5.46822264 4.80020198,2.74739878 0.624268421,0.847881021 L0.624268421,44.1664535 L20.5210862,44.1664535 L20.5210862,44.1664535 Z" id="path-5"></path>
    </defs>
    <g id="Page-1" stroke="none" stroke-width="1" fill="none" fill-rule="evenodd">
        <g id="UI---Tests-&amp;-first-versions" transform="translate(-1024.000000, -1367.000000)">
            <g id="img" transform="translate(1024.000000, 1367.000000)">
                <polygon id="Base" fill-opacity="0.8" fill="url(#linearGradient-1)" points="0 0 375 0 375 211 0 211"></polygon>
                <polygon id="Base" fill-opacity="0.8" fill="url(#linearGradient-2)" points="0 0 375 0 375 211 0 211"></polygon>
                <path d="M126.828357,37.2656698 C126.828357,37.2656698 83.1919395,11.83919 28.900118,131.343645 C28.900118,131.343645 4.73518337,170.246159 46.8494001,187.841284 C52.6337624,190.256799 101.204647,213.979705 148.392865,187.790431 C148.392865,187.790431 180.359078,172.788807 247.538865,179.107288 C247.95747,179.145427 248.376075,179.158141 248.781995,179.145427 C256.215408,179.081861 321.898364,177.073169 325.729236,125.74982 C325.729236,125.74982 332.439604,84.7877607 279.048417,84.5589224 C220.976464,84.3173708 209.78829,84.5589224 175.538776,64.2177385 C175.538776,64.2177385 147.631765,46.4192026 126.828357,37.2656698 Z" id="Shape" fill-opacity="0.2" fill="#F2F3F3" fill-rule="nonzero"></path>
                <g id="chat" filter="url(#filter-3)" transform="translate(105.000000, 14.000000)">
                    <rect id="Rectangle-6-Copy" stroke="#F2F3F3" stroke-width="2" fill="#F8F9F9" x="6" y="1" width="247" height="179" rx="10"></rect>
                    <polygon id="Triangle-Copy" fill="#F2F3F3" transform="translate(3.500000, 89.000000) rotate(-270.000000) translate(-3.500000, -89.000000) " points="3.43385456 92 -4 86 11 86"></polygon>
                </g>
                <g id="boy_5" filter="url(#filter-4)" transform="translate(54.500000, 93.500000) scale(-1, 1) translate(-54.500000, -93.500000) translate(14.000000, 18.000000)">
                    <g id="Person-0">
                        <g id="Group-47">
                            <path d="M33.4856842,116.32728 L33.4856842,88.4102486 L50.5383158,88.4102486 L50.5383158,116.32728 C50.5383158,122.935641 46.7213684,128.291723 42.012,128.291723 C37.3026316,128.291723 33.4856842,122.935641 33.4856842,116.32728 Z" id="Fill-3" fill="#E9C6A0"></path>
                            <g id="Group" transform="translate(5.684211, 103.976700)">
                                <path d="M46.3427399,1.44285475 L47.3866397,14.2433836 L39.6375304,13.904391 L36.2368421,22.7894137 L32.8361538,13.904391 L27.8744939,14.2433836 L27.8744939,1.42433836 L26.4807692,1.42433836 C11.856416,1.42433836 0,13.5411848 0,28.4867671 L0,41.3058123 C0,44.4521758 2.49616093,47.0031658 5.57489879,47.0031658 L66.8987854,47.0031658 C69.9775233,47.0031658 72.4736842,44.4521758 72.4736842,41.3058123 L72.4736842,28.4867671 C72.4736842,13.6622535 60.8040273,1.63656477 46.3427399,1.44285475" id="Fill-9" fill="#586385"></path>
                                <path d="M13.5,35.6084589 C12.3219474,35.6084589 11.3684211,36.6294246 11.3684211,37.8874003 L11.3684211,47.0031658 L15.6315789,47.0031658 L15.6315789,37.8874003 C15.6315789,36.6294246 14.6780526,35.6084589 13.5,35.6084589" id="Fill-18" fill="#292929" opacity="0.200000003"></path>
                                <path d="M58.9736842,35.6084589 C57.7956316,35.6084589 56.8421053,36.6294246 56.8421053,37.8874003 L56.8421053,47.0031658 L61.1052632,47.0031658 L61.1052632,37.8874003 C61.1052632,36.6294246 60.1517368,35.6084589 58.9736842,35.6084589" id="Fill-20" fill="#292929" opacity="0.200000003"></path>
                                <path d="M27.9562223,5.95906998 L27.9562223,0 C26.6812592,0.810946001 24.8617806,1.69323195 23.9719626,2.91183483 C22.4539597,4.98942898 21.3157895,6.90832814 21.3157895,10.1914219 C21.3157895,12.9081638 22.8909001,16.1199176 24.3265617,18.4828716 C25.4089523,20.2649145 27.7304476,20.449816 29.0133792,18.8352036 L32.6842105,14.2112099 C32.6842105,14.2112099 27.9562223,11.6473393 27.9562223,5.95906998" id="Fill-59" fill="#AAABAE"></path>
                                <path d="M44.5174619,5.95906998 L44.5174619,0 C45.792425,0.810946001 47.6119036,1.69323195 48.5017216,2.91183483 C50.0197245,4.98942898 51.1578947,6.90832814 51.1578947,10.1914219 C51.1578947,12.9081638 49.5827841,16.1199176 48.1471225,18.4828716 C47.0647319,20.2649145 44.7432366,20.449816 43.460305,18.8352036 L39.7894737,14.2112099 C39.7894737,14.2112099 44.5174619,11.6473393 44.5174619,5.95906998" id="Fill-61" fill="#AAABAE"></path>
                                <path d="M36.9473684,22.7894137 C36.9473684,23.5756485 36.3107368,24.2137521 35.5263158,24.2137521 C34.7418947,24.2137521 34.1052632,23.5756485 34.1052632,22.7894137 C34.1052632,22.0031789 34.7418947,21.3650753 35.5263158,21.3650753 C36.3107368,21.3650753 36.9473684,22.0031789 36.9473684,22.7894137" id="Fill-63" fill="#AAABAE"></path>
                                <path d="M36.9473684,29.9111055 C36.9473684,30.6973403 36.3107368,31.3354438 35.5263158,31.3354438 C34.7418947,31.3354438 34.1052632,30.6973403 34.1052632,29.9111055 C34.1052632,29.1248707 34.7418947,28.4867671 35.5263158,28.4867671 C36.3107368,28.4867671 36.9473684,29.1248707 36.9473684,29.9111055" id="Fill-65" fill="#AAABAE"></path>
                            </g>
                            <path d="M50.5383158,101.229294 C50.5383158,101.229294 44.1734211,102.653632 42.012,102.653632 C39.8505789,102.653632 33.4856842,101.229294 33.4856842,101.229294 L33.4856842,98.380617 C33.4856842,98.380617 39.8505789,99.8049554 42.012,99.8049554 C44.1734211,99.8049554 50.5383158,98.380617 50.5383158,98.380617 L50.5383158,101.229294 Z" id="Fill-5" fill="#292929" opacity="0.200000003"></path>
                            <path d="M80.3804211,34.285391 L3.64357895,34.285391 L3.64357895,51.3774513 C3.64357895,59.244072 10.0056316,65.6208348 17.8541053,65.6208348 L66.1698947,65.6208348 C74.0183684,65.6208348 80.3804211,59.244072 80.3804211,51.3774513 L80.3804211,34.285391 Z" id="Fill-7" fill="#5F5C61"></path>
                            <path d="M80.3804211,61.4193216 C80.3804211,65.3519198 77.1986842,68.5410133 73.2751579,68.5410133 C69.3516316,68.5410133 66.1698947,65.3519198 66.1698947,61.4193216 C66.1698947,57.4867234 69.3516316,54.2976298 73.2751579,54.2976298 C77.1986842,54.2976298 80.3804211,57.4867234 80.3804211,61.4193216" id="Fill-9" fill="#E9C6A0"></path>
                            <path d="M17.8541053,61.4193216 C17.8541053,65.3519198 14.6723684,68.5410133 10.7488421,68.5410133 C6.82531579,68.5410133 3.64357895,65.3519198 3.64357895,61.4193216 C3.64357895,57.4867234 6.82531579,54.2976298 10.7488421,54.2976298 C14.6723684,54.2976298 17.8541053,57.4867234 17.8541053,61.4193216" id="Fill-11" fill="#E9C6A0"></path>
                            <path d="M80.3804211,34.285391 C80.3804211,50.0186325 67.6563158,62.7721581 51.9593684,62.7721581 C36.2624211,62.7721581 23.5383158,50.0186325 23.5383158,34.285391 C23.5383158,18.5521495 36.2624211,5.79862388 51.9593684,5.79862388 C70.4714211,5.79862388 80.3804211,18.5521495 80.3804211,34.285391" id="Fill-13" fill="#5F5C61"></path>
                            <path d="M42.0121421,99.8049554 L42.0121421,99.8049554 C24.7463526,99.8049554 10.7489842,85.7752226 10.7489842,68.4695116 L10.7489842,41.4070828 C10.7489842,24.1013718 24.7463526,10.071639 42.0121421,10.071639 L42.0121421,10.071639 C59.2779316,10.071639 73.2753,24.1013718 73.2753,41.4070828 L73.2753,68.4695116 C73.2753,85.7752226 59.2779316,99.8049554 42.0121421,99.8049554" id="Fill-15" fill="#F7D4AA"></path>
                            <g id="Group-2" transform="translate(36.947368, 84.948537)" stroke="#F4876D" stroke-linecap="round" stroke-linejoin="round" stroke-width="2">
                                <path d="M11.2504737,0 C10.1264211,1.02837229 7.28573684,1.42433836 5.62594737,1.42433836" id="Stroke-41"></path>
                                <path d="M-1.18957475e-13,0 C1.12405263,1.02837229 3.96473684,1.42433836 5.62594737,1.42433836" id="Stroke-43"></path>
                            </g>
                            <path d="M27.3342316,43.7704874 C18.6771789,43.7291816 10.4364947,40.2067929 4.38281053,34.1490818 L3.64386316,34.2858183 L3.64386316,37.5959807 C10.0997053,43.4015838 18.5109158,46.7473546 27.3200211,46.7900847 C30.2573368,46.8029038 33.1406526,46.4567896 35.9216526,45.7802288 C45.5222842,43.4457383 53.8780737,37.1800739 58.7906526,28.2751104 L56.1546,26.8151636 C50.3524421,37.3310537 39.3122842,43.831734 27.3342316,43.7704874" id="Fill-19" fill="#292929" opacity="0.200000003"></path>
                            <path d="M45.4736842,74.0655945 C43.2440526,74.7649447 40.8623684,74.766369 38.6313158,74.0698675" id="Stroke-21" stroke="#E9C6A0" stroke-width="2" stroke-linecap="round"></path>
                            <path d="M20.6980579,56.3848552 C20.3555842,56.3848552 20.0116895,56.2609378 19.7388474,56.0116786 C19.1604789,55.4804004 19.1206895,54.5787942 19.6493211,53.9990885 C21.6501632,51.8056074 25.1686895,51.0692245 28.2225316,52.2129682 C28.9572158,52.4892898 29.3295316,53.3097087 29.0552684,54.0460916 C28.7795842,54.7824746 27.9681632,55.1570755 27.2263737,54.8807539 C25.0109526,54.0503646 22.7912684,54.7753529 21.7467947,55.9219452 C21.4668474,56.2296023 21.0831632,56.3848552 20.6980579,56.3848552" id="Fill-23" fill="#5F5C61"></path>
                            <path d="M63.3269368,56.3848552 C62.9418316,56.3848552 62.5581474,56.2296023 62.2782,55.9219452 C61.2337263,54.7753529 59.0126211,54.0503646 56.7986211,54.8807539 C56.0639368,55.1556512 55.2454105,54.7824746 54.9697263,54.0460916 C54.6954632,53.3097087 55.0677789,52.4892898 55.8024632,52.2129682 C58.8477789,51.0692245 62.3734105,51.8056074 64.3756737,53.9990885 C64.9043053,54.5787942 64.8645158,55.4804004 64.2861474,56.0116786 C64.0133053,56.2609378 63.6694105,56.3848552 63.3269368,56.3848552" id="Fill-25" fill="#5F5C61"></path>
                            <path d="M59.8985053,59.2113122 C59.8985053,60.3906644 58.9435579,61.3478198 57.7669263,61.3478198 C56.5902947,61.3478198 55.6353474,60.3906644 55.6353474,59.2113122 C55.6353474,58.0319601 56.5902947,57.0748047 57.7669263,57.0748047 C58.9435579,57.0748047 59.8985053,58.0319601 59.8985053,59.2113122" id="Fill-27" fill="#2D2D2D"></path>
                            <path d="M28.3887947,59.2113122 C28.3887947,60.3906644 27.4338474,61.3478198 26.2572158,61.3478198 C25.0805842,61.3478198 24.1256368,60.3906644 24.1256368,59.2113122 C24.1256368,58.0319601 25.0805842,57.0748047 26.2572158,57.0748047 C27.4338474,57.0748047 28.3887947,58.0319601 28.3887947,59.2113122" id="Fill-29" fill="#2D2D2D"></path>
                            <path d="M58.7909368,7.55753932 C45.9190421,-5.3583609 6.72783158,-2.52962492 0.000568421052,33.7511217 C7.84193684,41.9197022 19.3581474,46.309513 31.3958842,44.5034519 C44.9314105,42.4709211 55.5765158,33.1614456 59.9817789,21.1314839" id="Fill-45" fill="#5F5C61"></path>
                        </g>
                        <g id="Group-50" transform="translate(55.421053, 7.803950)">
                            <mask id="mask-6" fill="white">
                                <use xlink:href="#path-5"></use>
                            </mask>
                            <g id="Clip-49"></g>
                            <path d="M21.3157895,37.7748775 C17.0526316,40.6921442 0.479747368,27.7143484 0.624268421,13.1956403 C0.768789474,-1.3230679 10.6168974,6.64023242 10.6168974,6.64023242 C10.6168974,6.64023242 25.5789474,34.8576109 21.3157895,37.7748775 Z" id="Fill-48" fill="#5F5C61" mask="url(#mask-6)"></path>
                        </g>
                    </g>
                </g>
            </g>
        </g>
    </g>
</svg>