<?xml version="1.0" encoding="UTF-8"?>
<svg width="168px" height="209px" viewBox="0 0 168 209" version="1.1" xmlns="http://www.w3.org/2000/svg" xmlns:xlink="http://www.w3.org/1999/xlink">
    <!-- Generator: Sketch 61.2 (89653) - https://sketch.com -->
    <title>balloons</title>
    <desc>Created with Sketch.</desc>
    <g id="Page-1" stroke="none" stroke-width="1" fill="none" fill-rule="evenodd">
        <g id="Balloons" transform="translate(-1870.000000, -1076.000000)">
            <g id="balloons" transform="translate(1869.000000, 1076.000000)">
                <g id="Asset-2" transform="translate(84.500000, 96.500000) scale(-1, 1) translate(-84.500000, -96.500000) " fill-rule="nonzero">
                    <path d="M138.564897,116.951929 L137.303812,117.05203 C137.303812,117.252233 139.805478,137.595901 119.310271,159.941595 C104.32078,176.27351 100.52727,184.928424 100.465753,192.828727 C100.899861,192.796394 101.338077,192.838521 101.747345,192.951929 C101.747345,185.167127 105.520349,176.650815 120.356049,160.480602 C141.107574,137.850004 138.595655,117.159832 138.564897,116.951929 Z" id="Path" fill="#C5CFD6"></path>
                    <path d="M95.5601638,149.163366 C92.6525057,160.600676 89.4287472,173.303671 91.3187249,184.951929 C91.9129385,184.97523 91.6425899,184.797531 92.1519496,184.951929 C90.1562389,173.270711 94.0366073,159.416791 96.9574819,147.906968 C100.684571,133.2593 102.686486,121.21446 95.7865222,113.862619 C80.3640117,97.4300949 84.328752,80.2494527 84.3816185,80.0516894 L82.8826098,80.0516894 C82.8826098,80.2296763 78.657773,97.3757534 94.3062599,114.225185 C101.535755,122.017059 99.2476028,134.640949 95.5601638,149.163366 Z" id="Path" fill="#C5CFD6"></path>
                    <path d="M88.8284809,173.50729 C77.8343392,162.15884 59.8018037,153.391543 44.4946045,145.026503 C30.5626223,137.412987 34.7359929,134.825351 34.7359929,134.668409 L31.4788491,134.668409 C31.4788491,134.831618 29.5264687,138.680003 43.2440209,145.55288 C70.2070538,159.062113 94.4492358,172.974646 98.0498172,192.951929 C98.5115752,192.805755 99.0446813,192.713253 99.6027397,192.682474 C98.3690527,186.062464 94.727897,179.582219 88.8284809,173.50729 Z" id="Path" fill="#C5CFD6"></path>
                    <g id="Group" transform="translate(49.000000, 0.000000)">
                        <path d="M35.127657,74.6572324 C35.8108479,74.661362 36.2550092,74.6833996 36.135598,74.7377591 C34.9406716,75.2964537 33.8562007,77.2468057 35.784149,78.2118237 C37.4711038,79.0562144 39.4886402,79.706173 39.5899564,80.4747352 C39.5950377,80.5188852 39.5953379,80.5561352 39.5904465,80.5936481 C39.5810117,80.6651086 39.5546938,80.7380121 39.5095075,80.8122931 C38.3942093,82.1448819 35.5969166,82.6927423 32.8976273,82.68011 C30.4776891,82.6952585 28.1091396,82.2763364 27.0094599,81.5602216 C24.6797837,80.0431291 29.6083431,78.7907642 31.1511064,77.2125808 C32.6938697,75.6343974 30.3227771,74.7485783 30.3227771,74.7485783 C30.3227771,74.7485783 30.4117467,74.74548 30.567508,74.7404201 C30.5626223,74.7377591 31.1153295,74.7208442 31.8732276,74.7024486 C32.6771749,74.6809654 33.6580201,74.6599358 34.4670805,74.656875 Z" id="Combined-Shape" fill="#CC7C1B"></path>
                        <path d="M66.4285714,29.8493695 C66.4285714,53.9450157 46.8665025,75.3542186 33.2142857,75.3542186 C19.562069,75.3542186 5.25801624e-13,53.5641789 5.25801624e-13,29.8493695 C5.25801624e-13,13.3640179 14.8705422,-3.97903932e-13 33.2142857,-3.97903932e-13 C51.5580292,-3.97903932e-13 66.4285714,13.3640179 66.4285714,29.8493695 L66.4285714,29.8493695 Z" id="Path" fill="#CC7C1B"></path>
                        <path d="M5.61699694,7.94606983 C5.19287061,7.85350391 4.77396066,8.12206642 4.68133537,8.54592101 C4.58871008,8.96977559 4.85744476,9.38841715 5.28157108,9.48098311 C17.180362,13.2388742 17.7452898,27.8117291 19.0781662,37.9386282 C19.1693944,38.8285958 19.9407064,39.4921428 20.8349078,39.4499242 C21.7291092,39.4077055 22.4343879,38.674443 22.4412518,37.7798441 C22.8208126,25.2270763 19.607786,10.9100403 5.61699694,7.94606983 Z" id="Path" fill-opacity="0.2" fill="#FFFFFF" transform="translate(13.566707, 23.689824) scale(-1, 1) translate(-13.566707, -23.689824) "></path>
                        <path d="M34.246785,77.0888185 L33.9740322,77.0888185 C33.2062836,77.0888185 30.7009985,76.8203311 30.5696731,75.8859951 C30.4888575,75.3275414 31.1252807,75.080533 31.3273198,75.0053565 L31.4384413,75.0053565 L31.5495628,75.0053565 C32.3944397,75.2160881 33.2579035,75.3312827 34.1255615,75.3490203 C34.4234771,75.3546532 34.7212021,75.3294759 35.0145336,75.2738439 L35.1054512,75.2738439 C35.4983583,75.3188117 35.7904713,75.6811181 35.7721803,76.100785 C35.7680936,76.4141868 35.6112845,76.7028719 35.3580001,76.8632891 C35.0153539,77.0494267 34.629834,77.1276708 34.246785,77.0888185 L34.246785,77.0888185 Z M31.4788491,75.7893396 C32.299106,76.0896219 33.1573918,76.2561807 34.024542,76.2833564 C34.7518828,76.2833564 35.0347376,76.1437429 35.0347376,76.079306 L35.0347376,76.079306 C34.7371074,76.1258968 34.4364827,76.1474427 34.1356635,76.1437429 C33.2485865,76.1259416 32.3653721,76.0144183 31.499053,75.8108186 L31.4788491,75.7893396 Z" id="Shape" fill="#9B9B9B"></path>
                    </g>
                    <g id="Group" transform="translate(0.000000, 56.000000)">
                        <path d="M35.127657,74.6572324 C35.8108479,74.661362 36.2550092,74.6833996 36.135598,74.7377591 C34.9406716,75.2964537 33.8562007,77.2468057 35.784149,78.2118237 C37.4711038,79.0562144 39.4886402,79.706173 39.5899564,80.4747352 C39.5950377,80.5188852 39.5953379,80.5561352 39.5904465,80.5936481 C39.5810117,80.6651086 39.5546938,80.7380121 39.5095075,80.8122931 C38.3942093,82.1448819 35.5969166,82.6927423 32.8976273,82.68011 C30.4776891,82.6952585 28.1091396,82.2763364 27.0094599,81.5602216 C24.6797837,80.0431291 29.6083431,78.7907642 31.1511064,77.2125808 C32.6938697,75.6343974 30.3227771,74.7485783 30.3227771,74.7485783 C30.3227771,74.7485783 30.4117467,74.74548 30.567508,74.7404201 C30.5626223,74.7377591 31.1153295,74.7208442 31.8732276,74.7024486 C32.6771749,74.6809654 33.6580201,74.6599358 34.4670805,74.656875 Z" id="Combined-Shape" fill="#138B77"></path>
                        <path d="M66.4285714,29.8493695 C66.4285714,53.9450157 46.8665025,75.3542186 33.2142857,75.3542186 C19.562069,75.3542186 5.25801624e-13,53.5641789 5.25801624e-13,29.8493695 C5.25801624e-13,13.3640179 14.8705422,-3.97903932e-13 33.2142857,-3.97903932e-13 C51.5580292,-3.97903932e-13 66.4285714,13.3640179 66.4285714,29.8493695 L66.4285714,29.8493695 Z" id="Path" fill="#138B77"></path>
                        <path d="M5.61699694,7.94606983 C5.19287061,7.85350391 4.77396066,8.12206642 4.68133537,8.54592101 C4.58871008,8.96977559 4.85744476,9.38841715 5.28157108,9.48098311 C17.180362,13.2388742 17.7452898,27.8117291 19.0781662,37.9386282 C19.1693944,38.8285958 19.9407064,39.4921428 20.8349078,39.4499242 C21.7291092,39.4077055 22.4343879,38.674443 22.4412518,37.7798441 C22.8208126,25.2270763 19.607786,10.9100403 5.61699694,7.94606983 Z" id="Path" fill-opacity="0.2" fill="#FFFFFF" transform="translate(13.566707, 23.689824) scale(-1, 1) translate(-13.566707, -23.689824) "></path>
                        <path d="M34.246785,77.0888185 L33.9740322,77.0888185 C33.2062836,77.0888185 30.7009985,76.8203311 30.5696731,75.8859951 C30.4888575,75.3275414 31.1252807,75.080533 31.3273198,75.0053565 L31.4384413,75.0053565 L31.5495628,75.0053565 C32.3944397,75.2160881 33.2579035,75.3312827 34.1255615,75.3490203 C34.4234771,75.3546532 34.7212021,75.3294759 35.0145336,75.2738439 L35.1054512,75.2738439 C35.4983583,75.3188117 35.7904713,75.6811181 35.7721803,76.100785 C35.7680936,76.4141868 35.6112845,76.7028719 35.3580001,76.8632891 C35.0153539,77.0494267 34.629834,77.1276708 34.246785,77.0888185 L34.246785,77.0888185 Z M31.4788491,75.7893396 C32.299106,76.0896219 33.1573918,76.2561807 34.024542,76.2833564 C34.7518828,76.2833564 35.0347376,76.1437429 35.0347376,76.079306 L35.0347376,76.079306 C34.7371074,76.1258968 34.4364827,76.1474427 34.1356635,76.1437429 C33.2485865,76.1259416 32.3653721,76.0144183 31.499053,75.8108186 L31.4788491,75.7893396 Z" id="Shape" fill="#9B9B9B"></path>
                    </g>
                    <g id="Group-3" transform="translate(110.103718, 52.214460)">
                        <path d="M27.7382397,68.7247016 C25.739658,68.7483783 23.7628273,68.4008904 22.8372764,67.801609 C20.9030587,66.5492299 24.9140153,65.5004897 26.1763469,64.197201 C26.3737026,63.993442 26.4929254,63.80362 26.5536223,63.6283577 L26.5226058,63.552569 C26.7258889,62.6589596 25.4452055,62.1659338 25.4452055,62.1659338 C25.4452055,62.1659338 25.467605,62.1652451 25.5093086,62.1640058 C25.5068553,62.1617198 25.5044607,62.1608123 25.5044607,62.1608123 C25.5044607,62.1608123 26.4942276,62.132643 27.5642737,62.1138714 C27.5737114,62.1139311 27.5830701,62.1137584 27.592433,62.1135866 L27.5642737,62.1138714 C27.6573286,62.112239 27.7509906,62.1106776 27.8446616,62.109212 C27.9068008,62.1081723 27.9688838,62.1071989 28.030742,62.1062813 C28.0608245,62.1060038 28.0908759,62.1055878 28.1208671,62.1051842 C28.2187992,62.1036128 28.3156937,62.1023966 28.4111136,62.1013612 C28.4762534,62.1009724 28.540734,62.1003518 28.6043827,62.0998145 C28.692554,62.0987684 28.7793497,62.0982142 28.8637823,62.0978695 L29.2982905,62.0978625 C29.8899495,62.1005995 30.2789244,62.1176161 30.1771235,62.1608123 C29.1794743,62.6291817 28.263266,64.2481107 29.8819008,65.0524842 C31.3491469,65.7816259 33.117529,66.3267066 33.0866863,66.9683309 C33.0898008,67.0307614 33.0742586,67.0938798 33.0378285,67.1578207 C32.1611702,68.2124705 30.0294593,68.6849536 27.8989731,68.7232869 Z" id="Combined-Shape" fill="#B52705"></path>
                        <path d="M57.7969377,24.7223011 C57.7969377,44.6956565 40.7468411,62.4463201 28.8984689,62.4463201 C17.0500966,62.4463201 1.8189894e-12,44.376659 1.8189894e-12,24.7223011 C1.8189894e-12,11.0685512 12.9517626,4.54747351e-13 28.9285714,4.54747351e-13 C44.9053803,4.54747351e-13 57.8571429,11.0685512 57.8571429,24.7223011 L57.7969377,24.7223011 Z" id="Path" fill="#B52705" transform="translate(28.928571, 31.223160) scale(-1, 1) translate(-28.928571, -31.223160) "></path>
                        <path d="M16.0339709,27.6648826 C16.2870115,19.2339191 14.1449937,9.61799948 4.817801,7.62727305 C4.53505012,7.5651019 4.25577682,7.74547971 4.19402663,8.03015816 C4.13227643,8.31483661 4.31143288,8.59601378 4.59418377,8.65818495 C12.5267111,11.1821417 12.9033296,20.96988 13.7919139,27.7715287 C13.8527327,28.3692681 14.3669407,28.814934 14.9630749,28.7865782 C15.5592092,28.7582224 16.029395,28.2657326 16.0339709,27.6648826 L16.0339709,27.6648826 Z" id="Path" fill-opacity="0.2" fill="#FFFFFF" transform="translate(10.117608, 18.201436) scale(-1, 1) translate(-10.117608, -18.201436) "></path>
                        <path d="M28.6623559,64.8806295 L28.4177363,64.8806295 C27.7476913,64.8806295 25.5673862,64.6541184 25.4503942,63.8775089 C25.3865804,63.4137004 25.9289978,63.2087618 26.1098036,63.1440443 L26.2055243,63.1440443 L26.301245,63.1440443 C27.0309481,63.3166746 27.7753166,63.4178107 28.5240926,63.4460591 C28.7843197,63.4491722 29.0442604,63.4275047 29.3004939,63.3813417 L29.3749434,63.3813417 C29.7207324,63.4154865 29.9786249,63.7198292 29.9599033,64.0716613 C29.9581623,64.3335386 29.8208351,64.5752162 29.5982917,64.7080496 C29.3077586,64.8513373 28.9840279,64.9110309 28.6623559,64.8806295 Z M26.2374312,63.8020052 C26.9553079,64.0454672 27.7038442,64.1834919 28.4602788,64.2118824 C29.0984169,64.2118824 29.3111296,64.0932337 29.3324008,64.0393025 C29.0706188,64.063966 28.807146,64.063966 28.5453639,64.0393025 C27.7726173,64.027805 27.0029734,63.9374644 26.2480668,63.7696464 L26.2374312,63.8020052 Z" id="Shape" fill="#9B9B9B"></path>
                    </g>
                </g>
                <g id="basket" transform="translate(30.000000, 170.000000)">
                    <path d="M84.8678024,12.8395062 L3.13219758,12.8395062 C2.26415496,12.8395062 1.56028369,12.1028599 1.56028369,11.1943979 L1.56028369,7.90436758 C1.56028369,6.99590552 2.26415496,6.25925926 3.13219758,6.25925926 L84.8678024,6.25925926 C85.735845,6.25925926 86.4397163,6.99590552 86.4397163,7.90436758 L86.4397163,11.1943979 C86.4397163,12.1030463 85.735845,12.8395062 84.8678024,12.8395062 L84.8678024,12.8395062 Z" id="Shape" fill="#FFDCA0"></path>
                    <rect id="Rectangle-path" fill="#EBCC98" x="42.4397163" y="6.25925926" width="3.12056738" height="6.58024691"></rect>
                    <rect id="Rectangle-path" fill="#EBCC98" x="29.6453901" y="6.25925926" width="3.12056738" height="6.58024691"></rect>
                    <rect id="Rectangle-path" fill="#EBCC98" x="4.5248227" y="6.25925926" width="3.12056738" height="6.58024691"></rect>
                    <rect id="Rectangle-path" fill="#EBCC98" x="67.5602837" y="6.25925926" width="3.12056738" height="6.58024691"></rect>
                    <rect id="Rectangle-path" fill="#EBCC98" x="80.0425532" y="6.25925926" width="3.12056738" height="6.58024691"></rect>
                    <rect id="Rectangle-path" fill="#EBCC98" x="17.0070922" y="6.25925926" width="3.12056738" height="6.58024691"></rect>
                    <rect id="Rectangle-path" fill="#EBCC98" x="54.9219858" y="6.25925926" width="3.12056738" height="6.58024691"></rect>
                    <path d="M81.743191,26.1604938 L6.10078063,26.1604938 C5.23050481,26.1604938 4.5248227,25.4238476 4.5248227,24.5153855 L4.5248227,21.2253552 C4.5248227,20.3168932 5.23050481,19.5802469 6.10078063,19.5802469 L81.743191,19.5802469 C82.6134668,19.5802469 83.3191489,20.3168932 83.3191489,21.2253552 L83.3191489,24.5153855 C83.3191489,25.4238476 82.6134668,26.1604938 81.743191,26.1604938 L81.743191,26.1604938 Z" id="Shape" fill="#FFDCA0"></path>
                    <rect id="Rectangle-path" fill="#EBCC98" x="42.4397163" y="19.5802469" width="3.12056738" height="6.58024691"></rect>
                    <rect id="Rectangle-path" fill="#EBCC98" x="29.6453901" y="19.5802469" width="3.12056738" height="6.58024691"></rect>
                    <path d="M7.64539007,26.1604938 L4.71978083,26.1604938 C4.61213849,26.1604938 4.5248227,26.0684311 4.5248227,25.9549368 L4.5248227,19.7858039 C4.5248227,19.6723096 4.61213849,19.5802469 4.71978083,19.5802469 L7.64539007,19.5802469 L7.64539007,26.1604938 L7.64539007,26.1604938 Z" id="Shape" fill="#EBCC98"></path>
                    <rect id="Rectangle-path" fill="#EBCC98" x="67.5602837" y="19.5802469" width="3.12056738" height="6.58024691"></rect>
                    <path d="M82.9681622,26.1604938 L80.0425532,26.1604938 L80.0425532,19.5802469 L82.9681622,19.5802469 C83.0758045,19.5802469 83.1631203,19.672307 83.1631203,19.7857981 L83.1631203,25.9547563 C83.1632971,26.0684337 83.0758045,26.1604938 82.9681622,26.1604938 L82.9681622,26.1604938 Z" id="Shape" fill="#EBCC98"></path>
                    <rect id="Rectangle-path" fill="#EBCC98" x="17.0070922" y="19.5802469" width="3.12056738" height="6.58024691"></rect>
                    <rect id="Rectangle-path" fill="#EBCC98" x="54.9219858" y="19.5802469" width="3.12056738" height="6.58024691"></rect>
                    <path d="M78.4686321,39 L9.21931121,39 C8.35016015,39 7.64539007,38.2633537 7.64539007,37.3548917 L7.64539007,34.0648614 C7.64539007,33.1563993 8.35016015,32.4197531 9.21931121,32.4197531 L78.4686321,32.4197531 C79.3377831,32.4197531 80.0425532,33.1563993 80.0425532,34.0648614 L80.0425532,37.3548917 C80.0423749,38.2633537 79.3377831,39 78.4686321,39 L78.4686321,39 Z" id="Shape" fill="#FFDCA0"></path>
                    <rect id="Rectangle-path" fill="#EBCC98" x="42.4397163" y="32.4197531" width="3.12056738" height="6.58024691"></rect>
                    <rect id="Rectangle-path" fill="#EBCC98" x="29.6453901" y="32.4197531" width="3.12056738" height="6.58024691"></rect>
                    <rect id="Rectangle-path" fill="#EBCC98" x="67.5602837" y="32.4197531" width="3.12056738" height="6.58024691"></rect>
                    <rect id="Rectangle-path" fill="#EBCC98" x="17.0070922" y="32.4197531" width="3.12056738" height="6.58024691"></rect>
                    <rect id="Rectangle-path" fill="#EBCC98" x="54.9219858" y="32.4197531" width="3.12056738" height="6.58024691"></rect>
                    <path d="M86.4285015,6.58024691 L1.57149851,6.58024691 C0.703685273,6.58024691 0,5.84360065 0,4.9351386 L0,1.64510832 C0,0.736646259 0.703685273,0 1.57149851,0 L86.4285015,0 C87.2963147,0 88,0.736646259 88,1.64510832 L88,4.9351386 C87.999822,5.84360065 87.2963147,6.58024691 86.4285015,6.58024691 L86.4285015,6.58024691 Z" id="Shape" fill="#EBCC98"></path>
                    <polygon id="Rectangle-path" fill="#E1BE8C" points="48.5248227 0 51.6453901 0 51.6453901 6.58024691 48.5248227 6.58024691"></polygon>
                    <rect id="Rectangle-path" fill="#E1BE8C" x="36.0425532" y="0" width="3.12056738" height="6.58024691"></rect>
                    <rect id="Rectangle-path" fill="#E1BE8C" x="10.9219858" y="0" width="3.12056738" height="6.58024691"></rect>
                    <polygon id="Rectangle-path" fill="#E1BE8C" points="73.9574468 0 77.0780142 0 77.0780142 6.58024691 73.9574468 6.58024691"></polygon>
                    <rect id="Rectangle-path" fill="#E1BE8C" x="23.5602837" y="0" width="3.12056738" height="6.58024691"></rect>
                    <polygon id="Rectangle-path" fill="#E1BE8C" points="61.3191489 0 64.4397163 0 64.4397163 6.58024691 61.3191489 6.58024691"></polygon>
                    <path d="M83.3040776,19.4197531 L4.53989406,19.4197531 C3.66995116,19.4197531 2.96453901,18.6831068 2.96453901,17.7746448 L2.96453901,14.4846145 C2.96453901,13.5761524 3.66995116,12.8395062 4.53989406,12.8395062 L83.3040776,12.8395062 C84.1740205,12.8395062 84.8794326,13.5761524 84.8794326,14.4846145 L84.8794326,17.7746448 C84.8792542,18.6831068 84.1740205,19.4197531 83.3040776,19.4197531 L83.3040776,19.4197531 Z" id="Shape" fill="#EBCC98"></path>
                    <polygon id="Rectangle-path" fill="#E1BE8C" points="48.5248227 12.8395062 51.6453901 12.8395062 51.6453901 19.4197531 48.5248227 19.4197531"></polygon>
                    <rect id="Rectangle-path" fill="#E1BE8C" x="36.0425532" y="12.8395062" width="3.12056738" height="6.58024691"></rect>
                    <rect id="Rectangle-path" fill="#E1BE8C" x="10.9219858" y="12.8395062" width="3.12056738" height="6.58024691"></rect>
                    <polygon id="Rectangle-path" fill="#E1BE8C" points="73.9574468 12.8395062 77.0780142 12.8395062 77.0780142 19.4197531 73.9574468 19.4197531"></polygon>
                    <rect id="Rectangle-path" fill="#E1BE8C" x="23.5602837" y="12.8395062" width="3.12056738" height="6.58024691"></rect>
                    <polygon id="Rectangle-path" fill="#E1BE8C" points="61.3191489 12.8395062 64.4397163 12.8395062 64.4397163 19.4197531 61.3191489 19.4197531"></polygon>
                    <path d="M80.0293021,32.4197531 L7.65846298,32.4197531 C6.78962367,32.4197531 6.08510638,31.6831068 6.08510638,30.7746448 L6.08510638,27.4846145 C6.08510638,26.5761524 6.78962367,25.8395062 7.65846298,25.8395062 L80.0294803,25.8395062 C80.8983196,25.8395062 81.6028369,26.5761524 81.6028369,27.4846145 L81.6028369,30.7746448 C81.6026587,31.6832932 80.8983196,32.4197531 80.0293021,32.4197531 L80.0293021,32.4197531 Z" id="Shape" fill="#EBCC98"></path>
                    <polygon id="Rectangle-path" fill="#E1BE8C" points="48.5248227 25.8395062 51.6453901 25.8395062 51.6453901 32.4197531 48.5248227 32.4197531"></polygon>
                    <rect id="Rectangle-path" fill="#E1BE8C" x="36.0425532" y="25.8395062" width="3.12056738" height="6.58024691"></rect>
                    <rect id="Rectangle-path" fill="#E1BE8C" x="10.9219858" y="25.8395062" width="3.12056738" height="6.58024691"></rect>
                    <polygon id="Rectangle-path" fill="#E1BE8C" points="73.9574468 25.8395062 77.0780142 25.8395062 77.0780142 32.4197531 73.9574468 32.4197531"></polygon>
                    <rect id="Rectangle-path" fill="#E1BE8C" x="23.5602837" y="25.8395062" width="3.12056738" height="6.58024691"></rect>
                    <polygon id="Rectangle-path" fill="#E1BE8C" points="61.3191489 25.8395062 64.4397163 25.8395062 64.4397163 32.4197531 61.3191489 32.4197531"></polygon>
                </g>
            </g>
        </g>
    </g>
</svg>