<?xml version="1.0" encoding="UTF-8"?>
<svg width="170px" height="236px" viewBox="0 0 170 236" version="1.1" xmlns="http://www.w3.org/2000/svg" xmlns:xlink="http://www.w3.org/1999/xlink">
    <!-- Generator: Sketch 61.2 (89653) - https://sketch.com -->
    <title>balloons</title>
    <desc>Created with Sketch.</desc>
    <g id="Page-1" stroke="none" stroke-width="1" fill="none" fill-rule="evenodd">
        <g id="Balloons" transform="translate(-1240.000000, -766.000000)">
            <g id="balloons" transform="translate(1240.000000, 766.000000)">
                <g id="Asset-2" transform="translate(85.000000, 110.000000) scale(-1, 1) translate(-85.000000, -110.000000) " fill-rule="nonzero">
                    <path d="M90.3558147,163.171006 C87.949233,174.608316 85.3238713,187.12014 86.8881493,198.768398 C87.3799622,198.791698 87.8558214,198.884276 88.2774033,199.038674 C86.6256131,187.357456 89.2728529,174.759934 91.6903736,163.250111 C94.7751736,148.602444 95.684306,140.935153 91.2856303,127.949364 C81.4791803,98.9987227 77.922721,94.0600233 77.966477,93.86226 L76.6428571,93.7238257 C76.6428571,93.9018127 78.4875774,97 90.0604615,128.31193 C93.3747646,137.279205 93.4077977,148.648588 90.3558147,163.171006 Z" id="Path" fill="#C5CFD6"></path>
                    <path d="M77.7010068,204.375923 C68.6176059,195.285318 55.5373781,188.852121 42.5208143,182.719321 C37.31409,180.266154 41.4875774,174.468356 41.4875774,174.342865 L39.6428571,174.35529 C39.6428571,174.485801 34.0805424,179.247885 41.4875774,183.140972 C63.2996517,194.60525 82.3448956,203.949252 85.3197093,219.951929 C85.7012155,219.834837 86.1416698,219.760739 86.6027397,219.736084 C85.5834629,214.433166 82.5751264,209.242207 77.7010068,204.375923 Z" id="Path" fill="#C5CFD6"></path>
                    <path d="M130.373421,162.073476 L129.317273,162.149709 C129.317273,162.302175 131.412395,177.79507 114.247856,194.812625 C101.694301,207.250335 98.5172728,213.841559 98.4657534,219.858104 C98.8293141,219.83348 99.1963156,219.865562 99.5390738,219.951929 C99.5390738,214.023346 102.698929,207.537675 115.123685,195.223111 C132.502888,177.988585 130.39918,162.231806 130.373421,162.073476 Z" id="Path" fill="#C5CFD6"></path>
                    <g id="Group-5" transform="translate(37.000000, 0.000000)">
                        <path d="M46.5941588,95.4036698 C45.0119051,96.5257707 42.2027236,96.9964741 39.4733903,96.9834059 C38.9916874,96.982049 38.5132163,96.9654591 38.0447194,96.9346398 C38.0541013,96.9344198 38.0634814,96.9341824 38.0728598,96.9339279 C35.8702048,96.7892827 33.876456,96.3330826 32.8317115,95.6605127 C30.0910354,93.8961616 35.8474741,92.4377673 37.5794999,90.5612319 C39.3115257,88.6846966 36.5606612,87.6648405 36.5606612,87.6648405 C36.5606612,87.6648405 36.6521772,87.6622231 36.8138537,87.6578334 C37.4826734,87.6383768 39.7395108,87.5740541 41.4017875,87.5653671 L42.3548114,87.5655391 C42.9888336,87.5702349 43.3740858,87.5898929 43.2646199,87.6342448 L43.2752975,87.6288089 C43.2976129,87.6391503 43.2960809,87.6509432 43.2675929,87.6643301 C42.3224145,88.0853095 41.4512149,89.2140206 41.6014007,90.2650113 C41.6964537,90.800858 42.0653424,91.3173521 42.8367076,91.7136694 C43.9054578,92.2627793 45.0839569,92.7415797 45.9738508,93.1990223 C47.0010527,93.7191412 47.6438251,94.2192246 47.2891038,94.7780408 C47.1467243,94.9468781 46.9811159,95.1050911 46.7949385,95.2529922 C46.7774266,95.266455 46.760098,95.2801057 46.7425973,95.2936672 C46.7049579,95.3228148 46.6663604,95.3514541 46.6269795,95.3796889 Z" id="Combined-Shape" fill="#138B77"></path>
                        <path d="M79.2857143,34.9036402 C79.2857143,63.1631105 55.8574832,88.2621172 39.5904659,88.2621172 C23.3234486,88.2621172 -2.48689958e-13,62.7321382 -2.48689958e-13,34.9652077 C-0.0192767718,15.6714657 17.7137914,0.0170152476 39.6079323,1.49213975e-13 C61.5020731,-0.0169875287 79.2664211,15.6098982 79.2857143,34.9036402 Z" id="Path" fill="#138B77"></path>
                        <path d="M22.8473284,39.575854 C23.2268892,27.0230862 20.0138626,12.7060503 6.02307352,9.74207982 C5.59894719,9.64951389 5.18003724,9.91807641 5.08741195,10.341931 C4.99478666,10.7657856 5.26352134,11.1844271 5.68764766,11.2769931 C17.5864386,15.0348842 18.1513664,29.6077391 19.4842428,39.7346382 C19.575471,40.6246058 20.346783,41.2881528 21.2409844,41.2459342 C22.1351858,41.2037155 22.8404645,40.4704529 22.8473284,39.575854 L22.8473284,39.575854 Z" id="Path" fill-opacity="0.2" fill="#FFFFFF" transform="translate(13.972784, 25.485834) scale(-1, 1) translate(-13.972784, -25.485834) "></path>
                        <path d="M40.7473507,91.0378157 L40.4938483,91.0378157 C39.7840419,91.0378157 37.4518206,90.8544259 37.3199994,90.2366916 C37.2490187,89.8699119 37.8371441,89.7058262 38.0298059,89.6575657 L38.1312068,89.6575657 L38.2326077,89.6575657 C39.0298769,89.7904152 39.8367089,89.864634 40.6459497,89.879564 C40.9194461,89.896415 41.1938009,89.896415 41.4672972,89.879564 L41.5585581,89.879564 C41.8849387,89.8788953 42.1557024,90.1197279 42.1771037,90.4297335 C42.1643818,90.654897 42.0132858,90.8517093 41.7917802,90.9316426 C41.456267,91.0405387 41.0994566,91.0768108 40.7473507,91.0378157 L40.7473507,91.0378157 Z M38.1717671,90.1884311 C38.9464584,90.3845832 39.7430825,90.491521 40.5445488,90.5069503 C41.223935,90.5069503 41.4672972,90.4200814 41.4875774,90.371821 L41.4875774,90.371821 C41.2107071,90.3889542 40.9329601,90.3889542 40.6560898,90.371821 C39.8238487,90.3718049 38.9929925,90.307244 38.1717671,90.178779 L38.1717671,90.1884311 Z" id="Shape" fill="#9B9B9B"></path>
                    </g>
                    <g id="Group-5" transform="translate(0.000000, 84.000000)">
                        <path d="M46.5941588,95.4036698 C45.0119051,96.5257707 42.2027236,96.9964741 39.4733903,96.9834059 C38.9916874,96.982049 38.5132163,96.9654591 38.0447194,96.9346398 C38.0541013,96.9344198 38.0634814,96.9341824 38.0728598,96.9339279 C35.8702048,96.7892827 33.876456,96.3330826 32.8317115,95.6605127 C30.0910354,93.8961616 35.8474741,92.4377673 37.5794999,90.5612319 C39.3115257,88.6846966 36.5606612,87.6648405 36.5606612,87.6648405 C36.5606612,87.6648405 36.6521772,87.6622231 36.8138537,87.6578334 C37.4826734,87.6383768 39.7395108,87.5740541 41.4017875,87.5653671 L42.3548114,87.5655391 C42.9888336,87.5702349 43.3740858,87.5898929 43.2646199,87.6342448 L43.2752975,87.6288089 C43.2976129,87.6391503 43.2960809,87.6509432 43.2675929,87.6643301 C42.3224145,88.0853095 41.4512149,89.2140206 41.6014007,90.2650113 C41.6964537,90.800858 42.0653424,91.3173521 42.8367076,91.7136694 C43.9054578,92.2627793 45.0839569,92.7415797 45.9738508,93.1990223 C47.0010527,93.7191412 47.6438251,94.2192246 47.2891038,94.7780408 C47.1467243,94.9468781 46.9811159,95.1050911 46.7949385,95.2529922 C46.7774266,95.266455 46.760098,95.2801057 46.7425973,95.2936672 C46.7049579,95.3228148 46.6663604,95.3514541 46.6269795,95.3796889 Z" id="Combined-Shape" fill="#B52705"></path>
                        <path d="M79.2857143,34.9036402 C79.2857143,63.1631105 55.8574832,88.2621172 39.5904659,88.2621172 C23.3234486,88.2621172 -2.48689958e-13,62.7321382 -2.48689958e-13,34.9652077 C-0.0192767718,15.6714657 17.7137914,0.0170152476 39.6079323,1.49213975e-13 C61.5020731,-0.0169875287 79.2664211,15.6098982 79.2857143,34.9036402 Z" id="Path" fill="#B52705"></path>
                        <path d="M22.8473284,39.575854 C23.2268892,27.0230862 20.0138626,12.7060503 6.02307352,9.74207982 C5.59894719,9.64951389 5.18003724,9.91807641 5.08741195,10.341931 C4.99478666,10.7657856 5.26352134,11.1844271 5.68764766,11.2769931 C17.5864386,15.0348842 18.1513664,29.6077391 19.4842428,39.7346382 C19.575471,40.6246058 20.346783,41.2881528 21.2409844,41.2459342 C22.1351858,41.2037155 22.8404645,40.4704529 22.8473284,39.575854 L22.8473284,39.575854 Z" id="Path" fill-opacity="0.2" fill="#FFFFFF" transform="translate(13.972784, 25.485834) scale(-1, 1) translate(-13.972784, -25.485834) "></path>
                        <path d="M40.7473507,91.0378157 L40.4938483,91.0378157 C39.7840419,91.0378157 37.4518206,90.8544259 37.3199994,90.2366916 C37.2490187,89.8699119 37.8371441,89.7058262 38.0298059,89.6575657 L38.1312068,89.6575657 L38.2326077,89.6575657 C39.0298769,89.7904152 39.8367089,89.864634 40.6459497,89.879564 C40.9194461,89.896415 41.1938009,89.896415 41.4672972,89.879564 L41.5585581,89.879564 C41.8849387,89.8788953 42.1557024,90.1197279 42.1771037,90.4297335 C42.1643818,90.654897 42.0132858,90.8517093 41.7917802,90.9316426 C41.456267,91.0405387 41.0994566,91.0768108 40.7473507,91.0378157 L40.7473507,91.0378157 Z M38.1717671,90.1884311 C38.9464584,90.3845832 39.7430825,90.491521 40.5445488,90.5069503 C41.223935,90.5069503 41.4672972,90.4200814 41.4875774,90.371821 L41.4875774,90.371821 C41.2107071,90.3889542 40.9329601,90.3889542 40.6560898,90.371821 C39.8238487,90.3718049 38.9929925,90.307244 38.1717671,90.178779 L38.1717671,90.1884311 Z" id="Shape" fill="#9B9B9B"></path>
                    </g>
                    <g id="Group-5" transform="translate(90.000000, 67.000000)">
                        <path d="M46.5941588,95.4036698 C45.0119051,96.5257707 42.2027236,96.9964741 39.4733903,96.9834059 C38.9916874,96.982049 38.5132163,96.9654591 38.0447194,96.9346398 C38.0541013,96.9344198 38.0634814,96.9341824 38.0728598,96.9339279 C35.8702048,96.7892827 33.876456,96.3330826 32.8317115,95.6605127 C30.0910354,93.8961616 35.8474741,92.4377673 37.5794999,90.5612319 C39.3115257,88.6846966 36.5606612,87.6648405 36.5606612,87.6648405 C36.5606612,87.6648405 36.6521772,87.6622231 36.8138537,87.6578334 C37.4826734,87.6383768 39.7395108,87.5740541 41.4017875,87.5653671 L42.3548114,87.5655391 C42.9888336,87.5702349 43.3740858,87.5898929 43.2646199,87.6342448 L43.2752975,87.6288089 C43.2976129,87.6391503 43.2960809,87.6509432 43.2675929,87.6643301 C42.3224145,88.0853095 41.4512149,89.2140206 41.6014007,90.2650113 C41.6964537,90.800858 42.0653424,91.3173521 42.8367076,91.7136694 C43.9054578,92.2627793 45.0839569,92.7415797 45.9738508,93.1990223 C47.0010527,93.7191412 47.6438251,94.2192246 47.2891038,94.7780408 C47.1467243,94.9468781 46.9811159,95.1050911 46.7949385,95.2529922 C46.7774266,95.266455 46.760098,95.2801057 46.7425973,95.2936672 C46.7049579,95.3228148 46.6663604,95.3514541 46.6269795,95.3796889 Z" id="Combined-Shape" fill="#CC7C1B"></path>
                        <path d="M79.2857143,34.9036402 C79.2857143,63.1631105 55.8574832,88.2621172 39.5904659,88.2621172 C23.3234486,88.2621172 -2.48689958e-13,62.7321382 -2.48689958e-13,34.9652077 C-0.0192767718,15.6714657 17.7137914,0.0170152476 39.6079323,1.49213975e-13 C61.5020731,-0.0169875287 79.2664211,15.6098982 79.2857143,34.9036402 Z" id="Path" fill="#CC7C1B"></path>
                        <path d="M22.8473284,39.575854 C23.2268892,27.0230862 20.0138626,12.7060503 6.02307352,9.74207982 C5.59894719,9.64951389 5.18003724,9.91807641 5.08741195,10.341931 C4.99478666,10.7657856 5.26352134,11.1844271 5.68764766,11.2769931 C17.5864386,15.0348842 18.1513664,29.6077391 19.4842428,39.7346382 C19.575471,40.6246058 20.346783,41.2881528 21.2409844,41.2459342 C22.1351858,41.2037155 22.8404645,40.4704529 22.8473284,39.575854 L22.8473284,39.575854 Z" id="Path" fill-opacity="0.2" fill="#FFFFFF" transform="translate(13.972784, 25.485834) scale(-1, 1) translate(-13.972784, -25.485834) "></path>
                        <path d="M40.7473507,91.0378157 L40.4938483,91.0378157 C39.7840419,91.0378157 37.4518206,90.8544259 37.3199994,90.2366916 C37.2490187,89.8699119 37.8371441,89.7058262 38.0298059,89.6575657 L38.1312068,89.6575657 L38.2326077,89.6575657 C39.0298769,89.7904152 39.8367089,89.864634 40.6459497,89.879564 C40.9194461,89.896415 41.1938009,89.896415 41.4672972,89.879564 L41.5585581,89.879564 C41.8849387,89.8788953 42.1557024,90.1197279 42.1771037,90.4297335 C42.1643818,90.654897 42.0132858,90.8517093 41.7917802,90.9316426 C41.456267,91.0405387 41.0994566,91.0768108 40.7473507,91.0378157 L40.7473507,91.0378157 Z M38.1717671,90.1884311 C38.9464584,90.3845832 39.7430825,90.491521 40.5445488,90.5069503 C41.223935,90.5069503 41.4672972,90.4200814 41.4875774,90.371821 L41.4875774,90.371821 C41.2107071,90.3889542 40.9329601,90.3889542 40.6560898,90.371821 C39.8238487,90.3718049 38.9929925,90.307244 38.1717671,90.178779 L38.1717671,90.1884311 Z" id="Shape" fill="#9B9B9B"></path>
                    </g>
                </g>
                <g id="basket" transform="translate(29.000000, 197.000000)">
                    <path d="M84.8678024,12.8395062 L3.13219758,12.8395062 C2.26415496,12.8395062 1.56028369,12.1028599 1.56028369,11.1943979 L1.56028369,7.90436758 C1.56028369,6.99590552 2.26415496,6.25925926 3.13219758,6.25925926 L84.8678024,6.25925926 C85.735845,6.25925926 86.4397163,6.99590552 86.4397163,7.90436758 L86.4397163,11.1943979 C86.4397163,12.1030463 85.735845,12.8395062 84.8678024,12.8395062 L84.8678024,12.8395062 Z" id="Shape" fill="#FFDCA0"></path>
                    <rect id="Rectangle-path" fill="#EBCC98" x="42.4397163" y="6.25925926" width="3.12056738" height="6.58024691"></rect>
                    <rect id="Rectangle-path" fill="#EBCC98" x="29.6453901" y="6.25925926" width="3.12056738" height="6.58024691"></rect>
                    <rect id="Rectangle-path" fill="#EBCC98" x="4.5248227" y="6.25925926" width="3.12056738" height="6.58024691"></rect>
                    <rect id="Rectangle-path" fill="#EBCC98" x="67.5602837" y="6.25925926" width="3.12056738" height="6.58024691"></rect>
                    <rect id="Rectangle-path" fill="#EBCC98" x="80.0425532" y="6.25925926" width="3.12056738" height="6.58024691"></rect>
                    <rect id="Rectangle-path" fill="#EBCC98" x="17.0070922" y="6.25925926" width="3.12056738" height="6.58024691"></rect>
                    <rect id="Rectangle-path" fill="#EBCC98" x="54.9219858" y="6.25925926" width="3.12056738" height="6.58024691"></rect>
                    <path d="M81.743191,26.1604938 L6.10078063,26.1604938 C5.23050481,26.1604938 4.5248227,25.4238476 4.5248227,24.5153855 L4.5248227,21.2253552 C4.5248227,20.3168932 5.23050481,19.5802469 6.10078063,19.5802469 L81.743191,19.5802469 C82.6134668,19.5802469 83.3191489,20.3168932 83.3191489,21.2253552 L83.3191489,24.5153855 C83.3191489,25.4238476 82.6134668,26.1604938 81.743191,26.1604938 L81.743191,26.1604938 Z" id="Shape" fill="#FFDCA0"></path>
                    <rect id="Rectangle-path" fill="#EBCC98" x="42.4397163" y="19.5802469" width="3.12056738" height="6.58024691"></rect>
                    <rect id="Rectangle-path" fill="#EBCC98" x="29.6453901" y="19.5802469" width="3.12056738" height="6.58024691"></rect>
                    <path d="M7.64539007,26.1604938 L4.71978083,26.1604938 C4.61213849,26.1604938 4.5248227,26.0684311 4.5248227,25.9549368 L4.5248227,19.7858039 C4.5248227,19.6723096 4.61213849,19.5802469 4.71978083,19.5802469 L7.64539007,19.5802469 L7.64539007,26.1604938 L7.64539007,26.1604938 Z" id="Shape" fill="#EBCC98"></path>
                    <rect id="Rectangle-path" fill="#EBCC98" x="67.5602837" y="19.5802469" width="3.12056738" height="6.58024691"></rect>
                    <path d="M82.9681622,26.1604938 L80.0425532,26.1604938 L80.0425532,19.5802469 L82.9681622,19.5802469 C83.0758045,19.5802469 83.1631203,19.672307 83.1631203,19.7857981 L83.1631203,25.9547563 C83.1632971,26.0684337 83.0758045,26.1604938 82.9681622,26.1604938 L82.9681622,26.1604938 Z" id="Shape" fill="#EBCC98"></path>
                    <rect id="Rectangle-path" fill="#EBCC98" x="17.0070922" y="19.5802469" width="3.12056738" height="6.58024691"></rect>
                    <rect id="Rectangle-path" fill="#EBCC98" x="54.9219858" y="19.5802469" width="3.12056738" height="6.58024691"></rect>
                    <path d="M78.4686321,39 L9.21931121,39 C8.35016015,39 7.64539007,38.2633537 7.64539007,37.3548917 L7.64539007,34.0648614 C7.64539007,33.1563993 8.35016015,32.4197531 9.21931121,32.4197531 L78.4686321,32.4197531 C79.3377831,32.4197531 80.0425532,33.1563993 80.0425532,34.0648614 L80.0425532,37.3548917 C80.0423749,38.2633537 79.3377831,39 78.4686321,39 L78.4686321,39 Z" id="Shape" fill="#FFDCA0"></path>
                    <rect id="Rectangle-path" fill="#EBCC98" x="42.4397163" y="32.4197531" width="3.12056738" height="6.58024691"></rect>
                    <rect id="Rectangle-path" fill="#EBCC98" x="29.6453901" y="32.4197531" width="3.12056738" height="6.58024691"></rect>
                    <rect id="Rectangle-path" fill="#EBCC98" x="67.5602837" y="32.4197531" width="3.12056738" height="6.58024691"></rect>
                    <rect id="Rectangle-path" fill="#EBCC98" x="17.0070922" y="32.4197531" width="3.12056738" height="6.58024691"></rect>
                    <rect id="Rectangle-path" fill="#EBCC98" x="54.9219858" y="32.4197531" width="3.12056738" height="6.58024691"></rect>
                    <path d="M86.4285015,6.58024691 L1.57149851,6.58024691 C0.703685273,6.58024691 0,5.84360065 0,4.9351386 L0,1.64510832 C0,0.736646259 0.703685273,0 1.57149851,0 L86.4285015,0 C87.2963147,0 88,0.736646259 88,1.64510832 L88,4.9351386 C87.999822,5.84360065 87.2963147,6.58024691 86.4285015,6.58024691 L86.4285015,6.58024691 Z" id="Shape" fill="#EBCC98"></path>
                    <polygon id="Rectangle-path" fill="#E1BE8C" points="48.5248227 0 51.6453901 0 51.6453901 6.58024691 48.5248227 6.58024691"></polygon>
                    <rect id="Rectangle-path" fill="#E1BE8C" x="36.0425532" y="0" width="3.12056738" height="6.58024691"></rect>
                    <rect id="Rectangle-path" fill="#E1BE8C" x="10.9219858" y="0" width="3.12056738" height="6.58024691"></rect>
                    <polygon id="Rectangle-path" fill="#E1BE8C" points="73.9574468 0 77.0780142 0 77.0780142 6.58024691 73.9574468 6.58024691"></polygon>
                    <rect id="Rectangle-path" fill="#E1BE8C" x="23.5602837" y="0" width="3.12056738" height="6.58024691"></rect>
                    <polygon id="Rectangle-path" fill="#E1BE8C" points="61.3191489 0 64.4397163 0 64.4397163 6.58024691 61.3191489 6.58024691"></polygon>
                    <path d="M83.3040776,19.4197531 L4.53989406,19.4197531 C3.66995116,19.4197531 2.96453901,18.6831068 2.96453901,17.7746448 L2.96453901,14.4846145 C2.96453901,13.5761524 3.66995116,12.8395062 4.53989406,12.8395062 L83.3040776,12.8395062 C84.1740205,12.8395062 84.8794326,13.5761524 84.8794326,14.4846145 L84.8794326,17.7746448 C84.8792542,18.6831068 84.1740205,19.4197531 83.3040776,19.4197531 L83.3040776,19.4197531 Z" id="Shape" fill="#EBCC98"></path>
                    <polygon id="Rectangle-path" fill="#E1BE8C" points="48.5248227 12.8395062 51.6453901 12.8395062 51.6453901 19.4197531 48.5248227 19.4197531"></polygon>
                    <rect id="Rectangle-path" fill="#E1BE8C" x="36.0425532" y="12.8395062" width="3.12056738" height="6.58024691"></rect>
                    <rect id="Rectangle-path" fill="#E1BE8C" x="10.9219858" y="12.8395062" width="3.12056738" height="6.58024691"></rect>
                    <polygon id="Rectangle-path" fill="#E1BE8C" points="73.9574468 12.8395062 77.0780142 12.8395062 77.0780142 19.4197531 73.9574468 19.4197531"></polygon>
                    <rect id="Rectangle-path" fill="#E1BE8C" x="23.5602837" y="12.8395062" width="3.12056738" height="6.58024691"></rect>
                    <polygon id="Rectangle-path" fill="#E1BE8C" points="61.3191489 12.8395062 64.4397163 12.8395062 64.4397163 19.4197531 61.3191489 19.4197531"></polygon>
                    <path d="M80.0293021,32.4197531 L7.65846298,32.4197531 C6.78962367,32.4197531 6.08510638,31.6831068 6.08510638,30.7746448 L6.08510638,27.4846145 C6.08510638,26.5761524 6.78962367,25.8395062 7.65846298,25.8395062 L80.0294803,25.8395062 C80.8983196,25.8395062 81.6028369,26.5761524 81.6028369,27.4846145 L81.6028369,30.7746448 C81.6026587,31.6832932 80.8983196,32.4197531 80.0293021,32.4197531 L80.0293021,32.4197531 Z" id="Shape" fill="#EBCC98"></path>
                    <polygon id="Rectangle-path" fill="#E1BE8C" points="48.5248227 25.8395062 51.6453901 25.8395062 51.6453901 32.4197531 48.5248227 32.4197531"></polygon>
                    <rect id="Rectangle-path" fill="#E1BE8C" x="36.0425532" y="25.8395062" width="3.12056738" height="6.58024691"></rect>
                    <rect id="Rectangle-path" fill="#E1BE8C" x="10.9219858" y="25.8395062" width="3.12056738" height="6.58024691"></rect>
                    <polygon id="Rectangle-path" fill="#E1BE8C" points="73.9574468 25.8395062 77.0780142 25.8395062 77.0780142 32.4197531 73.9574468 32.4197531"></polygon>
                    <rect id="Rectangle-path" fill="#E1BE8C" x="23.5602837" y="25.8395062" width="3.12056738" height="6.58024691"></rect>
                    <polygon id="Rectangle-path" fill="#E1BE8C" points="61.3191489 25.8395062 64.4397163 25.8395062 64.4397163 32.4197531 61.3191489 32.4197531"></polygon>
                </g>
            </g>
        </g>
    </g>
</svg>