<?xml version="1.0" encoding="UTF-8"?>
<svg width="169px" height="209px" viewBox="0 0 169 209" version="1.1" xmlns="http://www.w3.org/2000/svg" xmlns:xlink="http://www.w3.org/1999/xlink">
    <!-- Generator: Sketch 61.2 (89653) - https://sketch.com -->
    <title>balloons</title>
    <desc>Created with Sketch.</desc>
    <g id="Page-1" stroke="none" stroke-width="1" fill="none" fill-rule="evenodd">
        <g id="Balloons" transform="translate(-1449.000000, -1076.000000)">
            <g id="balloons" transform="translate(1449.000000, 1076.000000)">
                <g id="Asset-2" transform="translate(84.500000, 96.500000) scale(-1, 1) translate(-84.500000, -96.500000) " fill-rule="nonzero">
                    <g id="Group-5" transform="translate(44.000000, 0.000000)">
                        <path d="M47.1770995,157.084261 C44.9081041,168.521571 42.4328364,181.033395 43.9076834,192.681653 C44.3713789,192.704953 44.8200329,192.797531 45.2175126,192.951929 C43.6601566,181.270711 46.1560516,168.67319 48.4353606,157.163366 C51.3438001,142.515699 53.8500087,129.86544 48.0537568,121.862619 C36.0177676,105.27028 40.3597997,88.2494527 40.4010542,88.0516894 L39.1531067,87.9132551 C39.1531067,88.091242 34.6873112,105.375753 46.8986319,122.225185 C52.5401795,130.017059 50.0545982,142.561843 47.1770995,157.084261 Z" id="Path" fill="#C5CFD6"></path>
                        <path d="M46.5941588,95.4036698 C45.0119051,96.5257707 42.2027236,96.9964741 39.4733903,96.9834059 C38.9916874,96.982049 38.5132163,96.9654591 38.0447194,96.9346398 C38.0541013,96.9344198 38.0634814,96.9341824 38.0728598,96.9339279 C35.8702048,96.7892827 33.876456,96.3330826 32.8317115,95.6605127 C30.0910354,93.8961616 35.8474741,92.4377673 37.5794999,90.5612319 C39.3115257,88.6846966 36.5606612,87.6648405 36.5606612,87.6648405 C36.5606612,87.6648405 36.6521772,87.6622231 36.8138537,87.6578334 C37.4826734,87.6383768 39.7395108,87.5740541 41.4017875,87.5653671 L42.3548114,87.5655391 C42.9888336,87.5702349 43.3740858,87.5898929 43.2646199,87.6342448 L43.2752975,87.6288089 C43.2976129,87.6391503 43.2960809,87.6509432 43.2675929,87.6643301 C42.3224145,88.0853095 41.4512149,89.2140206 41.6014007,90.2650113 C41.6964537,90.800858 42.0653424,91.3173521 42.8367076,91.7136694 C43.9054578,92.2627793 45.0839569,92.7415797 45.9738508,93.1990223 C47.0010527,93.7191412 47.6438251,94.2192246 47.2891038,94.7780408 C47.1467243,94.9468781 46.9811159,95.1050911 46.7949385,95.2529922 C46.7774266,95.266455 46.760098,95.2801057 46.7425973,95.2936672 C46.7049579,95.3228148 46.6663604,95.3514541 46.6269795,95.3796889 Z" id="Combined-Shape" fill="#138B77"></path>
                        <path d="M79.2857143,34.9036402 C79.2857143,63.1631105 55.8574832,88.2621172 39.5904659,88.2621172 C23.3234486,88.2621172 -2.48689958e-13,62.7321382 -2.48689958e-13,34.9652077 C-0.0192767718,15.6714657 17.7137914,0.0170152476 39.6079323,1.49213975e-13 C61.5020731,-0.0169875287 79.2664211,15.6098982 79.2857143,34.9036402 Z" id="Path" fill="#138B77"></path>
                        <path d="M22.8473284,39.575854 C23.2268892,27.0230862 20.0138626,12.7060503 6.02307352,9.74207982 C5.59894719,9.64951389 5.18003724,9.91807641 5.08741195,10.341931 C4.99478666,10.7657856 5.26352134,11.1844271 5.68764766,11.2769931 C17.5864386,15.0348842 18.1513664,29.6077391 19.4842428,39.7346382 C19.575471,40.6246058 20.346783,41.2881528 21.2409844,41.2459342 C22.1351858,41.2037155 22.8404645,40.4704529 22.8473284,39.575854 L22.8473284,39.575854 Z" id="Path" fill-opacity="0.2" fill="#FFFFFF" transform="translate(13.972784, 25.485834) scale(-1, 1) translate(-13.972784, -25.485834) "></path>
                        <path d="M40.7473507,91.0378157 L40.4938483,91.0378157 C39.7840419,91.0378157 37.4518206,90.8544259 37.3199994,90.2366916 C37.2490187,89.8699119 37.8371441,89.7058262 38.0298059,89.6575657 L38.1312068,89.6575657 L38.2326077,89.6575657 C39.0298769,89.7904152 39.8367089,89.864634 40.6459497,89.879564 C40.9194461,89.896415 41.1938009,89.896415 41.4672972,89.879564 L41.5585581,89.879564 C41.8849387,89.8788953 42.1557024,90.1197279 42.1771037,90.4297335 C42.1643818,90.654897 42.0132858,90.8517093 41.7917802,90.9316426 C41.456267,91.0405387 41.0994566,91.0768108 40.7473507,91.0378157 L40.7473507,91.0378157 Z M38.1717671,90.1884311 C38.9464584,90.3845832 39.7430825,90.491521 40.5445488,90.5069503 C41.223935,90.5069503 41.4672972,90.4200814 41.4875774,90.371821 L41.4875774,90.371821 C41.2107071,90.3889542 40.9329601,90.3889542 40.6560898,90.371821 C39.8238487,90.3718049 38.9929925,90.307244 38.1717671,90.178779 L38.1717671,90.1884311 Z" id="Shape" fill="#9B9B9B"></path>
                    </g>
                    <path d="M76.5313112,192.705158 C75.6888351,186.642448 73.2023159,180.707739 69.1736469,175.144223 C61.6658263,164.751133 49.6157741,156.234654 38.8983602,149.061069 C23.9390275,139.058223 23.6856386,124.498716 23.6856386,124.355244 L22.5313112,124.355244 C22.5313112,124.504455 22.7753153,139.333689 38.0443456,149.543134 C56.4948148,161.875961 73.0120202,174.656419 75.4708315,192.951929 C75.7861627,192.818061 76.1502171,192.733346 76.5313112,192.705158 L76.5313112,192.705158 Z" id="Path" fill="#C5CFD6"></path>
                    <path d="M139.564897,135.073476 L138.303812,135.149709 C138.303812,135.302175 140.805478,150.79507 120.310271,167.812625 C105.32078,180.250335 101.52727,186.841559 101.465753,192.858104 C101.899861,192.83348 102.338077,192.865562 102.747345,192.951929 C102.747345,187.023346 106.520349,180.537675 121.356049,168.223111 C142.107574,150.988585 139.595655,135.231806 139.564897,135.073476 Z" id="Path" fill="#C5CFD6"></path>
                    <g id="Group-6" transform="translate(0.000000, 72.000000)">
                        <path d="M27.7382397,68.7247016 C25.739658,68.7483783 23.7628273,68.4008904 22.8372764,67.801609 C20.9030587,66.5492299 24.9140153,65.5004897 26.1763469,64.197201 C26.3737026,63.993442 26.4929254,63.80362 26.5536223,63.6283577 L26.5226058,63.552569 C26.7258889,62.6589596 25.4452055,62.1659338 25.4452055,62.1659338 C25.4452055,62.1659338 25.467605,62.1652451 25.5093086,62.1640058 C25.5068553,62.1617198 25.5044607,62.1608123 25.5044607,62.1608123 C25.5044607,62.1608123 26.4942276,62.132643 27.5642737,62.1138714 C27.5737114,62.1139311 27.5830701,62.1137584 27.592433,62.1135866 L27.5642737,62.1138714 C27.6573286,62.112239 27.7509906,62.1106776 27.8446616,62.109212 C27.9068008,62.1081723 27.9688838,62.1071989 28.030742,62.1062813 C28.0608245,62.1060038 28.0908759,62.1055878 28.1208671,62.1051842 C28.2187992,62.1036128 28.3156937,62.1023966 28.4111136,62.1013612 C28.4762534,62.1009724 28.540734,62.1003518 28.6043827,62.0998145 C28.692554,62.0987684 28.7793497,62.0982142 28.8637823,62.0978695 L29.2982905,62.0978625 C29.8899495,62.1005995 30.2789244,62.1176161 30.1771235,62.1608123 C29.1794743,62.6291817 28.263266,64.2481107 29.8819008,65.0524842 C31.3491469,65.7816259 33.117529,66.3267066 33.0866863,66.9683309 C33.0898008,67.0307614 33.0742586,67.0938798 33.0378285,67.1578207 C32.1611702,68.2124705 30.0294593,68.6849536 27.8989731,68.7232869 Z" id="Combined-Shape" fill="#B52705"></path>
                        <path d="M57.7969377,24.7223011 C57.7969377,44.6956565 40.7468411,62.4463201 28.8984689,62.4463201 C17.0500966,62.4463201 1.8189894e-12,44.376659 1.8189894e-12,24.7223011 C1.8189894e-12,11.0685512 12.9517626,4.54747351e-13 28.9285714,4.54747351e-13 C44.9053803,4.54747351e-13 57.8571429,11.0685512 57.8571429,24.7223011 L57.7969377,24.7223011 Z" id="Path" fill="#B52705" transform="translate(28.928571, 31.223160) scale(-1, 1) translate(-28.928571, -31.223160) "></path>
                        <path d="M16.0339709,27.6648826 C16.2870115,19.2339191 14.1449937,9.61799948 4.817801,7.62727305 C4.53505012,7.5651019 4.25577682,7.74547971 4.19402663,8.03015816 C4.13227643,8.31483661 4.31143288,8.59601378 4.59418377,8.65818495 C12.5267111,11.1821417 12.9033296,20.96988 13.7919139,27.7715287 C13.8527327,28.3692681 14.3669407,28.814934 14.9630749,28.7865782 C15.5592092,28.7582224 16.029395,28.2657326 16.0339709,27.6648826 L16.0339709,27.6648826 Z" id="Path" fill-opacity="0.2" fill="#FFFFFF" transform="translate(10.117608, 18.201436) scale(-1, 1) translate(-10.117608, -18.201436) "></path>
                        <path d="M28.6623559,64.8806295 L28.4177363,64.8806295 C27.7476913,64.8806295 25.5673862,64.6541184 25.4503942,63.8775089 C25.3865804,63.4137004 25.9289978,63.2087618 26.1098036,63.1440443 L26.2055243,63.1440443 L26.301245,63.1440443 C27.0309481,63.3166746 27.7753166,63.4178107 28.5240926,63.4460591 C28.7843197,63.4491722 29.0442604,63.4275047 29.3004939,63.3813417 L29.3749434,63.3813417 C29.7207324,63.4154865 29.9786249,63.7198292 29.9599033,64.0716613 C29.9581623,64.3335386 29.8208351,64.5752162 29.5982917,64.7080496 C29.3077586,64.8513373 28.9840279,64.9110309 28.6623559,64.8806295 Z M26.2374312,63.8020052 C26.9553079,64.0454672 27.7038442,64.1834919 28.4602788,64.2118824 C29.0984169,64.2118824 29.3111296,64.0932337 29.3324008,64.0393025 C29.0706188,64.063966 28.807146,64.063966 28.5453639,64.0393025 C27.7726173,64.027805 27.0029734,63.9374644 26.2480668,63.7696464 L26.2374312,63.8020052 Z" id="Shape" fill="#9B9B9B"></path>
                    </g>
                    <g id="Group-6" transform="translate(111.000000, 72.000000)">
                        <path d="M27.7382397,68.7247016 C25.739658,68.7483783 23.7628273,68.4008904 22.8372764,67.801609 C20.9030587,66.5492299 24.9140153,65.5004897 26.1763469,64.197201 C26.3737026,63.993442 26.4929254,63.80362 26.5536223,63.6283577 L26.5226058,63.552569 C26.7258889,62.6589596 25.4452055,62.1659338 25.4452055,62.1659338 C25.4452055,62.1659338 25.467605,62.1652451 25.5093086,62.1640058 C25.5068553,62.1617198 25.5044607,62.1608123 25.5044607,62.1608123 C25.5044607,62.1608123 26.4942276,62.132643 27.5642737,62.1138714 C27.5737114,62.1139311 27.5830701,62.1137584 27.592433,62.1135866 L27.5642737,62.1138714 C27.6573286,62.112239 27.7509906,62.1106776 27.8446616,62.109212 C27.9068008,62.1081723 27.9688838,62.1071989 28.030742,62.1062813 C28.0608245,62.1060038 28.0908759,62.1055878 28.1208671,62.1051842 C28.2187992,62.1036128 28.3156937,62.1023966 28.4111136,62.1013612 C28.4762534,62.1009724 28.540734,62.1003518 28.6043827,62.0998145 C28.692554,62.0987684 28.7793497,62.0982142 28.8637823,62.0978695 L29.2982905,62.0978625 C29.8899495,62.1005995 30.2789244,62.1176161 30.1771235,62.1608123 C29.1794743,62.6291817 28.263266,64.2481107 29.8819008,65.0524842 C31.3491469,65.7816259 33.117529,66.3267066 33.0866863,66.9683309 C33.0898008,67.0307614 33.0742586,67.0938798 33.0378285,67.1578207 C32.1611702,68.2124705 30.0294593,68.6849536 27.8989731,68.7232869 Z" id="Combined-Shape" fill="#CC7C1B"></path>
                        <path d="M57.7969377,24.7223011 C57.7969377,44.6956565 40.7468411,62.4463201 28.8984689,62.4463201 C17.0500966,62.4463201 1.8189894e-12,44.376659 1.8189894e-12,24.7223011 C1.8189894e-12,11.0685512 12.9517626,4.54747351e-13 28.9285714,4.54747351e-13 C44.9053803,4.54747351e-13 57.8571429,11.0685512 57.8571429,24.7223011 L57.7969377,24.7223011 Z" id="Path" fill="#CC7C1B" transform="translate(28.928571, 31.223160) scale(-1, 1) translate(-28.928571, -31.223160) "></path>
                        <path d="M16.0339709,27.6648826 C16.2870115,19.2339191 14.1449937,9.61799948 4.817801,7.62727305 C4.53505012,7.5651019 4.25577682,7.74547971 4.19402663,8.03015816 C4.13227643,8.31483661 4.31143288,8.59601378 4.59418377,8.65818495 C12.5267111,11.1821417 12.9033296,20.96988 13.7919139,27.7715287 C13.8527327,28.3692681 14.3669407,28.814934 14.9630749,28.7865782 C15.5592092,28.7582224 16.029395,28.2657326 16.0339709,27.6648826 L16.0339709,27.6648826 Z" id="Path" fill-opacity="0.2" fill="#FFFFFF" transform="translate(10.117608, 18.201436) scale(-1, 1) translate(-10.117608, -18.201436) "></path>
                        <path d="M28.6623559,64.8806295 L28.4177363,64.8806295 C27.7476913,64.8806295 25.5673862,64.6541184 25.4503942,63.8775089 C25.3865804,63.4137004 25.9289978,63.2087618 26.1098036,63.1440443 L26.2055243,63.1440443 L26.301245,63.1440443 C27.0309481,63.3166746 27.7753166,63.4178107 28.5240926,63.4460591 C28.7843197,63.4491722 29.0442604,63.4275047 29.3004939,63.3813417 L29.3749434,63.3813417 C29.7207324,63.4154865 29.9786249,63.7198292 29.9599033,64.0716613 C29.9581623,64.3335386 29.8208351,64.5752162 29.5982917,64.7080496 C29.3077586,64.8513373 28.9840279,64.9110309 28.6623559,64.8806295 Z M26.2374312,63.8020052 C26.9553079,64.0454672 27.7038442,64.1834919 28.4602788,64.2118824 C29.0984169,64.2118824 29.3111296,64.0932337 29.3324008,64.0393025 C29.0706188,64.063966 28.807146,64.063966 28.5453639,64.0393025 C27.7726173,64.027805 27.0029734,63.9374644 26.2480668,63.7696464 L26.2374312,63.8020052 Z" id="Shape" fill="#9B9B9B"></path>
                    </g>
                </g>
                <g id="basket" transform="translate(29.000000, 170.000000)">
                    <path d="M84.8678024,12.8395062 L3.13219758,12.8395062 C2.26415496,12.8395062 1.56028369,12.1028599 1.56028369,11.1943979 L1.56028369,7.90436758 C1.56028369,6.99590552 2.26415496,6.25925926 3.13219758,6.25925926 L84.8678024,6.25925926 C85.735845,6.25925926 86.4397163,6.99590552 86.4397163,7.90436758 L86.4397163,11.1943979 C86.4397163,12.1030463 85.735845,12.8395062 84.8678024,12.8395062 L84.8678024,12.8395062 Z" id="Shape" fill="#FFDCA0"></path>
                    <rect id="Rectangle-path" fill="#EBCC98" x="42.4397163" y="6.25925926" width="3.12056738" height="6.58024691"></rect>
                    <rect id="Rectangle-path" fill="#EBCC98" x="29.6453901" y="6.25925926" width="3.12056738" height="6.58024691"></rect>
                    <rect id="Rectangle-path" fill="#EBCC98" x="4.5248227" y="6.25925926" width="3.12056738" height="6.58024691"></rect>
                    <rect id="Rectangle-path" fill="#EBCC98" x="67.5602837" y="6.25925926" width="3.12056738" height="6.58024691"></rect>
                    <rect id="Rectangle-path" fill="#EBCC98" x="80.0425532" y="6.25925926" width="3.12056738" height="6.58024691"></rect>
                    <rect id="Rectangle-path" fill="#EBCC98" x="17.0070922" y="6.25925926" width="3.12056738" height="6.58024691"></rect>
                    <rect id="Rectangle-path" fill="#EBCC98" x="54.9219858" y="6.25925926" width="3.12056738" height="6.58024691"></rect>
                    <path d="M81.743191,26.1604938 L6.10078063,26.1604938 C5.23050481,26.1604938 4.5248227,25.4238476 4.5248227,24.5153855 L4.5248227,21.2253552 C4.5248227,20.3168932 5.23050481,19.5802469 6.10078063,19.5802469 L81.743191,19.5802469 C82.6134668,19.5802469 83.3191489,20.3168932 83.3191489,21.2253552 L83.3191489,24.5153855 C83.3191489,25.4238476 82.6134668,26.1604938 81.743191,26.1604938 L81.743191,26.1604938 Z" id="Shape" fill="#FFDCA0"></path>
                    <rect id="Rectangle-path" fill="#EBCC98" x="42.4397163" y="19.5802469" width="3.12056738" height="6.58024691"></rect>
                    <rect id="Rectangle-path" fill="#EBCC98" x="29.6453901" y="19.5802469" width="3.12056738" height="6.58024691"></rect>
                    <path d="M7.64539007,26.1604938 L4.71978083,26.1604938 C4.61213849,26.1604938 4.5248227,26.0684311 4.5248227,25.9549368 L4.5248227,19.7858039 C4.5248227,19.6723096 4.61213849,19.5802469 4.71978083,19.5802469 L7.64539007,19.5802469 L7.64539007,26.1604938 L7.64539007,26.1604938 Z" id="Shape" fill="#EBCC98"></path>
                    <rect id="Rectangle-path" fill="#EBCC98" x="67.5602837" y="19.5802469" width="3.12056738" height="6.58024691"></rect>
                    <path d="M82.9681622,26.1604938 L80.0425532,26.1604938 L80.0425532,19.5802469 L82.9681622,19.5802469 C83.0758045,19.5802469 83.1631203,19.672307 83.1631203,19.7857981 L83.1631203,25.9547563 C83.1632971,26.0684337 83.0758045,26.1604938 82.9681622,26.1604938 L82.9681622,26.1604938 Z" id="Shape" fill="#EBCC98"></path>
                    <rect id="Rectangle-path" fill="#EBCC98" x="17.0070922" y="19.5802469" width="3.12056738" height="6.58024691"></rect>
                    <rect id="Rectangle-path" fill="#EBCC98" x="54.9219858" y="19.5802469" width="3.12056738" height="6.58024691"></rect>
                    <path d="M78.4686321,39 L9.21931121,39 C8.35016015,39 7.64539007,38.2633537 7.64539007,37.3548917 L7.64539007,34.0648614 C7.64539007,33.1563993 8.35016015,32.4197531 9.21931121,32.4197531 L78.4686321,32.4197531 C79.3377831,32.4197531 80.0425532,33.1563993 80.0425532,34.0648614 L80.0425532,37.3548917 C80.0423749,38.2633537 79.3377831,39 78.4686321,39 L78.4686321,39 Z" id="Shape" fill="#FFDCA0"></path>
                    <rect id="Rectangle-path" fill="#EBCC98" x="42.4397163" y="32.4197531" width="3.12056738" height="6.58024691"></rect>
                    <rect id="Rectangle-path" fill="#EBCC98" x="29.6453901" y="32.4197531" width="3.12056738" height="6.58024691"></rect>
                    <rect id="Rectangle-path" fill="#EBCC98" x="67.5602837" y="32.4197531" width="3.12056738" height="6.58024691"></rect>
                    <rect id="Rectangle-path" fill="#EBCC98" x="17.0070922" y="32.4197531" width="3.12056738" height="6.58024691"></rect>
                    <rect id="Rectangle-path" fill="#EBCC98" x="54.9219858" y="32.4197531" width="3.12056738" height="6.58024691"></rect>
                    <path d="M86.4285015,6.58024691 L1.57149851,6.58024691 C0.703685273,6.58024691 0,5.84360065 0,4.9351386 L0,1.64510832 C0,0.736646259 0.703685273,0 1.57149851,0 L86.4285015,0 C87.2963147,0 88,0.736646259 88,1.64510832 L88,4.9351386 C87.999822,5.84360065 87.2963147,6.58024691 86.4285015,6.58024691 L86.4285015,6.58024691 Z" id="Shape" fill="#EBCC98"></path>
                    <polygon id="Rectangle-path" fill="#E1BE8C" points="48.5248227 0 51.6453901 0 51.6453901 6.58024691 48.5248227 6.58024691"></polygon>
                    <rect id="Rectangle-path" fill="#E1BE8C" x="36.0425532" y="0" width="3.12056738" height="6.58024691"></rect>
                    <rect id="Rectangle-path" fill="#E1BE8C" x="10.9219858" y="0" width="3.12056738" height="6.58024691"></rect>
                    <polygon id="Rectangle-path" fill="#E1BE8C" points="73.9574468 0 77.0780142 0 77.0780142 6.58024691 73.9574468 6.58024691"></polygon>
                    <rect id="Rectangle-path" fill="#E1BE8C" x="23.5602837" y="0" width="3.12056738" height="6.58024691"></rect>
                    <polygon id="Rectangle-path" fill="#E1BE8C" points="61.3191489 0 64.4397163 0 64.4397163 6.58024691 61.3191489 6.58024691"></polygon>
                    <path d="M83.3040776,19.4197531 L4.53989406,19.4197531 C3.66995116,19.4197531 2.96453901,18.6831068 2.96453901,17.7746448 L2.96453901,14.4846145 C2.96453901,13.5761524 3.66995116,12.8395062 4.53989406,12.8395062 L83.3040776,12.8395062 C84.1740205,12.8395062 84.8794326,13.5761524 84.8794326,14.4846145 L84.8794326,17.7746448 C84.8792542,18.6831068 84.1740205,19.4197531 83.3040776,19.4197531 L83.3040776,19.4197531 Z" id="Shape" fill="#EBCC98"></path>
                    <polygon id="Rectangle-path" fill="#E1BE8C" points="48.5248227 12.8395062 51.6453901 12.8395062 51.6453901 19.4197531 48.5248227 19.4197531"></polygon>
                    <rect id="Rectangle-path" fill="#E1BE8C" x="36.0425532" y="12.8395062" width="3.12056738" height="6.58024691"></rect>
                    <rect id="Rectangle-path" fill="#E1BE8C" x="10.9219858" y="12.8395062" width="3.12056738" height="6.58024691"></rect>
                    <polygon id="Rectangle-path" fill="#E1BE8C" points="73.9574468 12.8395062 77.0780142 12.8395062 77.0780142 19.4197531 73.9574468 19.4197531"></polygon>
                    <rect id="Rectangle-path" fill="#E1BE8C" x="23.5602837" y="12.8395062" width="3.12056738" height="6.58024691"></rect>
                    <polygon id="Rectangle-path" fill="#E1BE8C" points="61.3191489 12.8395062 64.4397163 12.8395062 64.4397163 19.4197531 61.3191489 19.4197531"></polygon>
                    <path d="M80.0293021,32.4197531 L7.65846298,32.4197531 C6.78962367,32.4197531 6.08510638,31.6831068 6.08510638,30.7746448 L6.08510638,27.4846145 C6.08510638,26.5761524 6.78962367,25.8395062 7.65846298,25.8395062 L80.0294803,25.8395062 C80.8983196,25.8395062 81.6028369,26.5761524 81.6028369,27.4846145 L81.6028369,30.7746448 C81.6026587,31.6832932 80.8983196,32.4197531 80.0293021,32.4197531 L80.0293021,32.4197531 Z" id="Shape" fill="#EBCC98"></path>
                    <polygon id="Rectangle-path" fill="#E1BE8C" points="48.5248227 25.8395062 51.6453901 25.8395062 51.6453901 32.4197531 48.5248227 32.4197531"></polygon>
                    <rect id="Rectangle-path" fill="#E1BE8C" x="36.0425532" y="25.8395062" width="3.12056738" height="6.58024691"></rect>
                    <rect id="Rectangle-path" fill="#E1BE8C" x="10.9219858" y="25.8395062" width="3.12056738" height="6.58024691"></rect>
                    <polygon id="Rectangle-path" fill="#E1BE8C" points="73.9574468 25.8395062 77.0780142 25.8395062 77.0780142 32.4197531 73.9574468 32.4197531"></polygon>
                    <rect id="Rectangle-path" fill="#E1BE8C" x="23.5602837" y="25.8395062" width="3.12056738" height="6.58024691"></rect>
                    <polygon id="Rectangle-path" fill="#E1BE8C" points="61.3191489 25.8395062 64.4397163 25.8395062 64.4397163 32.4197531 61.3191489 32.4197531"></polygon>
                </g>
            </g>
        </g>
    </g>
</svg>