<svg xmlns="http://www.w3.org/2000/svg" viewBox="0 0 52 64"><defs><style>.cls-1{fill:none;stroke:#fff;stroke-linejoin:round;stroke-width:1px;}</style></defs><title>Asset 22</title><g id="Layer_2" data-name="Layer 2"><g id="Layer_1-2" data-name="Layer 1"><path class="cls-1" d="M44,13h1A6,6,0,0,0,45,1"/><line class="cls-1" x1="19" y1="13" x2="21" y2="13"/><line class="cls-1" x1="23" y1="13" x2="25" y2="13"/><line class="cls-1" x1="15" y1="13" x2="17" y2="13"/><line class="cls-1" x1="8" y1="19" x2="31" y2="19"/><line class="cls-1" x1="8" y1="23" x2="31" y2="23"/><line class="cls-1" x1="8" y1="27" x2="31" y2="27"/><line class="cls-1" x1="8" y1="31" x2="31" y2="31"/><line class="cls-1" x1="8" y1="35" x2="31" y2="35"/><path class="cls-1" d="M27,57H39V7a6,6,0,0,1,6-6H7A6,6,0,0,0,1,7V57H13"/><polyline class="cls-1" points="24 52 24 63 20 59 16 63 16 52"/><circle class="cls-1" cx="20" cy="47" r="6"/><line class="cls-1" x1="8" y1="47" x2="10" y2="47"/><line class="cls-1" x1="29" y1="47" x2="31" y2="47"/><line class="cls-1" x1="43" y1="12" x2="43" y2="47"/></g></g></svg>
