<?xml version="1.0" encoding="UTF-8"?>
<svg width="149px" height="93px" viewBox="0 0 149 93" version="1.1" xmlns="http://www.w3.org/2000/svg" xmlns:xlink="http://www.w3.org/1999/xlink">
    <!-- Generator: Sketch 61.2 (89653) - https://sketch.com -->
    <title>Asset 35</title>
    <desc>Created with Sketch.</desc>
    <g id="Page-1" stroke="none" stroke-width="1" fill="none" fill-rule="evenodd">
        <g id="UI---DESIGN-LANGUAGE" transform="translate(-10594.000000, -386.000000)" stroke="#1F2C5B" stroke-width="3.6">
            <g id="Asset-35" transform="translate(10596.000000, 388.000000)">
                <polygon id="Path" points="134.993216 88.236 9.35179331 88.236 0.0492401216 79.416 0.0492401216 75.006 55.8835441 75.006 60.5348207 79.416 83.8101884 79.416 88.461465 75.006 144.295769 75.006 144.295769 79.416"></polygon>
                <path d="M130.341939,68.4 L130.341939,6.624 C130.341939,3.00052672 127.271821,0.0492319587 123.450456,0 L20.9325228,0 C17.0962972,0.0296523014 14.0030699,2.98665079 14.0030699,6.624 L14.0030699,68.4" id="Path"></path>
                <line x1="14.0030699" y1="61.758" x2="130.341939" y2="61.758" id="Path"></line>
                <path d="M83.8101884,19.8 C83.8101884,27.522 79.2348511,34.2 72.1725046,34.2 C65.1101581,34.2 60.5348207,27.594 60.5348207,19.8 C60.5348207,12.006 62.8699514,7.722 72.1914894,7.722 C81.5130274,7.722 83.8101884,12.132 83.8101884,19.8 Z" id="Path" stroke-linejoin="round"></path>
                <path d="M79.1589119,31.986 L95.4288875,40.806 L95.4288875,45.216 C95.4288875,48.816 93.1127416,51.84 90.7776109,51.84 L53.5673982,51.84 C51.2322675,51.84 48.8971368,48.87 48.8971368,45.216 L48.8971368,40.806 L65.1860973,31.986" id="Path" stroke-linejoin="round"></path>
            </g>
        </g>
    </g>
</svg>