<svg xmlns="http://www.w3.org/2000/svg" viewBox="0 0 54 64"><defs><style>.cls-1,.cls-2{fill:none;stroke:#fff;stroke-width:1px;}.cls-1{stroke-linejoin:round;}.cls-2{stroke-miterlimit:10;}</style></defs><title>Asset 11</title><g id="Layer_2" data-name="Layer 2"><g id="Layer_1-2" data-name="Layer 1"><path class="cls-1" d="M38,41l4,2c6,2,11,3.92,11,10V64"/><path class="cls-1" d="M16,41l-4,2C6,45,1,46.92,1,53V64"/><line class="cls-1" x1="11" y1="56" x2="11" y2="64"/><line class="cls-1" x1="43" y1="56" x2="43" y2="64"/><line class="cls-1" x1="21" y1="37" x2="21" y2="32"/><line class="cls-1" x1="33" y1="37" x2="33" y2="32"/><polygon class="cls-1" points="27 39 35 37 40 41 31 46 27 42 23 46 14 41 19 37 27 39"/><line class="cls-1" x1="27" y1="50" x2="27" y2="64"/><polygon class="cls-1" points="45 7 27 13 9 7 27 1 45 7"/><path class="cls-2" d="M38,13c0,2.21-4.92,4-11,4s-11-1.79-11-4v8l1,1c0,5,3,12,10,12s10-7,10-12l1-1Z"/><line class="cls-1" x1="45" y1="7" x2="45" y2="18"/><line class="cls-1" x1="45" y1="20" x2="45" y2="22"/><line class="cls-1" x1="27" y1="46" x2="27" y2="48"/></g></g></svg>
