<svg xmlns="http://www.w3.org/2000/svg" viewBox="0 0 64 56"><defs><style>.cls-1{fill:none;stroke:#fff;stroke-miterlimit:10;stroke-width:2px;}</style></defs><title>Asset 23</title><g id="Layer_2" data-name="Layer 2"><g id="Layer_1-2" data-name="Layer 1"><line class="cls-1" x1="55" y1="1" x2="55" y2="45"/><line class="cls-1" x1="9" y1="1" x2="9" y2="45"/><rect class="cls-1" x="1" y="1" width="62" height="44" rx="5"/><line class="cls-1" x1="59" y1="21" x2="59" y2="25"/><line class="cls-1" x1="5" y1="18" x2="5" y2="28"/><path class="cls-1" d="M23,31V19a3,3,0,0,1,3-3h1a3,3,0,0,1,3,3V31"/><line class="cls-1" x1="23" y1="24" x2="30" y2="24"/><line class="cls-1" x1="38" y1="19" x2="38" y2="29"/><line class="cls-1" x1="43" y1="24" x2="33" y2="24"/><line class="cls-1" x1="12" y1="5" x2="52" y2="5"/><line class="cls-1" x1="52" y1="41" x2="12" y2="41"/><polyline class="cls-1" points="57 50 63 50 63 54 57 54"/><line class="cls-1" x1="2" y1="52" y2="52"/><polygon class="cls-1" points="57 55 57 49 7 49 2 52 2 52 7 55 57 55"/><line class="cls-1" x1="9" y1="49" x2="9" y2="55"/><line class="cls-1" x1="27" y1="49" x2="27" y2="55"/><line class="cls-1" x1="13" y1="52" x2="15" y2="52"/><line class="cls-1" x1="17" y1="52" x2="19" y2="52"/><line class="cls-1" x1="21" y1="52" x2="23" y2="52"/></g></g></svg>