<svg xmlns="http://www.w3.org/2000/svg" viewBox="0 0 40 64"><defs><style>.cls-1{fill:none;stroke:#fff;stroke-miterlimit:10;stroke-width:1px;}</style></defs><title>Asset 18</title><g id="Layer_2" data-name="Layer 2"><g id="Layer_1-2" data-name="Layer 1"><polyline class="cls-1" points="17 23 1 23 1 1 39 1 39 23 25 23"/><line class="cls-1" x1="11" y1="55" x2="13" y2="55"/><line class="cls-1" x1="11" y1="59" x2="13" y2="59"/><path class="cls-1" d="M23,38V30c0-3,3-8,3-11,0-2-1-4-3-4-5,0-5,8-7,11s-6,10-6,14V51"/><path class="cls-1" d="M28,51V50c0-6,6-11,6-16,0-3-3-9-3-11"/><path class="cls-1" d="M13,23s-2,2-2,4,2,4,2,4"/><line class="cls-1" x1="16" y1="5" x2="36" y2="5"/><line class="cls-1" x1="16" y1="9" x2="27" y2="9"/><line class="cls-1" x1="29" y1="9" x2="36" y2="9"/><path class="cls-1" d="M8,64V52a1,1,0,0,1,1-1H29a1,1,0,0,1,1,1V64"/><rect class="cls-1" x="5" y="5" width="8" height="8" rx="1"/><line class="cls-1" x1="4" y1="17" x2="14" y2="17"/></g></g></svg>
