<svg xmlns="http://www.w3.org/2000/svg" viewBox="0 0 64 64"><defs><style>.cls-1,.cls-2{fill:none;stroke:#fff;stroke-width:2px;}.cls-1{stroke-linejoin:round;}.cls-2{stroke-miterlimit:10;}</style></defs><title>Asset 25</title><g id="Layer_2" data-name="Layer 2"><g id="Layer_1-2" data-name="Layer 1"><circle class="cls-1" cx="11" cy="8" r="4"/><line class="cls-1" x1="5" y1="43" x2="5" y2="64"/><line class="cls-1" x1="17" y1="38" x2="8" y2="38"/><line class="cls-1" x1="11" y1="41" x2="11" y2="64"/><circle class="cls-1" cx="53" cy="8" r="4"/><line class="cls-1" x1="59" y1="43" x2="59" y2="64"/><line class="cls-1" x1="47" y1="38" x2="56" y2="38"/><line class="cls-1" x1="53" y1="41" x2="53" y2="64"/><polyline class="cls-1" points="47 64 47 24 32 7 17 24 17 64"/><path class="cls-1" d="M5,22V40H1V19a3,3,0,0,1,3-3H17L32,1,47,16H60a3,3,0,0,1,3,3V40H59V22"/><line class="cls-1" x1="32" y1="1" x2="32" y2="7"/><rect class="cls-2" x="23" y="43" width="2" height="2"/><rect class="cls-2" x="31" y="43" width="2" height="2"/><rect class="cls-2" x="39" y="43" width="2" height="2"/><rect class="cls-2" x="23" y="49" width="2" height="2"/><rect class="cls-2" x="31" y="49" width="2" height="2"/><rect class="cls-2" x="39" y="49" width="2" height="2"/><rect class="cls-2" x="23" y="37" width="2" height="2"/><rect class="cls-2" x="31" y="37" width="2" height="2"/><rect class="cls-2" x="39" y="37" width="2" height="2"/><rect class="cls-2" x="23" y="31" width="2" height="2"/><rect class="cls-2" x="31" y="31" width="2" height="2"/><rect class="cls-2" x="39" y="31" width="2" height="2"/><rect class="cls-2" x="23" y="25" width="2" height="2"/><rect class="cls-2" x="31" y="25" width="2" height="2"/><rect class="cls-2" x="31" y="17" width="2" height="2"/><rect class="cls-2" x="39" y="25" width="2" height="2"/><line class="cls-1" x1="32" y1="57" x2="32" y2="64"/><polyline class="cls-2" points="23 64 23 57 41 57 41 64"/></g></g></svg>