<svg xmlns="http://www.w3.org/2000/svg" viewBox="0 0 48 64"><defs><style>.cls-1,.cls-2{fill:none;stroke:#fff;stroke-width:2px;}.cls-1{stroke-linejoin:round;}.cls-2{stroke-miterlimit:10;}</style></defs><title>Asset 9</title><g id="Layer_2" data-name="Layer 2"><g id="Layer_1-2" data-name="Layer 1"><polygon class="cls-1" points="47 46 24 63 1 46 1 1 11 6 14 1 34 1 37 6 47 1 47 46"/><polyline class="cls-1" points="5 3 5 44 24 58 43 44 43 3"/><line class="cls-1" x1="11" y1="6" x2="11" y2="11"/><line class="cls-1" x1="37" y1="6" x2="37" y2="11"/><circle class="cls-1" cx="24" cy="19" r="7"/><polyline class="cls-2" points="26 26 26 35 29 35"/><polyline class="cls-2" points="25 39 28 39 28 43 26 43 26 46 22 46 22 26"/><line class="cls-2" x1="26" y1="16" x2="22" y2="16"/><line class="cls-2" x1="10" y1="14" x2="12" y2="14"/><line class="cls-2" x1="10" y1="18" x2="12" y2="18"/><line class="cls-2" x1="10" y1="22" x2="12" y2="22"/><line class="cls-2" x1="36" y1="14" x2="38" y2="14"/><line class="cls-2" x1="36" y1="18" x2="38" y2="18"/><line class="cls-2" x1="36" y1="22" x2="38" y2="22"/></g></g></svg>