<svg xmlns="http://www.w3.org/2000/svg" viewBox="0 0 64 64"><defs><style>.cls-1,.cls-2{fill:none;stroke:#fff;stroke-width:1px;}.cls-1{stroke-miterlimit:10;}.cls-2{stroke-linejoin:round;}</style></defs><title>Asset 5</title><g id="Layer_2" data-name="Layer 2"><g id="Layer_1-2" data-name="Layer 1"><polygon class="cls-1" points="59 63 5 63 1 59 1 57 25 57 27 59 37 59 39 57 63 57 63 59 59 63"/><path class="cls-1" d="M9,23a3,3,0,0,0-3,3V57"/><path class="cls-1" d="M58,57V26a3,3,0,0,0-3-3"/><path class="cls-1" d="M28,35.5C28,39,26,42,23,42s-5-3-5-6.5S19,30,23,30,28,32,28,35.5Z"/><path class="cls-1" d="M26,41l7,4v2c0,1.66-1,3-2,3H15c-1,0-2-1.34-2-3V45l7-4"/><path class="cls-2" d="M52,21a2,2,0,0,1-2,2H46L36,33V23H14a2,2,0,0,1-2-2V3a2,2,0,0,1,2-2H50a2,2,0,0,1,2,2Z"/><line class="cls-2" x1="31" y1="12" x2="33" y2="12"/><line class="cls-2" x1="35" y1="12" x2="37" y2="12"/><line class="cls-2" x1="27" y1="12" x2="29" y2="12"/><polyline class="cls-1" points="51 35 51 50 37 50"/><line class="cls-2" x1="48" y1="38" x2="39" y2="38"/><line class="cls-2" x1="48" y1="42" x2="39" y2="42"/><line class="cls-2" x1="48" y1="46" x2="39" y2="46"/></g></g></svg>
