<svg xmlns="http://www.w3.org/2000/svg" viewBox="0 0 64 64"><defs><style>.cls-1{fill:none;stroke:#fff;stroke-miterlimit:10;stroke-width:1px;}</style></defs><title>Asset 10</title><g id="Layer_2" data-name="Layer 2"><g id="Layer_1-2" data-name="Layer 1"><polygon class="cls-1" points="59 63 5 63 1 59 1 57 25 57 27 59 37 59 39 57 63 57 63 59 59 63"/><path class="cls-1" d="M22,21H8a3,3,0,0,0-3,3V54"/><path class="cls-1" d="M59,54V24a3,3,0,0,0-3-3H42"/><line class="cls-1" x1="27" y1="51" x2="29" y2="51"/><line class="cls-1" x1="31" y1="51" x2="33" y2="51"/><line class="cls-1" x1="35" y1="51" x2="37" y2="51"/><polyline class="cls-1" points="42 25 55 25 55 51 39 51"/><polyline class="cls-1" points="25 51 9 51 9 25 22 25"/><circle class="cls-1" cx="32" cy="13" r="4"/><path class="cls-1" d="M36,48V36h3V23a2,2,0,0,0-2-2H35l-3,3-3-3H27a2,2,0,0,0-2,2V36h3V48"/><line class="cls-1" x1="41" y1="14" x2="45" y2="14"/><line class="cls-1" x1="39" y1="7" x2="42" y2="4"/><line class="cls-1" x1="23" y1="14" x2="19" y2="14"/><line class="cls-1" x1="25" y1="7" x2="22" y2="4"/><line class="cls-1" x1="32" y1="4" x2="32"/><line class="cls-1" x1="32" y1="27" x2="32" y2="29"/></g></g></svg>
