<svg xmlns="http://www.w3.org/2000/svg" viewBox="0 0 64 48"><defs><style>.cls-1{fill:none;stroke:#fff;stroke-miterlimit:10;stroke-width:2px;}</style></defs><title>Asset 6</title><g id="Layer_2" data-name="Layer 2"><g id="Layer_1-2" data-name="Layer 1"><polyline class="cls-1" points="59 8 59 1 52 1"/><polyline class="cls-1" points="59 1 38 22 30 14 13 31"/><polygon class="cls-1" points="59 47 5 47 1 43 1 41 25 41 27 43 37 43 39 41 63 41 63 43 59 47"/><path class="cls-1" d="M48,1H8A3,3,0,0,0,5,4V38"/><line class="cls-1" x1="59" y1="38" x2="59" y2="12"/><polyline class="cls-1" points="48 5 9 5 9 35 55 35 55 12"/><line class="cls-1" x1="24" y1="32" x2="24" y2="26"/><line class="cls-1" x1="20" y1="32" x2="20" y2="30"/><line class="cls-1" x1="28" y1="32" x2="28" y2="22"/><line class="cls-1" x1="32" y1="32" x2="32" y2="22"/><line class="cls-1" x1="36" y1="32" x2="36" y2="26"/><line class="cls-1" x1="40" y1="32" x2="40" y2="26"/><line class="cls-1" x1="44" y1="32" x2="44" y2="22"/><line class="cls-1" x1="48" y1="32" x2="48" y2="18"/></g></g></svg>