<svg xmlns="http://www.w3.org/2000/svg" viewBox="0 0 64 56"><defs><style>.cls-1{fill:none;stroke:#fff;stroke-linejoin:round;stroke-width:2px;}</style></defs><title>Asset 8</title><g id="Layer_2" data-name="Layer 2"><g id="Layer_1-2" data-name="Layer 1"><polygon class="cls-1" points="59 55 5 55 1 51 1 49 25 49 27 51 37 51 39 49 63 49 63 51 59 55"/><path class="cls-1" d="M15,13H8a3,3,0,0,0-3,3V46"/><path class="cls-1" d="M59,46V16a3,3,0,0,0-3-3H49"/><line class="cls-1" x1="27" y1="43" x2="29" y2="43"/><line class="cls-1" x1="23" y1="43" x2="25" y2="43"/><line class="cls-1" x1="31" y1="43" x2="33" y2="43"/><line class="cls-1" x1="35" y1="43" x2="37" y2="43"/><line class="cls-1" x1="39" y1="43" x2="41" y2="43"/><polyline class="cls-1" points="49 17 55 17 55 43 43 43"/><polyline class="cls-1" points="21 43 9 43 9 17 15 17"/><polygon class="cls-1" points="46 29 32 39 18 29 18 1 26 4 29 1 35 1 38 4 46 1 46 29"/><line class="cls-1" x1="26" y1="4" x2="26" y2="8"/><line class="cls-1" x1="38" y1="4" x2="38" y2="8"/><polyline class="cls-1" points="36 17 31 22 28 19"/><circle class="cls-1" cx="32" cy="19" r="8"/></g></g></svg>