<svg xmlns="http://www.w3.org/2000/svg" viewBox="0 0 46 64"><defs><style>.cls-1{fill:none;stroke:#fff;stroke-miterlimit:10;stroke-width:2px;}</style></defs><title>Asset 7</title><g id="Layer_2" data-name="Layer 2"><g id="Layer_1-2" data-name="Layer 1"><rect class="cls-1" x="1" y="29" width="44" height="34" rx="3"/><line class="cls-1" x1="22" y1="35" x2="24" y2="35"/><line class="cls-1" x1="26" y1="35" x2="28" y2="35"/><line class="cls-1" x1="18" y1="35" x2="20" y2="35"/><line class="cls-1" x1="8" y1="51" x2="14" y2="45"/><line class="cls-1" x1="16" y1="51" x2="22" y2="45"/><line class="cls-1" x1="24" y1="51" x2="30" y2="45"/><line class="cls-1" x1="32" y1="51" x2="38" y2="45"/><line class="cls-1" x1="6" y1="45" x2="40" y2="45"/><line class="cls-1" x1="6" y1="51" x2="40" y2="51"/><path class="cls-1" d="M39,29V17A16,16,0,0,0,7,17V29"/><path class="cls-1" d="M13,26V17a10,10,0,0,1,20,0v9"/><line class="cls-1" x1="1" y1="57" x2="45" y2="57"/></g></g></svg>