<svg xmlns="http://www.w3.org/2000/svg" viewBox="0 0 64 64"><defs><style>.cls-1,.cls-2{fill:none;stroke:#fff;stroke-width:1px;}.cls-1{stroke-linejoin:round;}.cls-2{stroke-miterlimit:10;}</style></defs><title>Asset 12</title><g id="Layer_2" data-name="Layer 2"><g id="Layer_1-2" data-name="Layer 1"><circle class="cls-1" cx="32" cy="6" r="5"/><circle class="cls-1" cx="6" cy="6" r="5"/><path class="cls-1" d="M43,29V21a6,6,0,0,0-6-6H27a6,6,0,0,0-6,6v8"/><rect class="cls-2" x="13" y="32" width="38" height="4"/><path class="cls-1" d="M13,29V22a7,7,0,0,0-7-7H4a3,3,0,0,0-3,3V41a5,5,0,0,0,5,5h7l7,17h2c4,0,4-4,4-4V39"/><circle class="cls-1" cx="58" cy="6" r="5"/><path class="cls-1" d="M51,29V22a7,7,0,0,1,7-7h2a3,3,0,0,1,3,3V41a5,5,0,0,1-5,5H51L44,63H42c-4,0-4-4-4-4V39"/><line class="cls-1" x1="32" y1="39" x2="32" y2="64"/><line class="cls-1" x1="31" y1="19" x2="33" y2="19"/><line class="cls-1" x1="31" y1="23" x2="33" y2="23"/></g></g></svg>