<svg xmlns="http://www.w3.org/2000/svg" viewBox="0 0 60 64"><defs><style>.cls-1,.cls-2{fill:none;stroke:#fff;stroke-width:2px;}.cls-1{stroke-miterlimit:10;}.cls-2{stroke-linejoin:round;}</style></defs><title>Asset 17</title><g id="Layer_2" data-name="Layer 2"><g id="Layer_1-2" data-name="Layer 1"><polyline class="cls-1" points="42 55 1 55 1 25 45 25"/><polyline class="cls-1" points="53 25 59 25 59 55 56 55"/><path class="cls-1" d="M8,43a3,3,0,0,0,6,0c0-1.66-3-3-3-3s-3-1.34-3-3a3,3,0,0,1,6,0"/><line class="cls-1" x1="11" y1="34" x2="11" y2="31"/><line class="cls-1" x1="11" y1="46" x2="11" y2="49"/><line class="cls-1" x1="20" y1="29" x2="30" y2="29"/><line class="cls-1" x1="20" y1="35" x2="42" y2="35"/><line class="cls-1" x1="20" y1="39" x2="42" y2="39"/><line class="cls-1" x1="20" y1="43" x2="42" y2="43"/><line class="cls-1" x1="20" y1="51" x2="24" y2="51"/><line class="cls-1" x1="26" y1="51" x2="34" y2="51"/><line class="cls-1" x1="4" y1="29" x2="6" y2="29"/><line class="cls-1" x1="4" y1="51" x2="6" y2="51"/><line class="cls-2" x1="45" y1="35" x2="53" y2="35"/><line class="cls-2" x1="45" y1="55" x2="53" y2="55"/><line class="cls-2" x1="49" y1="40" x2="49" y2="42"/><line class="cls-2" x1="49" y1="44" x2="49" y2="46"/><line class="cls-2" x1="49" y1="48" x2="49" y2="50"/><polygon class="cls-2" points="45 5 53 5 53 55 49 63 45 55 45 5"/><polyline class="cls-2" points="47 5 47 1 51 1 51 5"/><line class="cls-1" x1="49" y1="5" x2="49" y2="27"/><polyline class="cls-1" points="45 13 1 13 1 22"/><polyline class="cls-1" points="59 22 59 13 53 13"/><line class="cls-1" x1="4" y1="17" x2="24" y2="17"/></g></g></svg>