<svg xmlns="http://www.w3.org/2000/svg" viewBox="0 0 64 64"><defs><style>.cls-1{fill:none;stroke:#fff;stroke-miterlimit:10;stroke-width:1px;}</style></defs><title>Asset 14</title><g id="Layer_2" data-name="Layer 2"><g id="Layer_1-2" data-name="Layer 1"><circle class="cls-1" cx="32" cy="20" r="19"/><path class="cls-1" d="M36,16a4,4,0,0,0-8,0c0,2.21,2,3,4,4s4,1.79,4,4a4,4,0,0,1-8,0"/><line class="cls-1" x1="32" y1="12" x2="32" y2="9"/><line class="cls-1" x1="32" y1="28" x2="32" y2="31"/><path class="cls-1" d="M14,45,7,38V37a3,3,0,0,1,3-3h1L21,44a7.81,7.81,0,0,1,2,5v8H12V55a6.19,6.19,0,0,0-2-4L3,44a6.19,6.19,0,0,1-2-4V24a3,3,0,0,1,6,0v8"/><path class="cls-1" d="M50,45l7-7V37a3,3,0,0,0-3-3H53L43,44a7.81,7.81,0,0,0-2,5v8H52V55a6.19,6.19,0,0,1,2-4l7-7a6.19,6.19,0,0,0,2-4V24a3,3,0,0,0-6,0v8"/><path class="cls-1" d="M39,64V58a1,1,0,0,1,1-1H53a1,1,0,0,1,1,1v6"/><path class="cls-1" d="M10,64V58a1,1,0,0,1,1-1H24a1,1,0,0,1,1,1v6"/><line class="cls-1" x1="22" y1="20" x2="24" y2="20"/><line class="cls-1" x1="40" y1="20" x2="42" y2="20"/><circle class="cls-1" cx="32" cy="20" r="15"/></g></g></svg>