<svg xmlns="http://www.w3.org/2000/svg" viewBox="0 0 60 64"><defs><style>.cls-1,.cls-2{fill:none;stroke:#fff;stroke-width:2px;}.cls-1{stroke-miterlimit:10;}.cls-2{stroke-linejoin:round;}.cls-3{fill:#fff;}</style></defs><g id="Layer_2" data-name="Layer 2"><g id="Layer_1-2" data-name="Layer 1"><polyline class="cls-1" points="42 55 1 55 1 25 45 25"/><polyline class="cls-1" points="53 25 59 25 59 55 56 55"/><line class="cls-1" x1="20" y1="29" x2="30" y2="29"/><line class="cls-1" x1="20" y1="35" x2="42" y2="35"/><line class="cls-1" x1="20" y1="39" x2="42" y2="39"/><line class="cls-1" x1="20" y1="43" x2="42" y2="43"/><line class="cls-1" x1="20" y1="51" x2="24" y2="51"/><line class="cls-1" x1="26" y1="51" x2="34" y2="51"/><line class="cls-1" x1="4" y1="29" x2="6" y2="29"/><line class="cls-1" x1="4" y1="51" x2="6" y2="51"/><line class="cls-2" x1="45" y1="35" x2="53" y2="35"/><line class="cls-2" x1="45" y1="55" x2="53" y2="55"/><line class="cls-2" x1="49" y1="40" x2="49" y2="42"/><line class="cls-2" x1="49" y1="44" x2="49" y2="46"/><line class="cls-2" x1="49" y1="48" x2="49" y2="50"/><polygon class="cls-2" points="45 5 53 5 53 55 49 63 45 55 45 5"/><polyline class="cls-2" points="47 5 47 1 51 1 51 5"/><line class="cls-1" x1="49" y1="5" x2="49" y2="27"/><polyline class="cls-1" points="45 13 1 13 1 22"/><polyline class="cls-1" points="59 22 59 13 53 13"/><line class="cls-1" x1="4" y1="17" x2="24" y2="17"/><path class="cls-3" d="M16.65,45.42a7.33,7.33,0,0,1-3.63.87,6.6,6.6,0,0,1-4.73-1.85,6.07,6.07,0,0,1-1.62-3.15H5V40H6.49c0-.29,0-.47,0-.63a6.59,6.59,0,0,1,.07-.93H5V37.16H6.7a6.46,6.46,0,0,1,1.67-3.09,7,7,0,0,1,5-2,7,7,0,0,1,3.25.74l-.53,1.64a5.85,5.85,0,0,0-2.75-.63,4.56,4.56,0,0,0-3.25,1.27A3.79,3.79,0,0,0,9,37.16h6.59v1.27H8.74c0,.29-.06.59-.06.77a7.6,7.6,0,0,0,0,.79h6.88v1.3H9a4,4,0,0,0,1,1.91,4.47,4.47,0,0,0,3.33,1.29,6.67,6.67,0,0,0,3-.69Z"/></g></g></svg>