<svg xmlns="http://www.w3.org/2000/svg" viewBox="0 0 64 62"><defs><style>.cls-1,.cls-2{fill:none;stroke:#fff;stroke-width:1px;}.cls-1{stroke-miterlimit:10;}.cls-2{stroke-linejoin:round;}</style></defs><title>Asset 24</title><g id="Layer_2" data-name="Layer 2"><g id="Layer_1-2" data-name="Layer 1"><path class="cls-1" d="M19,34.5C19,38,17,41,14,41s-5-3-5-6.5S10,29,14,29,19,31,19,34.5Z"/><path class="cls-1" d="M17,40l6,4v2c0,1.66-1,3-2,3H7c-1,0-2-1.34-2-3V44l6-4"/><path class="cls-2" d="M27,51a2,2,0,0,1-2,2H20l4,8L8,53H3a2,2,0,0,1-2-2V27a2,2,0,0,1,2-2H25a2,2,0,0,1,2,2Z"/><path class="cls-1" d="M55,24.5C55,28,53,31,50,31s-5-3-5-6.5S46,19,50,19,55,21,55,24.5Z"/><path class="cls-1" d="M53,30l6,4v2c0,1.66-1,3-2,3H43c-1,0-2-1.34-2-3V34l6-4"/><path class="cls-2" d="M44,15H61a2,2,0,0,1,2,2V41a2,2,0,0,1-2,2H56L40,51l4-8H39a2,2,0,0,1-2-2V32"/><path class="cls-1" d="M33,10.5C33,14,31,17,28,17s-5-3-5-6.5S24,5,28,5,33,7,33,10.5Z"/><polyline class="cls-1" points="19 22 19 20 25 16"/><path class="cls-1" d="M31,16l6,4v2c0,1.66-1,3-2,3H30"/><path class="cls-2" d="M15,22V3a2,2,0,0,1,2-2H39a2,2,0,0,1,2,2V27a2,2,0,0,1-2,2H34l-4,6"/><line class="cls-2" x1="39" y1="57" x2="41" y2="57"/><line class="cls-2" x1="35" y1="57" x2="37" y2="57"/><line class="cls-2" x1="31" y1="57" x2="33" y2="57"/><line class="cls-2" x1="43" y1="57" x2="45" y2="57"/></g></g></svg>
