<svg xmlns="http://www.w3.org/2000/svg" viewBox="0 0 64 64"><defs><style>.cls-1{fill:none;stroke:#fff;stroke-linejoin:round;stroke-width:1px;}</style></defs><title>Asset 19</title><g id="Layer_2" data-name="Layer 2"><g id="Layer_1-2" data-name="Layer 1"><polyline class="cls-1" points="1 64 1 59 21 59 21 64"/><polyline class="cls-1" points="21 56 21 53 41 53 41 64"/><polyline class="cls-1" points="41 50 41 47 63 47 63 64"/><circle class="cls-1" cx="29" cy="5" r="4"/><polyline class="cls-1" points="24 15 16 17 10 23 7 20 14 13 25 10"/><polyline class="cls-1" points="25 30 33 32 39 42 43 40 38 29 28 24 30 17 39 16 46 9 43 6 37 12 30 12"/><polyline class="cls-1" points="26 28 23 38 12 47 9 44 17 36 20 27 21.03 15.74"/></g></g></svg>
