<svg xmlns="http://www.w3.org/2000/svg" viewBox="0 0 52 64"><defs><style>.cls-1{fill:none;stroke:#fff;stroke-miterlimit:10;stroke-width:1px;}</style></defs><title>Asset 20</title><g id="Layer_2" data-name="Layer 2"><g id="Layer_1-2" data-name="Layer 1"><path class="cls-1" d="M42,4H35a4,4,0,0,0-4,4V56a4,4,0,0,0,4,4h7"/><circle class="cls-1" cx="48" cy="4" r="3"/><circle class="cls-1" cx="48" cy="42" r="3"/><circle class="cls-1" cx="48" cy="60" r="3"/><line class="cls-1" x1="26" y1="42" x2="42" y2="42"/><circle class="cls-1" cx="48" cy="23" r="3"/><line class="cls-1" x1="26" y1="23" x2="42" y2="23"/><line class="cls-1" x1="12" y1="64" x2="12" y2="41"/><circle class="cls-1" cx="12" cy="6" r="5"/><path class="cls-1" d="M5,64V38H1V22a7,7,0,0,1,7-7h8a7,7,0,0,1,7,7V38H19V64"/><line class="cls-1" x1="12" y1="18" x2="12" y2="20"/><line class="cls-1" x1="12" y1="22" x2="12" y2="24"/></g></g></svg>
