<svg xmlns="http://www.w3.org/2000/svg" viewBox="0 0 64 64"><defs><style>.cls-1,.cls-2{fill:none;stroke:#fff;stroke-width:1px;}.cls-1{stroke-miterlimit:10;}.cls-2{stroke-linejoin:round;}</style></defs><title>Asset 13</title><g id="Layer_2" data-name="Layer 2"><g id="Layer_1-2" data-name="Layer 1"><path class="cls-1" d="M23,15a8,8,0,0,0-8,8V34"/><path class="cls-1" d="M41,15a8,8,0,0,1,8,8V34"/><polyline class="cls-1" points="49 45 63 45 63 63 53 63"/><polyline class="cls-1" points="11 63 1 63 1 45 15 45"/><path class="cls-2" d="M49,42V63H15V42a3,3,0,0,1,3-3H46A3,3,0,0,1,49,42Z"/><polyline class="cls-2" points="49 63 52 57 52 51 49 51"/><polyline class="cls-2" points="15 63 12 57 12 51 15 51"/><circle class="cls-2" cx="32" cy="51" r="3"/><path class="cls-1" d="M10,45V43c0-10,7-9,14-13"/><path class="cls-1" d="M40,30c7,4,14,2,14,12v3"/><polygon class="cls-1" points="36 34 32 32 28 34 24 30 26 27 32 28 38 27 40 30 36 34"/><line class="cls-1" x1="37" y1="23" x2="37" y2="27"/><line class="cls-1" x1="27" y1="27" x2="27" y2="23"/><path class="cls-1" d="M41,10c0-6.08-2.92-9-9-9s-9,2.92-9,9v4c1,7,4,9,4,9a13,13,0,0,0,10,0s3-2,4-9Z"/><polyline class="cls-1" points="23 10 27 8 32 10 37 12 41 10"/></g></g></svg>
