<svg xmlns="http://www.w3.org/2000/svg" viewBox="0 0 64 64"><defs><style>.cls-1,.cls-2{fill:none;stroke:#fff;stroke-width:2px;}.cls-1{stroke-linejoin:round;}.cls-2{stroke-miterlimit:10;}</style></defs><title>Asset 16</title><g id="Layer_2" data-name="Layer 2"><g id="Layer_1-2" data-name="Layer 1"><polyline class="cls-1" points="20 15 9 4 12 1 1 1 1 12 4 9 18 23"/><polyline class="cls-1" points="42 47 55 60 52 63 63 63 63 52 60 55 45 40"/><polyline class="cls-1" points="44 15 55 4 52 1 63 1 63 12 60 9 46 23"/><polyline class="cls-1" points="22 47 9 60 12 63 1 63 1 52 4 55 19 40"/><line class="cls-1" x1="32" y1="64" x2="32" y2="41"/><circle class="cls-1" cx="32" cy="6" r="5"/><path class="cls-2" d="M25,64V38H21V22a7,7,0,0,1,7-7h8a7,7,0,0,1,7,7V38H39V64"/><line class="cls-1" x1="31" y1="19" x2="33" y2="19"/><line class="cls-1" x1="31" y1="23" x2="33" y2="23"/></g></g></svg>