<svg xmlns="http://www.w3.org/2000/svg" viewBox="0 0 46 64"><defs><style>.cls-1,.cls-2,.cls-3{fill:none;stroke:#fff;}.cls-1,.cls-2{stroke-miterlimit:10;}.cls-1{stroke-width:2px;}.cls-2,.cls-3{stroke-width:0.82px;}.cls-3{stroke-linecap:round;stroke-linejoin:round;}</style></defs><title>Asset 2</title><g id="Layer_2" data-name="Layer 2"><g id="Layer_1-2" data-name="Layer 1"><line class="cls-1" x1="1" y1="9" x2="45" y2="9"/><line class="cls-1" x1="1" y1="55" x2="45" y2="55"/><rect class="cls-1" x="1" y="1" width="44" height="62" rx="5"/><line class="cls-1" x1="17" y1="5" x2="29" y2="5"/><line class="cls-1" x1="21" y1="59" x2="25" y2="59"/><rect class="cls-1" x="5" y="13" width="36" height="38"/><polyline class="cls-2" points="28.88 42.28 28.88 45.95 12.58 45.95 12.58 28.42"/><line class="cls-2" x1="28.88" y1="28.42" x2="28.88" y2="31.68"/><polygon class="cls-3" points="30.51 29.23 20.73 24.34 10.95 29.23 10.95 27.2 20.73 22.3 30.51 27.2 30.51 29.23"/><circle class="cls-2" cx="20.73" cy="30.46" r="2.04"/><rect class="cls-2" x="16.24" y="35.35" width="8.97" height="1.63"/><line class="cls-2" x1="17.06" y1="45.54" x2="17.06" y2="36.98"/><line class="cls-2" x1="24.4" y1="36.98" x2="24.4" y2="45.54"/><polyline class="cls-2" points="15.84 24.75 15.84 22.3 14.21 22.3 14.21 25.57"/><line class="cls-2" x1="12.58" y1="45.95" x2="10.54" y2="45.95"/><line class="cls-2" x1="36.63" y1="45.95" x2="28.88" y2="45.95"/><line class="cls-2" x1="23.17" y1="41.46" x2="22.36" y2="41.46"/><line class="cls-2" x1="31.73" y1="45.95" x2="31.73" y2="35.35"/><circle class="cls-2" cx="31.73" cy="36.98" r="4.48"/><line class="cls-2" x1="31.73" y1="38.2" x2="29.29" y2="35.76"/><line class="cls-2" x1="31.73" y1="39.83" x2="34.18" y2="37.39"/></g></g></svg>