<svg xmlns="http://www.w3.org/2000/svg" viewBox="0 0 64 64"><defs><style>.cls-1,.cls-2{fill:none;stroke:#fff;stroke-width:1px;}.cls-1{stroke-linejoin:round;}.cls-2{stroke-miterlimit:10;}</style></defs><title>Asset 15</title><g id="Layer_2" data-name="Layer 2"><g id="Layer_1-2" data-name="Layer 1"><polygon class="cls-1" points="32 13 43 20 43 15 32 8 21 15 21 20 32 13"/><polygon class="cls-2" points="59 63 5 63 1 59 1 57 25 57 27 59 37 59 39 57 63 57 63 59 59 63"/><line class="cls-2" x1="7" y1="51" x2="57" y2="51"/><polyline class="cls-1" points="32 8 32 1 42 1 42 5 35 5"/><path class="cls-1" d="M29,48V38a3,3,0,0,1,6,0V48"/><line class="cls-1" x1="23" y1="48" x2="23" y2="22"/><line class="cls-1" x1="41" y1="48" x2="41" y2="22"/><circle class="cls-1" cx="32" cy="24" r="3"/><polyline class="cls-1" points="7 54 7 23 20 23"/><polyline class="cls-1" points="44 23 57 23 57 54"/><polyline class="cls-1" points="23 27 19 27 19 31 23 31"/><polyline class="cls-1" points="23 35 19 35 19 39 23 39"/><rect class="cls-1" x="11" y="27" width="4" height="4"/><rect class="cls-1" x="11" y="35" width="4" height="4"/><polyline class="cls-1" points="23 43 19 43 19 47 23 47"/><rect class="cls-1" x="11" y="43" width="4" height="4"/><polyline class="cls-1" points="41 27 45 27 45 31 41 31"/><polyline class="cls-1" points="41 35 45 35 45 39 41 39"/><rect class="cls-1" x="49" y="27" width="4" height="4"/><rect class="cls-1" x="49" y="35" width="4" height="4"/><polyline class="cls-1" points="41 43 45 43 45 47 41 47"/><rect class="cls-1" x="49" y="43" width="4" height="4"/><line class="cls-1" x1="28" y1="31" x2="36" y2="31"/></g></g></svg>
