<svg xmlns="http://www.w3.org/2000/svg" viewBox="0 0 64 56"><defs><style>.cls-1,.cls-2{fill:none;stroke:#fff;stroke-width:1px;}.cls-1{stroke-miterlimit:10;}.cls-2{stroke-linejoin:round;}</style></defs><title>Asset 4</title><g id="Layer_2" data-name="Layer 2"><g id="Layer_1-2" data-name="Layer 1"><line class="cls-1" x1="55" y1="1" x2="55" y2="45"/><line class="cls-1" x1="9" y1="1" x2="9" y2="45"/><rect class="cls-1" x="1" y="1" width="62" height="44" rx="5"/><line class="cls-1" x1="59" y1="21" x2="59" y2="25"/><line class="cls-1" x1="5" y1="18" x2="5" y2="28"/><polygon class="cls-1" points="63 55 5 55 2 52 2 52 5 49 63 49 63 55"/><line class="cls-1" x1="2" y1="52" y2="52"/><line class="cls-1" x1="55" y1="49" x2="55" y2="55"/><line class="cls-1" x1="9" y1="49" x2="9" y2="55"/><line class="cls-1" x1="25" y1="49" x2="25" y2="55"/><line class="cls-1" x1="12" y1="52" x2="14" y2="52"/><line class="cls-1" x1="16" y1="52" x2="18" y2="52"/><line class="cls-1" x1="20" y1="52" x2="22" y2="52"/><polyline class="cls-2" points="22 11 18 15 15 12"/><line class="cls-2" x1="26" y1="11" x2="34" y2="11"/><line class="cls-2" x1="26" y1="15" x2="42" y2="15"/><polyline class="cls-2" points="22 21 18 25 15 22"/><line class="cls-2" x1="26" y1="21" x2="50" y2="21"/><line class="cls-2" x1="26" y1="25" x2="32" y2="25"/><line class="cls-2" x1="26" y1="31" x2="40" y2="31"/><line class="cls-2" x1="42" y1="31" x2="50" y2="31"/><line class="cls-2" x1="26" y1="35" x2="50" y2="35"/><polyline class="cls-2" points="22 31 18 35 15 32"/><line class="cls-2" x1="34" y1="25" x2="36" y2="25"/><line class="cls-2" x1="38" y1="25" x2="46" y2="25"/><line class="cls-2" x1="36" y1="11" x2="50" y2="11"/></g></g></svg>
