<svg xmlns="http://www.w3.org/2000/svg" viewBox="0 0 64 64"><defs><style>.cls-1{fill:none;stroke:#fff;stroke-miterlimit:10;stroke-width:2px;}</style></defs><title>Asset 26</title><g id="Layer_2" data-name="Layer 2"><g id="Layer_1-2" data-name="Layer 1"><rect class="cls-1" x="1" y="1" width="62" height="62"/><line class="cls-1" x1="1" y1="9" x2="63" y2="9"/><line class="cls-1" x1="4" y1="5" x2="6" y2="5"/><line class="cls-1" x1="8" y1="5" x2="10" y2="5"/><line class="cls-1" x1="12" y1="5" x2="14" y2="5"/><line class="cls-1" x1="17" y1="1" x2="17" y2="9"/><line class="cls-1" x1="20" y1="5" x2="60" y2="5"/><rect class="cls-1" x="5" y="13" width="54" height="46"/><path class="cls-1" d="M37,24.5C37,28,35,31,32,31s-5-3-5-6.5S28,19,32,19,37,21,37,24.5Z"/><path class="cls-1" d="M35,30l6,4v2c0,1.66-1,3-2,3H25c-1,0-2-1.34-2-3V34l6-4"/><path class="cls-1" d="M47,30l6,4v2c0,1.66-1,3-2,3H44"/><circle class="cls-1" cx="45" cy="26" r="4"/><path class="cls-1" d="M17,30l-6,4v2c0,1.66,1,3,2,3h7"/><circle class="cls-1" cx="19" cy="26" r="4"/><line class="cls-1" x1="21" y1="44" x2="54" y2="44"/><line class="cls-1" x1="10" y1="44" x2="18" y2="44"/><line class="cls-1" x1="41" y1="48" x2="54" y2="48"/><line class="cls-1" x1="10" y1="48" x2="38" y2="48"/><line class="cls-1" x1="29" y1="52" x2="54" y2="52"/><line class="cls-1" x1="10" y1="52" x2="26" y2="52"/><line class="cls-1" x1="21" y1="42" x2="21" y2="46"/><line class="cls-1" x1="41" y1="46" x2="41" y2="50"/><line class="cls-1" x1="29" y1="50" x2="29" y2="54"/></g></g></svg>