<svg xmlns="http://www.w3.org/2000/svg" viewBox="0 0 64 64"><defs><style>.cls-1{fill:none;stroke:#fff;stroke-miterlimit:10;stroke-width:2px;}</style></defs><title>Asset 3</title><g id="Layer_2" data-name="Layer 2"><g id="Layer_1-2" data-name="Layer 1"><line class="cls-1" y1="63" x2="64" y2="63"/><polyline class="cls-1" points="4 63 4 1 60 1 60 63"/><line class="cls-1" x1="4" y1="9" x2="60" y2="9"/><line class="cls-1" x1="7" y1="5" x2="9" y2="5"/><line class="cls-1" x1="11" y1="5" x2="13" y2="5"/><line class="cls-1" x1="15" y1="5" x2="17" y2="5"/><line class="cls-1" x1="20" y1="1" x2="20" y2="9"/><line class="cls-1" x1="23" y1="5" x2="57" y2="5"/><rect class="cls-1" x="8" y="13" width="48" height="12"/><line class="cls-1" x1="31" y1="19" x2="33" y2="19"/><line class="cls-1" x1="27" y1="19" x2="29" y2="19"/><line class="cls-1" x1="35" y1="19" x2="37" y2="19"/><rect class="cls-1" x="8" y="31" width="13" height="8"/><rect class="cls-1" x="25" y="31" width="14" height="8"/><rect class="cls-1" x="43" y="31" width="13" height="8"/><line class="cls-1" x1="7" y1="43" x2="22" y2="43"/><line class="cls-1" x1="7" y1="47" x2="22" y2="47"/><line class="cls-1" x1="7" y1="51" x2="22" y2="51"/><line class="cls-1" x1="24" y1="43" x2="39" y2="43"/><line class="cls-1" x1="24" y1="47" x2="39" y2="47"/><line class="cls-1" x1="24" y1="51" x2="39" y2="51"/><line class="cls-1" x1="42" y1="43" x2="57" y2="43"/><line class="cls-1" x1="42" y1="47" x2="57" y2="47"/><line class="cls-1" x1="42" y1="51" x2="57" y2="51"/><line class="cls-1" x1="7" y1="59" x2="57" y2="59"/></g></g></svg>